STARTFONT 2.1
COMMENT
COMMENT Converted from OpenType font "NimbusSans-Regular.otf" by "otf2bdf 3.0".
COMMENT
FONT -FreeType-Nimbus Sans-Medium-R-Normal--55-400-100-100-P-290-ISO10646-1
SIZE 40 100 100
FONTBOUNDINGBOX 69 77 -12 -17
STARTPROPERTIES 19
FOUNDRY "FreeType"
FAMILY_NAME "Nimbus Sans"
WEIGHT_NAME "Medium"
SLANT "R"
SETWIDTH_NAME "Normal"
ADD_STYLE_NAME ""
PIXEL_SIZE 55
POINT_SIZE 400
RESOLUTION_X 100
RESOLUTION_Y 100
SPACING "P"
AVERAGE_WIDTH 290
CHARSET_REGISTRY "ISO10646"
CHARSET_ENCODING "1"
FONT_ASCENT 40
FONT_DESCENT 15
COPYRIGHT "(URW)++,Copyright 2014 by (URW)++ Design & Development"
_OTF_FONTFILE "NimbusSans-Regular.otf"
_OTF_PSNAME "NimbusSans-Regular"
ENDPROPERTIES
CHARS 854
STARTCHAR 0020
ENCODING 32
SWIDTH 270 0
DWIDTH 15 0
BBX 0 0 0 0
BITMAP
ENDCHAR
STARTCHAR 0021
ENCODING 33
SWIDTH 270 0
DWIDTH 15 0
BBX 5 41 7 0
BITMAP
F8
F8
F8
F8
F8
F8
F8
F8
F8
F8
F8
F8
F8
F8
F8
F8
F8
F8
F8
F8
F0
F0
F0
F0
F0
70
70
70
70
70
60
60
00
00
00
F8
F8
F8
F8
F8
F8
ENDCHAR
STARTCHAR 0022
ENCODING 34
SWIDTH 360 0
DWIDTH 20 0
BBX 14 13 3 26
BITMAP
F87C
F87C
F87C
F87C
F87C
F87C
F87C
F87C
F078
7078
7038
7038
7038
ENDCHAR
STARTCHAR 0023
ENCODING 35
SWIDTH 558 0
DWIDTH 31 0
BBX 29 40 1 -1
BITMAP
003E03C0
003E07C0
003C07C0
003C0780
003C0780
003C0780
007C0780
00780F80
00780F00
00780F00
00780F00
3FFFFFF8
3FFFFFF8
3FFFFFF8
3FFFFFF8
00F01E00
00F01E00
01F01E00
01E03E00
01E03C00
01E03C00
01E03C00
03E03C00
03C07C00
FFFFFFE0
FFFFFFE0
FFFFFFE0
FFFFFFE0
07C0F800
0780F800
0780F000
0780F000
0780F000
0F80F000
0F01F000
0F01E000
0F01E000
0F01E000
0F01E000
1F01E000
ENDCHAR
STARTCHAR 0024
ENCODING 36
SWIDTH 558 0
DWIDTH 31 0
BBX 27 50 2 -7
BITMAP
000E0000
000E0000
000E0000
001F8000
01FFF000
07FFFC00
0FFFFE00
1FCE7F00
3F0E1F80
3E0E0F80
3C0E0780
7C0E07C0
7C0E07C0
780E03C0
7C0E0000
7C0E0000
7C0E0000
7E0E0000
3F0E0000
3F8E0000
1FFE0000
0FFF8000
07FFF000
01FFFC00
007FFF00
000FFF80
000E7FC0
000E1FC0
000E07E0
000E03E0
000E03E0
F80E01E0
F80E01E0
F80E01E0
F80E03E0
780E03E0
7C0E03E0
7C0E07C0
3E0E0FC0
3F8E1F80
1FFFFF00
0FFFFE00
07FFFC00
00FFE000
000E0000
000E0000
000E0000
000E0000
000E0000
000E0000
ENDCHAR
STARTCHAR 0025
ENCODING 37
SWIDTH 882 0
DWIDTH 49 0
BBX 46 40 2 -1
BITMAP
00000001E000
03F00001C000
0FFC0003C000
1FFF00038000
3FFF80078000
7C0F80070000
7807C00F0000
F003C00E0000
F003C01E0000
F001E03C0000
E001E03C0000
F001C0780000
F003C0780000
F003C0F00000
7807C0E00000
7E1F81E00000
3FFF01C00000
1FFE03C00000
0FFC03800000
03F007800000
00000F000000
00000F007E00
00001E01FF80
00001E03FFE0
00003C07FFF0
0000380FC1F0
0000780F00F8
0000701E0078
0000F01E007C
0000E01E003C
0001E01E003C
0003C01E003C
0003C01E003C
0007801F0078
0007800F00F8
000F000FC1F0
000E0007FFF0
001E0003FFE0
001C0001FF80
003C00007E00
ENDCHAR
STARTCHAR 0026
ENCODING 38
SWIDTH 666 0
DWIDTH 37 0
BBX 32 40 3 -1
BITMAP
001F8000
007FE000
01FFF000
03FFF800
03E0FC00
07C07C00
07803E00
0F803E00
0F801E00
0F803E00
07803E00
07C03C00
07E07C00
03E0F800
01F3F000
01FFE000
00FFC000
007F0000
01FF0000
03FF0000
0FEF8000
1F87C0F8
3F07E0F8
7E03F0F8
7C01F8F0
F800F9F0
F8007DF0
F8007FE0
F8003FE0
F8001FC0
F8000FC0
F8000FC0
FC001FE0
7E003FF0
7F00FFF8
3FC7FCFC
1FFFF8FC
0FFFE07E
07FFC03F
01FE0000
ENDCHAR
STARTCHAR 0027
ENCODING 39
SWIDTH 198 0
DWIDTH 11 0
BBX 5 13 3 26
BITMAP
F8
F8
F8
F8
F8
F8
F8
F8
F0
F0
70
70
70
ENDCHAR
STARTCHAR 0028
ENCODING 40
SWIDTH 342 0
DWIDTH 19 0
BBX 12 52 4 -11
BITMAP
0070
00E0
01E0
01C0
03C0
0380
0780
0700
0F00
0F00
1E00
1E00
1E00
3C00
3C00
3C00
7C00
7800
7800
7800
7800
F800
F800
F800
F800
F800
F800
F800
F800
F800
F800
F800
7800
7800
7800
7C00
7C00
3C00
3C00
3E00
1E00
1E00
0F00
0F00
0F00
0780
0780
03C0
01C0
01E0
00E0
0070
ENDCHAR
STARTCHAR 0029
ENCODING 41
SWIDTH 342 0
DWIDTH 19 0
BBX 12 52 2 -11
BITMAP
F000
7000
3800
3C00
1C00
1E00
0E00
0F00
0F00
0780
0780
0780
03C0
03C0
03C0
03E0
01E0
01E0
01E0
01F0
01F0
01F0
00F0
00F0
00F0
00F0
00F0
00F0
00F0
00F0
00F0
01F0
01F0
01F0
01E0
01E0
01E0
03E0
03C0
03C0
03C0
0780
0780
0F00
0F00
0E00
1E00
1C00
3C00
3800
7000
7000
ENDCHAR
STARTCHAR 002A
ENCODING 42
SWIDTH 396 0
DWIDTH 22 0
BBX 17 16 2 25
BITMAP
01C000
01C000
01C000
01C000
41C100
79CF00
FFFF80
7FFF80
0FF800
03E000
07F000
0F7800
0F3C00
1E3E00
1C1C00
0C0800
ENDCHAR
STARTCHAR 002B
ENCODING 43
SWIDTH 576 0
DWIDTH 32 0
BBX 27 27 3 -1
BITMAP
001E0000
001E0000
001E0000
001E0000
001E0000
001E0000
001E0000
001E0000
001E0000
001E0000
001E0000
001E0000
FFFFFFE0
FFFFFFE0
FFFFFFE0
FFFFFFE0
001E0000
001E0000
001E0000
001E0000
001E0000
001E0000
001E0000
001E0000
001E0000
001E0000
001E0000
ENDCHAR
STARTCHAR 002C
ENCODING 44
SWIDTH 270 0
DWIDTH 15 0
BBX 6 14 5 -8
BITMAP
FC
FC
FC
FC
FC
FC
1C
1C
1C
18
18
38
F0
E0
ENDCHAR
STARTCHAR 002D
ENCODING 45
SWIDTH 342 0
DWIDTH 19 0
BBX 13 4 3 13
BITMAP
FFF8
FFF8
FFF8
FFF8
ENDCHAR
STARTCHAR 002E
ENCODING 46
SWIDTH 270 0
DWIDTH 15 0
BBX 6 6 5 0
BITMAP
FC
FC
FC
FC
FC
FC
ENDCHAR
STARTCHAR 002F
ENCODING 47
SWIDTH 270 0
DWIDTH 15 0
BBX 16 42 0 -1
BITMAP
0007
000E
000E
000E
001C
001C
001C
0038
0038
0038
0070
0070
0070
00F0
00E0
00E0
00E0
01C0
01C0
01C0
0380
0380
0380
0700
0700
0700
0E00
0E00
0E00
1E00
1C00
1C00
1C00
3800
3800
3800
7000
7000
7000
E000
E000
E000
ENDCHAR
STARTCHAR 0030
ENCODING 48
SWIDTH 558 0
DWIDTH 31 0
BBX 26 41 2 -1
BITMAP
003F8000
00FFE000
03FFF800
07FFFC00
0FF3FC00
0FC07E00
1F803F00
1F001F00
3E001F80
3E000F80
3E000F80
7C000F80
7C0007C0
7C0007C0
7C0007C0
7C0007C0
7C0007C0
F80007C0
F80007C0
F80007C0
F80007C0
F80007C0
F80007C0
F80007C0
7C0007C0
7C0007C0
7C0007C0
7C0007C0
7C0007C0
7C000F80
7E000F80
3E000F80
3E001F00
1F001F00
1F003F00
1F807E00
0FE0FC00
07FFFC00
03FFF800
01FFE000
003F8000
ENDCHAR
STARTCHAR 0031
ENCODING 49
SWIDTH 558 0
DWIDTH 31 0
BBX 13 40 6 0
BITMAP
0038
0038
0078
0078
00F8
01F8
03F8
3FF8
FFF8
FFF8
FFF8
00F8
00F8
00F8
00F8
00F8
00F8
00F8
00F8
00F8
00F8
00F8
00F8
00F8
00F8
00F8
00F8
00F8
00F8
00F8
00F8
00F8
00F8
00F8
00F8
00F8
00F8
00F8
00F8
00F8
ENDCHAR
STARTCHAR 0032
ENCODING 50
SWIDTH 558 0
DWIDTH 31 0
BBX 26 40 2 0
BITMAP
003FC000
01FFF800
07FFFC00
0FFFFE00
1FF1FF00
1F803F80
3F001F80
3E000FC0
7E0007C0
7C0007C0
7C0007C0
7C0007C0
7C0007C0
7C0007C0
000007C0
000007C0
00000F80
00001F80
00003F00
00007E00
0001FE00
0007F800
001FF000
003FC000
00FF8000
01FE0000
03F80000
07E00000
0FC00000
1F800000
3F000000
3E000000
7C000000
7C000000
7C000000
FFFFFFC0
FFFFFFC0
FFFFFFC0
FFFFFFC0
FFFFFFC0
ENDCHAR
STARTCHAR 0033
ENCODING 51
SWIDTH 558 0
DWIDTH 31 0
BBX 26 41 2 -1
BITMAP
007F8000
03FFF000
07FFF800
0FFFFC00
1FE3FE00
3F007F00
3E003F00
7E001F80
7C000F80
7C000F80
7C000F80
7C000F80
7C000F80
00000F80
00001F00
00003F00
00007E00
003FFC00
003FF800
003FF000
003FFC00
0007FF00
00003F00
00001F80
00000FC0
000007C0
000007C0
000007C0
F80007C0
F80007C0
F80007C0
F80007C0
FC000FC0
7C000F80
7E001F80
3F003F00
3FE1FF00
1FFFFE00
0FFFF800
03FFF000
00FF8000
ENDCHAR
STARTCHAR 0034
ENCODING 52
SWIDTH 558 0
DWIDTH 31 0
BBX 27 40 2 0
BITMAP
00007800
0000F800
0000F800
0001F800
0003F800
0003F800
0007F800
000FF800
001FF800
001EF800
003EF800
007CF800
0078F800
00F8F800
01F0F800
03E0F800
03C0F800
07C0F800
0F80F800
0F00F800
1F00F800
3E00F800
7C00F800
7C00F800
F800F800
F000F800
FFFFFFE0
FFFFFFE0
FFFFFFE0
FFFFFFE0
0000F800
0000F800
0000F800
0000F800
0000F800
0000F800
0000F800
0000F800
0000F800
0000F800
ENDCHAR
STARTCHAR 0035
ENCODING 53
SWIDTH 558 0
DWIDTH 31 0
BBX 27 40 2 -1
BITMAP
0FFFFF00
0FFFFF00
0FFFFF00
0FFFFF00
1FFFFF00
1F000000
1F000000
1F000000
1F000000
1E000000
1E000000
3E000000
3E000000
3E3FC000
3EFFF000
3FFFFC00
3FFFFE00
3FE1FF00
7F007F80
7E001F80
7C000FC0
00000FC0
000007C0
000007C0
000007C0
000007E0
000007E0
000007C0
000007C0
F80007C0
F80007C0
7C0007C0
7C000F80
7E001F80
3F003F00
3FF1FE00
1FFFFC00
07FFF800
03FFE000
007F8000
ENDCHAR
STARTCHAR 0036
ENCODING 54
SWIDTH 558 0
DWIDTH 31 0
BBX 27 41 2 -1
BITMAP
001FC000
007FF000
01FFFC00
03FFFE00
07F9FF00
0FC03F00
1F801F80
1F000F80
3F000F80
3E0007C0
3E000000
7C000000
7C000000
7C000000
7C000000
7C1FC000
7C7FF800
79FFFC00
FBFFFE00
FFF1FF00
FF803F80
FF001F80
FE000FC0
FE0007C0
FC0007C0
7C0007C0
7C0007E0
7C0007E0
7C0007E0
7C0007C0
7C0007C0
3C0007C0
3E0007C0
3E000F80
1F001F80
1FC03F00
0FF1FF00
07FFFE00
03FFF800
01FFF000
003F8000
ENDCHAR
STARTCHAR 0037
ENCODING 55
SWIDTH 558 0
DWIDTH 31 0
BBX 26 39 3 0
BITMAP
FFFFFFC0
FFFFFFC0
FFFFFFC0
FFFFFFC0
FFFFFFC0
00000F80
00000F00
00001E00
00003E00
00003C00
00007800
0000F800
0000F000
0001F000
0001E000
0003C000
0007C000
00078000
000F8000
000F0000
001F0000
001E0000
003E0000
003C0000
007C0000
007C0000
00F80000
00F80000
00F80000
01F00000
01F00000
01F00000
03E00000
03E00000
03E00000
03E00000
07C00000
07C00000
07C00000
ENDCHAR
STARTCHAR 0038
ENCODING 56
SWIDTH 558 0
DWIDTH 31 0
BBX 27 41 2 -1
BITMAP
003F8000
01FFF000
07FFF800
0FFFFC00
1FF3FE00
1F807F00
3F001F00
3E001F80
3E000F80
3E000F80
7C000F80
7E000F80
3E000F80
3E000F80
3F001F00
1F803F00
0FE0FE00
07FFFC00
03FFF000
03FFF800
0FFFFE00
1FC0FF00
3F003F80
7E000F80
7C000FC0
7C0007C0
F80007C0
F80007C0
F80007E0
F80007E0
F80007C0
FC0007C0
7C0007C0
7E000FC0
7E001F80
3F803F80
1FE1FF00
0FFFFE00
07FFFC00
03FFF000
007F8000
ENDCHAR
STARTCHAR 0039
ENCODING 57
SWIDTH 558 0
DWIDTH 31 0
BBX 26 41 2 -1
BITMAP
007F8000
01FFE000
07FFF800
0FFFFC00
1FE1FE00
3F807E00
3F003F00
7E001F00
7C000F80
7C000F80
F8000780
F80007C0
F80007C0
F80007C0
F80007C0
F80007C0
FC000FC0
7C000FC0
7E001FC0
7E001FC0
3F807FC0
1FE1FFC0
0FFFF7C0
07FFE7C0
03FFC7C0
00FF07C0
000007C0
000007C0
00000780
00000F80
00000F80
7C000F80
7C001F00
3E001F00
3F003E00
3F807E00
1FE3FC00
0FFFF800
07FFF000
03FFC000
007F0000
ENDCHAR
STARTCHAR 003A
ENCODING 58
SWIDTH 270 0
DWIDTH 15 0
BBX 6 29 6 0
BITMAP
FC
FC
FC
FC
FC
FC
00
00
00
00
00
00
00
00
00
00
00
00
00
00
00
00
00
FC
FC
FC
FC
FC
FC
ENDCHAR
STARTCHAR 003B
ENCODING 59
SWIDTH 270 0
DWIDTH 15 0
BBX 6 37 6 -8
BITMAP
FC
FC
FC
FC
FC
FC
00
00
00
00
00
00
00
00
00
00
00
00
00
00
00
00
00
FC
FC
FC
FC
FC
FC
1C
1C
1C
1C
18
38
F0
E0
ENDCHAR
STARTCHAR 003C
ENCODING 60
SWIDTH 576 0
DWIDTH 32 0
BBX 27 27 3 -1
BITMAP
00000020
000000E0
000007E0
00001FE0
0000FFE0
0003FF00
000FFC00
007FE000
01FF8000
07FE0000
3FF00000
FFC00000
FE000000
F8000000
FE000000
FFC00000
3FF00000
0FFC0000
01FF8000
007FE000
001FFC00
0003FF00
0000FFC0
00003FE0
000007E0
000001E0
00000060
ENDCHAR
STARTCHAR 003D
ENCODING 61
SWIDTH 576 0
DWIDTH 32 0
BBX 27 14 3 6
BITMAP
FFFFFFE0
FFFFFFE0
FFFFFFE0
FFFFFFE0
00000000
00000000
00000000
00000000
00000000
00000000
FFFFFFE0
FFFFFFE0
FFFFFFE0
FFFFFFE0
ENDCHAR
STARTCHAR 003E
ENCODING 62
SWIDTH 576 0
DWIDTH 32 0
BBX 27 27 3 -1
BITMAP
80000000
E0000000
F8000000
FF000000
FFC00000
3FF00000
0FFE0000
01FF8000
007FE000
000FFC00
0003FF00
0000FFE0
00001FE0
000007E0
00000FE0
00007FE0
0001FF80
000FFC00
003FF000
01FF8000
07FE0000
1FF80000
FFC00000
FF000000
FC000000
E0000000
80000000
ENDCHAR
STARTCHAR 003F
ENCODING 63
SWIDTH 558 0
DWIDTH 31 0
BBX 24 42 4 0
BITMAP
00FF80
03FFE0
0FFFF8
1FFFFC
3FC7FE
3F00FE
7E003F
7C003F
7C001F
78001F
F8001F
F8001F
F8001F
00001F
00003F
00003E
00007E
0000FC
0001F8
0003F0
0007E0
000FC0
001F80
003F00
003E00
003E00
007E00
007C00
007C00
007C00
007C00
000000
000000
000000
000000
000000
007C00
007C00
007C00
007C00
007C00
007C00
ENDCHAR
STARTCHAR 0040
ENCODING 64
SWIDTH 1008 0
DWIDTH 56 0
BBX 51 50 2 -8
BITMAP
000003FF000000
00001FFFF00000
0000FFFFFC0000
0003FFFFFF0000
000FFF07FFC000
001FE0007FE000
003F80000FF000
00FE000003F800
00FC000001FC00
01F8000000FE00
03F00000007F00
07E00000003F00
0FC00000001F80
0F8003FE000F80
1F000FFF1E0FC0
1F001FFFBE07C0
3E003F07BE07C0
3E007E03FC07E0
7C00F801FC03E0
7C01F800FC03E0
7C01F000F803E0
7803E000F803E0
F803E000F803E0
F807C000F003E0
F807C001F003E0
F807C001F003C0
F807C001F007C0
F807C001E007C0
F807C003E00780
F807C003E00F80
F807C007C01F00
F807C007C01F00
7C07E00FC03E00
7C03F01FC07C00
7C03F87FE1FC00
3E01FFFBFFF800
3F00FFE3FFE000
3F003FC1FFC000
1F8004007E0000
0FC00000000000
0FE00000000000
07F00000000000
03FC0000000000
01FE0000000000
00FFC000300000
003FFE0FF80000
001FFFFFF80000
0007FFFFFC0000
0000FFFFE00000
00000FFE000000
ENDCHAR
STARTCHAR 0041
ENCODING 65
SWIDTH 666 0
DWIDTH 37 0
BBX 35 41 1 0
BITMAP
0003F80000
0003FC0000
0007FC0000
0007FC0000
0007FE0000
000FFE0000
000FBE0000
000FBF0000
001F9F0000
001F1F0000
001F1F8000
003F0F8000
003E0F8000
003E0FC000
007C07C000
007C07C000
007C07E000
00F803E000
00F803E000
00F803F000
01F001F000
01F001F800
03F001F800
03E000F800
03FFFFFC00
07FFFFFC00
07FFFFFC00
07FFFFFE00
0FC0007E00
0F80003E00
0F80003F00
1F80003F00
1F00001F00
1F00001F80
3F00001F80
3E00000F80
3E00000FC0
7E00000FC0
7C000007C0
FC000007E0
FC000007E0
ENDCHAR
STARTCHAR 0042
ENCODING 66
SWIDTH 666 0
DWIDTH 37 0
BBX 31 41 4 0
BITMAP
FFFFF800
FFFFFF00
FFFFFF80
FFFFFFC0
FFFFFFE0
FC0007F0
FC0003F0
FC0001F8
FC0001F8
FC0000F8
FC0000F8
FC0000F8
FC0000F8
FC0001F0
FC0001F0
FC0003E0
FC0007E0
FFFFFFC0
FFFFFF00
FFFFFF00
FFFFFFC0
FFFFFFF0
FC0007F8
FC0001F8
FC0000FC
FC00007C
FC00007C
FC00007E
FC00007E
FC00007E
FC00007E
FC00007C
FC00007C
FC0000FC
FC0000FC
FC0003F8
FFFFFFF0
FFFFFFF0
FFFFFFE0
FFFFFF80
FFFFFE00
ENDCHAR
STARTCHAR 0043
ENCODING 67
SWIDTH 720 0
DWIDTH 40 0
BBX 35 43 3 -1
BITMAP
0003FE0000
003FFFC000
00FFFFF000
01FFFFF800
03FFFFFC00
07F801FE00
0FE0007E00
0FC0003F00
1F80001F00
3F00001F80
3E00000F80
7E00000F80
7C00000FC0
7C00000000
7C00000000
F800000000
F800000000
F800000000
F800000000
F800000000
F800000000
F800000000
F800000000
F800000000
F800000000
F800000000
F800000000
FC000007E0
FC000007C0
7C000007C0
7E00000FC0
7E00000FC0
3F00000F80
3F00001F80
1F80001F80
1FC0003F00
0FE0007F00
07F801FE00
03FFFFFC00
01FFFFF800
00FFFFF000
003FFFC000
0007FE0000
ENDCHAR
STARTCHAR 0044
ENCODING 68
SWIDTH 720 0
DWIDTH 40 0
BBX 32 41 5 0
BITMAP
FFFFF000
FFFFFE00
FFFFFF80
FFFFFFC0
FFFFFFE0
F8000FF0
F80003F8
F80001F8
F80000FC
F80000FC
F800007E
F800007E
F800003E
F800003E
F800003F
F800001F
F800001F
F800001F
F800001F
F800001F
F800001F
F800001F
F800001F
F800001F
F800001F
F800001F
F800003F
F800003E
F800003E
F800007E
F800007C
F80000FC
F80000FC
F80001F8
F80003F0
F8000FF0
FFFFFFE0
FFFFFFC0
FFFFFF00
FFFFFE00
FFFFF000
ENDCHAR
STARTCHAR 0045
ENCODING 69
SWIDTH 666 0
DWIDTH 37 0
BBX 29 41 5 0
BITMAP
FFFFFFF0
FFFFFFF0
FFFFFFF0
FFFFFFF0
FFFFFFF0
F8000000
F8000000
F8000000
F8000000
F8000000
F8000000
F8000000
F8000000
F8000000
F8000000
F8000000
F8000000
F8000000
FFFFFFE0
FFFFFFE0
FFFFFFE0
FFFFFFE0
FFFFFFE0
F8000000
F8000000
F8000000
F8000000
F8000000
F8000000
F8000000
F8000000
F8000000
F8000000
F8000000
F8000000
F8000000
FFFFFFF8
FFFFFFF8
FFFFFFF8
FFFFFFF8
FFFFFFF8
ENDCHAR
STARTCHAR 0046
ENCODING 70
SWIDTH 612 0
DWIDTH 34 0
BBX 27 41 5 0
BITMAP
FFFFFFE0
FFFFFFE0
FFFFFFE0
FFFFFFE0
FFFFFFE0
F8000000
F8000000
F8000000
F8000000
F8000000
F8000000
F8000000
F8000000
F8000000
F8000000
F8000000
F8000000
FFFFFF80
FFFFFF80
FFFFFF80
FFFFFF80
FFFFFF80
F8000000
F8000000
F8000000
F8000000
F8000000
F8000000
F8000000
F8000000
F8000000
F8000000
F8000000
F8000000
F8000000
F8000000
F8000000
F8000000
F8000000
F8000000
F8000000
ENDCHAR
STARTCHAR 0047
ENCODING 71
SWIDTH 774 0
DWIDTH 43 0
BBX 37 43 2 -1
BITMAP
0001FF8000
000FFFF000
003FFFFC00
00FFFFFE00
01FFFFFF80
03FE007FC0
07F8001FC0
07E0000FE0
0FC00007E0
1F800003F0
1F800001F0
3F000001F8
3E000001F8
3E00000000
7E00000000
7C00000000
7C00000000
7C00000000
7C00000000
7C00000000
FC000FFFF8
FC000FFFF8
FC000FFFF8
7C000FFFF8
7C000FFFF8
7C00000078
7C00000078
7C00000078
7E00000078
3E000000F8
3F000000F8
3F000000F8
1F800001F8
1F800003F8
0FC00003F8
0FE00007F8
07F8001FF8
03FE007F78
01FFFFFE78
00FFFFFC38
003FFFF038
000FFFC038
0001FE0000
ENDCHAR
STARTCHAR 0048
ENCODING 72
SWIDTH 720 0
DWIDTH 40 0
BBX 31 41 5 0
BITMAP
F800003E
F800003E
F800003E
F800003E
F800003E
F800003E
F800003E
F800003E
F800003E
F800003E
F800003E
F800003E
F800003E
F800003E
F800003E
F800003E
F800003E
F800003E
FFFFFFFE
FFFFFFFE
FFFFFFFE
FFFFFFFE
FFFFFFFE
F800003E
F800003E
F800003E
F800003E
F800003E
F800003E
F800003E
F800003E
F800003E
F800003E
F800003E
F800003E
F800003E
F800003E
F800003E
F800003E
F800003E
F800003E
ENDCHAR
STARTCHAR 0049
ENCODING 73
SWIDTH 270 0
DWIDTH 15 0
BBX 5 41 6 0
BITMAP
F8
F8
F8
F8
F8
F8
F8
F8
F8
F8
F8
F8
F8
F8
F8
F8
F8
F8
F8
F8
F8
F8
F8
F8
F8
F8
F8
F8
F8
F8
F8
F8
F8
F8
F8
F8
F8
F8
F8
F8
F8
ENDCHAR
STARTCHAR 004A
ENCODING 74
SWIDTH 504 0
DWIDTH 28 0
BBX 23 42 1 -1
BITMAP
00007E
00007E
00007E
00007E
00007E
00007E
00007E
00007E
00007E
00007E
00007E
00007E
00007E
00007E
00007E
00007E
00007E
00007E
00007E
00007E
00007E
00007E
00007E
00007E
00007E
00007E
00007E
00007E
F8007E
F8007E
F8007E
F8007E
F8007E
FC007C
FC007C
7E00FC
7F01F8
3FC7F8
3FFFF0
1FFFE0
07FF80
01FE00
ENDCHAR
STARTCHAR 004B
ENCODING 75
SWIDTH 666 0
DWIDTH 37 0
BBX 32 41 4 0
BITMAP
FC00007F
FC0000FE
FC0001FC
FC0003F8
FC0007F0
FC000FE0
FC001FC0
FC003F80
FC007F00
FC00FE00
FC00FC00
FC01F800
FC03F000
FC07E000
FC0FC000
FC1F8000
FC3F0000
FC7F0000
FCFF8000
FDFFC000
FFF7C000
FFE7E000
FFC3F000
FF81F800
FF01F800
FE00FC00
FC007E00
FC007E00
FC003F00
FC001F80
FC001F80
FC000FC0
FC0007E0
FC0007E0
FC0003F0
FC0001F8
FC0001F8
FC0000FC
FC00007E
FC00007F
FC00003F
ENDCHAR
STARTCHAR 004C
ENCODING 76
SWIDTH 558 0
DWIDTH 31 0
BBX 26 41 4 0
BITMAP
FC000000
FC000000
FC000000
FC000000
FC000000
FC000000
FC000000
FC000000
FC000000
FC000000
FC000000
FC000000
FC000000
FC000000
FC000000
FC000000
FC000000
FC000000
FC000000
FC000000
FC000000
FC000000
FC000000
FC000000
FC000000
FC000000
FC000000
FC000000
FC000000
FC000000
FC000000
FC000000
FC000000
FC000000
FC000000
FC000000
FFFFFFC0
FFFFFFC0
FFFFFFC0
FFFFFFC0
FFFFFFC0
ENDCHAR
STARTCHAR 004D
ENCODING 77
SWIDTH 828 0
DWIDTH 46 0
BBX 38 41 4 0
BITMAP
FF000001FC
FF000001FC
FF000003FC
FF800003FC
FF800003FC
FF800007FC
FFC00007FC
FFC00007FC
FBC0000FFC
FBE0000F7C
FBE0000F7C
F9E0001F7C
F9F0001E7C
F9F0001E7C
F8F0003E7C
F8F8003C7C
F8F8003C7C
F878007C7C
F87C00787C
F87C00787C
F83C00F87C
F83E00F07C
F83E00F07C
F81E01F07C
F81F01E07C
F81F01E07C
F80F03E07C
F80F83C07C
F80F83C07C
F80787C07C
F807C7807C
F807C7807C
F803CF807C
F803EF007C
F803EF007C
F801FF007C
F801FE007C
F801FE007C
F800FE007C
F800FE007C
F800FC007C
ENDCHAR
STARTCHAR 004E
ENCODING 78
SWIDTH 720 0
DWIDTH 40 0
BBX 32 41 4 0
BITMAP
FC00001F
FE00001F
FE00001F
FF00001F
FF80001F
FF80001F
FFC0001F
FFE0001F
FBE0001F
FBF0001F
F9F0001F
F9F8001F
F8FC001F
F87C001F
F87E001F
F83F001F
F81F001F
F81F801F
F80FC01F
F80FC01F
F807E01F
F803E01F
F803F01F
F801F81F
F800F81F
F800FC1F
F8007E1F
F8003E1F
F8003F1F
F8001F1F
F8001F9F
F8000FDF
F80007DF
F80007FF
F80003FF
F80001FF
F80001FF
F80000FF
F80000FF
F800007F
F800003F
ENDCHAR
STARTCHAR 004F
ENCODING 79
SWIDTH 774 0
DWIDTH 43 0
BBX 39 43 2 -1
BITMAP
0001FF0000
000FFFF000
003FFFFC00
00FFFFFE00
01FFFFFF80
03FC007FC0
07F0001FC0
0FE0000FE0
0FC00007F0
1F800003F0
1F000001F8
3F000000F8
3E000000FC
7E0000007C
7C0000007C
7C0000007E
7C0000003E
FC0000003E
F80000003E
F80000003E
F80000003E
F80000003E
F80000003E
F80000003E
F80000003E
FC0000003E
7C0000003E
7C0000007E
7C0000007C
7E0000007C
3E000000FC
3F000000F8
3F000001F8
1F800003F0
0FC00007F0
0FE0000FE0
07F0001FC0
03FE007F80
01FFFFFF00
00FFFFFE00
003FFFFC00
000FFFF000
0001FF0000
ENDCHAR
STARTCHAR 0050
ENCODING 80
SWIDTH 666 0
DWIDTH 37 0
BBX 29 41 5 0
BITMAP
FFFFF800
FFFFFF00
FFFFFF80
FFFFFFC0
FFFFFFE0
F8000FF0
F80003F0
F80001F8
F80001F8
F80000F8
F80000F8
F80000F8
F80000F8
F80000F8
F80001F8
F80001F8
F80003F8
F80007F0
F8001FF0
FFFFFFE0
FFFFFFC0
FFFFFF80
FFFFFE00
FFFFE000
F8000000
F8000000
F8000000
F8000000
F8000000
F8000000
F8000000
F8000000
F8000000
F8000000
F8000000
F8000000
F8000000
F8000000
F8000000
F8000000
F8000000
ENDCHAR
STARTCHAR 0051
ENCODING 81
SWIDTH 774 0
DWIDTH 43 0
BBX 39 45 2 -3
BITMAP
0001FF0000
000FFFF000
003FFFFC00
00FFFFFE00
01FFFFFF00
03FC007FC0
07F0001FC0
0FE0000FE0
0FC00007F0
1F800003F0
3F000001F8
3F000000F8
3E000000FC
7E0000007C
7C0000007C
7C0000007E
7C0000003E
FC0000003E
F80000003E
F80000003E
F80000003E
F80000003E
F80000003E
F80000003E
F80000003E
FC0000003E
7C0000003E
7C0000007E
7C0000007C
7E0000007C
3E000080FC
3F0000C0F8
3F0001E1F8
1F8003FBF0
0FC001FFF0
0FE0007FE0
07F0003FC0
03FE007FC0
01FFFFFFE0
00FFFFFFF0
003FFFFDF8
000FFFF0FC
0001FF007C
0000000038
0000000018
ENDCHAR
STARTCHAR 0052
ENCODING 82
SWIDTH 720 0
DWIDTH 40 0
BBX 33 41 5 0
BITMAP
FFFFFE0000
FFFFFFC000
FFFFFFF000
FFFFFFF800
FFFFFFF800
F80001FC00
F80000FC00
F800007E00
F800007E00
F800003E00
F800003E00
F800003E00
F800003E00
F800003E00
F800007E00
F800007C00
F800007C00
F80000F800
F80003F000
FFFFFFE000
FFFFFFC000
FFFFFFC000
FFFFFFE000
FFFFFFF800
F80001F800
F80000FC00
F800007C00
F800007C00
F800007C00
F800007C00
F800007C00
F800007C00
F800007C00
F800007C00
F800007C00
F800007E00
F800007E00
F800003E00
F800003E00
F800003F00
F800003F80
ENDCHAR
STARTCHAR 0053
ENCODING 83
SWIDTH 666 0
DWIDTH 37 0
BBX 32 43 3 -1
BITMAP
001FF000
00FFFE00
03FFFF80
0FFFFFC0
0FFC7FE0
1FC007F0
3F0001F8
3E0000F8
7E0000FC
7C00007C
7C00007C
7C00007C
7C00007C
7E000000
7E000000
7F000000
3FC00000
3FF80000
1FFF8000
0FFFF000
03FFFF00
00FFFFC0
000FFFF0
0000FFF8
00001FFC
000003FC
000000FE
0000007E
0000003E
F800003E
F800003F
F800003E
F800003E
FC00003E
7C00007E
7E00007C
3F0000FC
3FC003F8
1FFFFFF0
0FFFFFE0
03FFFFC0
01FFFF00
001FF800
ENDCHAR
STARTCHAR 0054
ENCODING 84
SWIDTH 612 0
DWIDTH 34 0
BBX 32 41 1 0
BITMAP
FFFFFFFF
FFFFFFFF
FFFFFFFF
FFFFFFFF
FFFFFFFF
0007E000
0007E000
0007E000
0007E000
0007E000
0007E000
0007E000
0007E000
0007E000
0007E000
0007E000
0007E000
0007E000
0007E000
0007E000
0007E000
0007E000
0007E000
0007E000
0007E000
0007E000
0007E000
0007E000
0007E000
0007E000
0007E000
0007E000
0007E000
0007E000
0007E000
0007E000
0007E000
0007E000
0007E000
0007E000
0007E000
ENDCHAR
STARTCHAR 0055
ENCODING 85
SWIDTH 720 0
DWIDTH 40 0
BBX 31 42 5 -1
BITMAP
F800003E
F800003E
F800003E
F800003E
F800003E
F800003E
F800003E
F800003E
F800003E
F800003E
F800003E
F800003E
F800003E
F800003E
F800003E
F800003E
F800003E
F800003E
F800003E
F800003E
F800003E
F800003E
F800003E
F800003E
F800003E
F800003E
F800003E
F800003E
F800003E
F800003E
F800003E
F800007E
FC00007C
7C0000FC
7E0000FC
7F0003F8
3FC007F0
1FFFFFF0
0FFFFFC0
07FFFF80
01FFFE00
003FF000
ENDCHAR
STARTCHAR 0056
ENCODING 86
SWIDTH 666 0
DWIDTH 37 0
BBX 34 41 2 0
BITMAP
F800000FC0
FC00000F80
7C00000F80
7C00001F80
7E00001F00
3E00001F00
3E00003F00
3F00003E00
1F00003E00
1F00007E00
1F80007C00
0F80007C00
0FC000FC00
0FC000F800
07C000F800
07E001F800
07E001F000
03E001F000
03F003E000
01F003E000
01F003E000
01F807C000
00F807C000
00F807C000
00FC0F8000
007C0F8000
007C0F8000
007E1F0000
003E1F0000
003E1F0000
003F3E0000
001F3E0000
001F3E0000
000FBC0000
000FFC0000
000FFC0000
0007F80000
0007F80000
0007F80000
0003F00000
0003F00000
ENDCHAR
STARTCHAR 0057
ENCODING 87
SWIDTH 936 0
DWIDTH 52 0
BBX 50 41 1 0
BITMAP
FC0003F00007C0
7C0003F8000FC0
7E0003F8000FC0
7E0003F8000FC0
7E0007F8000F80
3E0007FC000F80
3E0007FC001F80
3F0007FC001F80
3F000FBE001F00
1F000FBE001F00
1F000F3E003F00
1F801F3E003F00
1F801F1F003E00
0F801F1F003E00
0F801E1F003E00
0FC03E0F007E00
0FC03E0F807C00
07C03E0F807C00
07C03C0F807C00
07C07C07C0FC00
07E07C07C0F800
03E07C07C0F800
03E07803C0F800
03E0F803E0F800
03F0F803E1F000
01F0F003E1F000
01F1F001F1F000
01F1F001F1F000
01F9F001F3E000
00F9E001F3E000
00FBE000FBE000
00FBE000FBE000
00FBE000FBC000
007FC0007FC000
007FC0007FC000
007FC0007FC000
007F80007F8000
003F80003F8000
003F80003F8000
003F80003F8000
003F00003F0000
ENDCHAR
STARTCHAR 0058
ENCODING 88
SWIDTH 666 0
DWIDTH 37 0
BBX 34 41 2 0
BITMAP
FE00001F80
7E00003F00
3F00003F00
3F80007E00
1F8000FC00
0FC000FC00
0FE001F800
07E003F000
03F003F000
03F807E000
01F80FC000
00FC0FC000
007C1F8000
007E3F0000
003F3E0000
001F7E0000
001FFC0000
000FF80000
0007F80000
0007F00000
0007F00000
0007F80000
000FF80000
001FFC0000
003F7E0000
003F3E0000
007E3F0000
00FC1F8000
00FC0FC000
01F80FC000
03F007E000
03F007F000
07E003F000
0FC001F800
0FC001FC00
1F8000FC00
3F00007E00
3F00007F00
7E00003F00
FC00001F80
FC00001FC0
ENDCHAR
STARTCHAR 0059
ENCODING 89
SWIDTH 666 0
DWIDTH 37 0
BBX 35 41 1 0
BITMAP
FC000007E0
7E000007E0
7F00000FC0
3F00000FC0
1F80001F80
1F80003F00
0FC0003F00
0FE0007E00
07E0007E00
03F000FC00
03F001F800
01F801F800
00FC03F000
00FC03E000
007E07E000
007E07C000
003F0FC000
001F9F8000
001F9F0000
000FFF0000
0007FE0000
0007FE0000
0003FC0000
0003F80000
0001F80000
0001F80000
0001F80000
0001F80000
0001F80000
0001F80000
0001F80000
0001F80000
0001F80000
0001F80000
0001F80000
0001F80000
0001F80000
0001F80000
0001F80000
0001F80000
0001F80000
ENDCHAR
STARTCHAR 005A
ENCODING 90
SWIDTH 612 0
DWIDTH 34 0
BBX 30 41 2 0
BITMAP
7FFFFFFC
7FFFFFFC
7FFFFFFC
7FFFFFFC
7FFFFFFC
000001FC
000003F8
000003F0
000007E0
00000FE0
00001FC0
00001F80
00003F00
00007F00
0000FE00
0000FC00
0001F800
0003F000
0007F000
000FE000
000FC000
001F8000
003F8000
007F0000
007E0000
00FC0000
01FC0000
03F80000
03F00000
07E00000
0FE00000
1FC00000
1F800000
3F000000
7F000000
FE000000
FFFFFFFC
FFFFFFFC
FFFFFFFC
FFFFFFFC
FFFFFFFC
ENDCHAR
STARTCHAR 005B
ENCODING 91
SWIDTH 270 0
DWIDTH 15 0
BBX 10 53 4 -12
BITMAP
FFC0
FFC0
FFC0
FFC0
F000
F000
F000
F000
F000
F000
F000
F000
F000
F000
F000
F000
F000
F000
F000
F000
F000
F000
F000
F000
F000
F000
F000
F000
F000
F000
F000
F000
F000
F000
F000
F000
F000
F000
F000
F000
F000
F000
F000
F000
F000
F000
F000
F000
F000
FFC0
FFC0
FFC0
FFC0
ENDCHAR
STARTCHAR 005C
ENCODING 92
SWIDTH 270 0
DWIDTH 15 0
BBX 16 42 0 -1
BITMAP
E000
E000
E000
7000
7000
7000
3800
3800
3800
1C00
1C00
1C00
1E00
0E00
0E00
0E00
0700
0700
0700
0380
0380
0380
01C0
01C0
01C0
00E0
00E0
00E0
00F0
0070
0070
0070
0038
0038
0038
001C
001C
001C
000E
000E
000E
0007
ENDCHAR
STARTCHAR 005D
ENCODING 93
SWIDTH 270 0
DWIDTH 15 0
BBX 11 53 1 -12
BITMAP
FFE0
FFE0
FFE0
FFE0
03E0
03E0
03E0
03E0
03E0
03E0
03E0
03E0
03E0
03E0
03E0
03E0
03E0
03E0
03E0
03E0
03E0
03E0
03E0
03E0
03E0
03E0
03E0
03E0
03E0
03E0
03E0
03E0
03E0
03E0
03E0
03E0
03E0
03E0
03E0
03E0
03E0
03E0
03E0
03E0
03E0
03E0
03E0
03E0
03E0
FFE0
FFE0
FFE0
FFE0
ENDCHAR
STARTCHAR 005E
ENCODING 94
SWIDTH 468 0
DWIDTH 26 0
BBX 21 21 3 18
BITMAP
00F000
01F800
01F800
03FC00
03FC00
039C00
079E00
079E00
0F0F00
0F0F00
0E0700
1E0780
1E0780
3C03C0
3C03C0
3801C0
7801E0
7801E0
F000F0
F000F0
E00078
ENDCHAR
STARTCHAR 005F
ENCODING 95
SWIDTH 558 0
DWIDTH 31 0
BBX 33 3 -1 -10
BITMAP
FFFFFFFF80
FFFFFFFF80
FFFFFFFF80
ENDCHAR
STARTCHAR 0060
ENCODING 96
SWIDTH 342 0
DWIDTH 19 0
BBX 10 8 2 34
BITMAP
FC00
7C00
3E00
1F00
0F00
0780
03C0
01C0
ENDCHAR
STARTCHAR 0061
ENCODING 97
SWIDTH 558 0
DWIDTH 31 0
BBX 28 31 2 -1
BITMAP
007FC000
03FFF800
07FFFC00
0FFFFE00
1FE1FF00
3F003F00
3E001F00
3E001F00
3C000F00
00000F00
00000F00
00001F00
00007F00
001FFF00
03FFFF00
0FFFEF00
1FFF0F00
3FC00F00
7E000F00
7C000F00
78000F00
F8000F00
F8001F00
F8001F00
7C003F00
7C00FF00
7F03FF80
3FFFEFF0
1FFFCFF0
0FFF07F0
03F803F0
ENDCHAR
STARTCHAR 0062
ENCODING 98
SWIDTH 558 0
DWIDTH 31 0
BBX 26 42 3 -1
BITMAP
F8000000
F8000000
F8000000
F8000000
F8000000
F8000000
F8000000
F8000000
F8000000
F8000000
F8000000
F83F8000
F8FFF000
F9FFF800
FBFFFC00
FFE3FE00
FF807F00
FF003F00
FE001F80
FC000F80
FC000F80
F8000FC0
F80007C0
F80007C0
F80007C0
F80007C0
F80007C0
F80007C0
F80007C0
F80007C0
F80007C0
F8000780
FC000F80
FC000F80
FE001F00
FF003F00
FF807E00
FFE3FE00
F7FFFC00
F3FFF800
F0FFE000
003F8000
ENDCHAR
STARTCHAR 0063
ENCODING 99
SWIDTH 504 0
DWIDTH 28 0
BBX 24 31 2 -1
BITMAP
007F00
01FFE0
07FFF0
0FFFFC
1FE3FC
3F007E
3E003E
7E001F
7C001F
7C001F
F8001F
F80000
F80000
F80000
F80000
F80000
F80000
F80000
F80000
F80000
F8000F
FC001F
7C001F
7E001F
3E003E
3F807E
1FE3FC
0FFFF8
07FFF0
03FFE0
007F00
ENDCHAR
STARTCHAR 0064
ENCODING 100
SWIDTH 558 0
DWIDTH 31 0
BBX 27 42 1 -1
BITMAP
000003E0
000003E0
000003E0
000003E0
000003E0
000003E0
000003E0
000003E0
000003E0
000003E0
000003E0
003F83E0
01FFE3E0
03FFF3E0
07FFFBE0
0FF1FFE0
1FC03FE0
3F001FE0
3F000FE0
3E000FE0
7C0007E0
7C0007E0
7C0007E0
7C0003E0
780003E0
F80003E0
F80003E0
F80003E0
780003E0
7C0003E0
7C0003E0
7C0007E0
7C0007E0
3E000FE0
3F000FE0
3F001FE0
1FC03FE0
0FF1FFE0
0FFFFBE0
03FFF3E0
01FFE3E0
007F8000
ENDCHAR
STARTCHAR 0065
ENCODING 101
SWIDTH 558 0
DWIDTH 31 0
BBX 27 31 2 -1
BITMAP
003F8000
01FFF000
03FFFC00
07FFFE00
0FF1FF00
1F803F00
3F001F80
3E000F80
7C000FC0
7C0007C0
7C0007C0
780007C0
F80007C0
FFFFFFC0
FFFFFFE0
FFFFFFE0
FFFFFFE0
F8000000
F8000000
78000000
7C000000
7C0007C0
7C0007C0
3E000F80
3F001F80
1F803F00
1FF1FE00
0FFFFE00
07FFF800
01FFF000
007F8000
ENDCHAR
STARTCHAR 0066
ENCODING 102
SWIDTH 270 0
DWIDTH 15 0
BBX 13 41 1 0
BITMAP
00F8
03F8
07F8
07F8
0FC0
0F80
0F80
0F80
0F80
0F80
0F80
0F80
FFF8
FFF8
FFF8
FFF8
0F80
0F80
0F80
0F80
0F80
0F80
0F80
0F80
0F80
0F80
0F80
0F80
0F80
0F80
0F80
0F80
0F80
0F80
0F80
0F80
0F80
0F80
0F80
0F80
0F80
ENDCHAR
STARTCHAR 0067
ENCODING 103
SWIDTH 558 0
DWIDTH 31 0
BBX 25 42 2 -12
BITMAP
007E0000
01FF8F80
07FFCF80
0FFFEF80
1FE3FF80
1F00FF80
3E007F80
3E003F80
7C001F80
7C001F80
78001F80
F8000F80
F8000F80
F8000F80
F8000F80
F8000F80
F8000F80
F8000F80
F8000F80
F8000F80
F8001F80
7C001F80
7C001F80
7E003F80
3E003F80
3F00FF80
1FE3FF80
0FFFEF80
07FFCF80
03FF8F80
007E0F00
00000F00
00000F00
7C001F00
7C001F00
7C003E00
3E007E00
3F80FC00
1FFFF800
0FFFF000
03FFE000
007F0000
ENDCHAR
STARTCHAR 0068
ENCODING 104
SWIDTH 558 0
DWIDTH 31 0
BBX 23 41 4 0
BITMAP
F80000
F80000
F80000
F80000
F80000
F80000
F80000
F80000
F80000
F80000
F80000
F83F80
F8FFF0
F9FFF8
FBFFFC
FFC1FC
FF007E
FE003E
FC003E
FC003E
F8003E
F8003E
F8003E
F8003E
F8003E
F8003E
F8003E
F8003E
F8003E
F8003E
F8003E
F8003E
F8003E
F8003E
F8003E
F8003E
F8003E
F8003E
F8003E
F8003E
F8003E
ENDCHAR
STARTCHAR 0069
ENCODING 105
SWIDTH 216 0
DWIDTH 12 0
BBX 4 41 4 0
BITMAP
F0
F0
F0
F0
F0
F0
00
00
00
00
00
00
F0
F0
F0
F0
F0
F0
F0
F0
F0
F0
F0
F0
F0
F0
F0
F0
F0
F0
F0
F0
F0
F0
F0
F0
F0
F0
F0
F0
F0
ENDCHAR
STARTCHAR 006A
ENCODING 106
SWIDTH 216 0
DWIDTH 12 0
BBX 10 53 -1 -12
BITMAP
07C0
07C0
07C0
07C0
07C0
07C0
0000
0000
0000
0000
0000
0000
07C0
07C0
07C0
07C0
07C0
07C0
07C0
07C0
07C0
07C0
07C0
07C0
07C0
07C0
07C0
07C0
07C0
07C0
07C0
07C0
07C0
07C0
07C0
07C0
07C0
07C0
07C0
07C0
07C0
07C0
07C0
07C0
07C0
07C0
07C0
0780
0F80
FF80
FF80
FF00
F800
ENDCHAR
STARTCHAR 006B
ENCODING 107
SWIDTH 504 0
DWIDTH 28 0
BBX 25 41 3 0
BITMAP
F8000000
F8000000
F8000000
F8000000
F8000000
F8000000
F8000000
F8000000
F8000000
F8000000
F8000000
F8000000
F8007E00
F800FC00
F801F800
F803F000
F807E000
F80FC000
F81F8000
F83F0000
F87E0000
F8FC0000
F9F80000
FBFC0000
FFFE0000
FFFE0000
FF3F0000
FE1F0000
FC1F8000
F80FC000
F807C000
F807E000
F803F000
F803F000
F801F800
F800F800
F800FC00
F8007E00
F8003E00
F8003F00
F8001F80
ENDCHAR
STARTCHAR 006C
ENCODING 108
SWIDTH 216 0
DWIDTH 12 0
BBX 4 41 4 0
BITMAP
F0
F0
F0
F0
F0
F0
F0
F0
F0
F0
F0
F0
F0
F0
F0
F0
F0
F0
F0
F0
F0
F0
F0
F0
F0
F0
F0
F0
F0
F0
F0
F0
F0
F0
F0
F0
F0
F0
F0
F0
F0
ENDCHAR
STARTCHAR 006D
ENCODING 109
SWIDTH 828 0
DWIDTH 46 0
BBX 38 30 4 0
BITMAP
003F803F80
F0FFE0FFE0
F1FFF1FFF8
F3FFF3FFF8
F783FFC1FC
FE01FF00FC
FC00FE007C
FC00FE007C
F8007C003C
F8007C003C
F8007C003C
F80078003C
F80078003C
F80078003C
F80078003C
F80078003C
F80078003C
F80078003C
F80078003C
F80078003C
F80078003C
F80078003C
F80078003C
F80078003C
F80078003C
F80078003C
F80078003C
F80078003C
F80078003C
F80078003C
ENDCHAR
STARTCHAR 006E
ENCODING 110
SWIDTH 558 0
DWIDTH 31 0
BBX 23 30 4 0
BITMAP
001F80
F0FFF0
F1FFF8
F3FFFC
F7C1FC
FF007E
FE003E
FC003E
FC003E
F8003E
F8003E
F8003E
F8003E
F8003E
F8003E
F8003E
F8003E
F8003E
F8003E
F8003E
F8003E
F8003E
F8003E
F8003E
F8003E
F8003E
F8003E
F8003E
F8003E
F8003E
ENDCHAR
STARTCHAR 006F
ENCODING 111
SWIDTH 558 0
DWIDTH 31 0
BBX 26 31 2 -1
BITMAP
007F8000
01FFF000
07FFF800
0FFFFC00
1FE1FE00
1F807F00
3F001F80
7E001F80
7C000F80
7C000FC0
7C0007C0
F80007C0
F80007C0
F80007C0
F80007C0
F80007C0
F80007C0
F80007C0
F80007C0
F80007C0
7C0007C0
7C0007C0
7C000F80
7E001F80
3F001F00
3F803F00
1FE1FE00
0FFFFC00
07FFF800
01FFF000
007F8000
ENDCHAR
STARTCHAR 0070
ENCODING 112
SWIDTH 558 0
DWIDTH 31 0
BBX 26 42 3 -12
BITMAP
001F8000
F0FFF000
F1FFF800
F3FFFC00
F7E3FE00
FF807F00
FF003F00
FE001F80
FC000F80
FC000F80
F8000FC0
F80007C0
F80007C0
F80007C0
F80007C0
F80007C0
F80007C0
F80007C0
F80007C0
F80007C0
F80007C0
FC000F80
FC000F80
FE001F80
FF003F00
FF807F00
FFE3FE00
FFFFFC00
FBFFF800
F8FFE000
F83F8000
F8000000
F8000000
F8000000
F8000000
F8000000
F8000000
F8000000
F8000000
F8000000
F8000000
F8000000
ENDCHAR
STARTCHAR 0071
ENCODING 113
SWIDTH 558 0
DWIDTH 31 0
BBX 27 42 1 -12
BITMAP
003F8000
01FFE3E0
03FFF3E0
07FFFBE0
0FF1FFE0
1FC03FE0
1F001FE0
3F000FE0
3E000FE0
7C0007E0
7C0007E0
7C0007E0
7C0003E0
780003E0
780003E0
F80003E0
F80003E0
780003E0
7C0003E0
7C0003E0
7C0007E0
7C0007E0
7E000FE0
3F000FE0
3F001FE0
1FC03FE0
1FF1FFE0
0FFFFBE0
07FFF3E0
01FFE3E0
007F03E0
000003E0
000003E0
000003E0
000003E0
000003E0
000003E0
000003E0
000003E0
000003E0
000003E0
000003E0
ENDCHAR
STARTCHAR 0072
ENCODING 114
SWIDTH 342 0
DWIDTH 19 0
BBX 14 30 4 0
BITMAP
003C
F0FC
F1FC
F3FC
F7FC
F7C0
FF00
FE00
FC00
F800
F800
F800
F800
F800
F800
F800
F800
F800
F800
F800
F800
F800
F800
F800
F800
F800
F800
F800
F800
F800
ENDCHAR
STARTCHAR 0073
ENCODING 115
SWIDTH 504 0
DWIDTH 28 0
BBX 24 31 2 -1
BITMAP
00FF00
07FFC0
0FFFF0
1FFFF8
3FC7F8
7E00FC
7C007C
7C007C
78007C
7C0000
7C0000
7E0000
7FC000
3FFC00
1FFFC0
07FFF0
01FFF8
001FFC
0001FE
00007E
00003E
F8001F
F8001F
F8003E
FC003E
7E007E
7FC3FC
3FFFF8
1FFFF0
0FFFE0
01FF00
ENDCHAR
STARTCHAR 0074
ENCODING 116
SWIDTH 270 0
DWIDTH 15 0
BBX 13 38 1 -1
BITMAP
0F00
0F00
0F00
0F00
0F00
0F00
0F00
0F00
FFF8
FFF8
FFF8
FFF8
0F00
0F00
0F00
0F00
0F00
0F00
0F00
0F00
0F00
0F00
0F00
0F00
0F00
0F00
0F00
0F00
0F00
0F00
0F00
0F00
0F00
0F80
0FF8
0FF8
07F8
03F8
ENDCHAR
STARTCHAR 0075
ENCODING 117
SWIDTH 558 0
DWIDTH 31 0
BBX 23 30 4 -1
BITMAP
F0003E
F0003E
F0003E
F0003E
F0003E
F0003E
F0003E
F0003E
F0003E
F0003E
F0003E
F0003E
F0003E
F0003E
F0003E
F0003E
F0003E
F0003E
F0003E
F0003E
F0003E
F0007E
F8007E
F800FE
FC01FE
FF07DE
7FFF9E
3FFF1E
1FFE1E
07F800
ENDCHAR
STARTCHAR 0076
ENCODING 118
SWIDTH 504 0
DWIDTH 28 0
BBX 26 29 1 0
BITMAP
F80007C0
F8000F80
FC000F80
7C000F80
7C001F00
7E001F00
3E003E00
3E003E00
1F003E00
1F007C00
1F007C00
0F807C00
0F80F800
0F80F800
07C0F000
07C1F000
07C1F000
03E1E000
03E3E000
03E3C000
01F3C000
01F7C000
01F78000
00FF8000
00FF8000
007F0000
007F0000
007E0000
003E0000
ENDCHAR
STARTCHAR 0077
ENCODING 119
SWIDTH 720 0
DWIDTH 40 0
BBX 39 29 0 0
BITMAP
FC007E003E
7C007E003E
7C00FE007E
7C00FF007C
3E00FF007C
3E00FF007C
3E01FF00F8
3E01EF80F8
1F01EF80F8
1F01EF80F8
1F03E781F0
0F03C7C1F0
0F83C7C1F0
0F83C7C1E0
0787C3C3E0
07C783E3E0
07C783E3C0
07C781E3C0
03CF81E7C0
03EF01F7C0
03EF01F780
01EF00F780
01FF00FF80
01FE00FF00
01FE00FF00
00FE007F00
00FE007E00
00FC007E00
007C007E00
ENDCHAR
STARTCHAR 0078
ENCODING 120
SWIDTH 504 0
DWIDTH 28 0
BBX 25 29 1 0
BITMAP
7C001F80
3E001F00
3E003E00
1F007E00
0F807C00
0F80F800
07C1F000
03E1F000
03E3E000
01F7C000
00FFC000
00FF8000
007F0000
003F0000
003F0000
007F0000
007F8000
00FFC000
01F7C000
01F3E000
03E3F000
07C1F000
0FC0F800
0F80FC00
1F007C00
3F003E00
3E003F00
7C001F00
FC000F80
ENDCHAR
STARTCHAR 0079
ENCODING 121
SWIDTH 504 0
DWIDTH 28 0
BBX 25 41 1 -12
BITMAP
F8000F80
7C000F80
7C000F80
7C001F00
3E001F00
3E001F00
3E003E00
1F003E00
1F003C00
1F007C00
0F807C00
0F80F800
0F80F800
07C0F800
07C1F000
07C1F000
03E1E000
03E3E000
03E3E000
01F3C000
01F7C000
01F7C000
00F78000
00FF8000
00FF0000
007F0000
007F0000
007E0000
003E0000
003E0000
007C0000
007C0000
007C0000
00F80000
00F80000
01F00000
3FF00000
3FE00000
3FE00000
3FC00000
3F000000
ENDCHAR
STARTCHAR 007A
ENCODING 122
SWIDTH 504 0
DWIDTH 28 0
BBX 23 29 2 0
BITMAP
7FFFFE
7FFFFE
7FFFFE
7FFFFE
00007C
0000F8
0001F8
0003F0
0007E0
0007C0
000F80
001F00
003F00
007E00
00FC00
00F800
01F000
03F000
07E000
0FC000
1F8000
1F0000
3E0000
7E0000
FC0000
FFFFFE
FFFFFE
FFFFFE
FFFFFE
ENDCHAR
STARTCHAR 007B
ENCODING 123
SWIDTH 342 0
DWIDTH 19 0
BBX 13 52 2 -11
BITMAP
00F8
01F8
03F8
07F8
07C0
0780
0780
0780
0780
0780
0780
0780
0780
0780
0780
0780
0780
0780
0780
0780
0F80
0F80
0F00
3F00
FE00
FC00
F800
FE00
3E00
1F00
0F00
0F80
0780
0780
0780
0780
0780
0780
0780
0780
0780
0780
0780
0780
0780
0780
0780
0780
07E0
03F8
03F8
00F8
ENDCHAR
STARTCHAR 007C
ENCODING 124
SWIDTH 252 0
DWIDTH 14 0
BBX 3 52 6 -11
BITMAP
E0
E0
E0
E0
E0
E0
E0
E0
E0
E0
E0
E0
E0
E0
E0
E0
E0
E0
E0
E0
E0
E0
E0
E0
E0
E0
E0
E0
E0
E0
E0
E0
E0
E0
E0
E0
E0
E0
E0
E0
E0
E0
E0
E0
E0
E0
E0
E0
E0
E0
E0
E0
ENDCHAR
STARTCHAR 007D
ENCODING 125
SWIDTH 342 0
DWIDTH 19 0
BBX 13 52 2 -11
BITMAP
F800
FC00
FE00
FF00
1F00
0F00
0F00
0F00
0F00
0F00
0F00
0F00
0F00
0F00
0F00
0F00
0F00
0F00
0F00
0F80
0F80
0780
07C0
07E0
03F8
01F8
00F8
01F8
03E0
07C0
0780
0F80
0F80
0F00
0F00
0F00
0F00
0F00
0F00
0F00
0F00
0F00
0F00
0F00
0F00
0F00
0F00
0F00
3F00
FE00
FE00
F800
ENDCHAR
STARTCHAR 007E
ENCODING 126
SWIDTH 576 0
DWIDTH 32 0
BBX 24 9 4 15
BITMAP
0F0000
3FC000
3FF007
7FFC07
707F07
E03FFF
E00FFE
E003FC
0000F8
ENDCHAR
STARTCHAR 00A0
ENCODING 160
SWIDTH 270 0
DWIDTH 15 0
BBX 0 0 0 0
BITMAP
ENDCHAR
STARTCHAR 00A1
ENCODING 161
SWIDTH 342 0
DWIDTH 19 0
BBX 4 41 7 -12
BITMAP
F0
F0
F0
F0
F0
F0
00
00
00
60
60
60
60
70
F0
F0
F0
F0
F0
F0
F0
F0
F0
F0
F0
F0
F0
F0
F0
F0
F0
F0
F0
F0
F0
F0
F0
F0
F0
F0
F0
ENDCHAR
STARTCHAR 00A2
ENCODING 162
SWIDTH 558 0
DWIDTH 31 0
BBX 25 42 3 -7
BITMAP
000C0000
000C0000
000C0000
000C0000
000C0000
003F8000
01FFF000
03FFF800
0FFFFC00
0FFDFE00
1F8C3F00
3F0C1F00
3E0C1F80
7C0C0F80
7C0C0F80
780C0F80
F80C0000
F80C0000
F80C0000
F80C0000
F80C0000
F80C0000
F80C0000
F80C0000
F80C0000
F80C0780
7C0C0F80
7C0C0F80
7E0C0F80
3E0C1F00
3F8C3F00
1FCC7E00
0FFFFE00
07FFFC00
03FFF000
007FC000
000C0000
000C0000
000C0000
000C0000
000C0000
000C0000
ENDCHAR
STARTCHAR 00A3
ENCODING 163
SWIDTH 558 0
DWIDTH 31 0
BBX 28 42 1 -1
BITMAP
001FE000
007FFC00
01FFFE00
03FFFF00
07F87F80
0FC01FC0
1F800FC0
1F0007E0
1F0003E0
3E0003E0
3E0003E0
3E0003E0
3E0001E0
3E000000
3F000000
1F000000
1F800000
0F800000
0FC00000
07C00000
FFFFE000
FFFFE000
FFFFE000
01F00000
01F00000
00F80000
00F80000
00F80000
00F00000
00F00000
01F00000
01E00000
03C00000
07C00000
0F800000
1F3F0020
3FFFE0E0
7FFFFFF0
3FFFFFF0
3F0FFFF0
1801FFE0
00003F80
ENDCHAR
STARTCHAR 00A4
ENCODING 164
SWIDTH 558 0
DWIDTH 31 0
BBX 23 22 4 8
BITMAP
300018
78FE3C
FFFFFE
7FFFFE
3FFFFC
1FCFF8
3F01F0
3E00F8
7C0078
7C0078
78007C
78007C
7C0078
7C0078
3C00F8
3E01F8
3F83F0
3FFFF8
7FFFFC
FFFFFE
79FE3C
300018
ENDCHAR
STARTCHAR 00A5
ENCODING 165
SWIDTH 558 0
DWIDTH 31 0
BBX 29 40 1 0
BITMAP
F0000078
F80000F8
7C0001F0
7C0001F0
3E0003E0
1E0003C0
1F0007C0
0F000780
0F800F80
07C00F00
07C01F00
03E03E00
01E03C00
01F07C00
00F07800
00F8F800
007CF000
007DF000
003FE000
001FC000
1FFFFFE0
1FFFFFE0
1FFFFFE0
000F8000
000F8000
000F8000
000F8000
1FFFFFE0
1FFFFFE0
1FFFFFE0
000F8000
000F8000
000F8000
000F8000
000F8000
000F8000
000F8000
000F8000
000F8000
000F8000
ENDCHAR
STARTCHAR 00A6
ENCODING 166
SWIDTH 252 0
DWIDTH 14 0
BBX 3 52 6 -11
BITMAP
E0
E0
E0
E0
E0
E0
E0
E0
E0
E0
E0
E0
E0
E0
E0
E0
E0
E0
E0
E0
E0
E0
00
00
00
00
00
00
00
00
E0
E0
E0
E0
E0
E0
E0
E0
E0
E0
E0
E0
E0
E0
E0
E0
E0
E0
E0
E0
E0
E0
ENDCHAR
STARTCHAR 00A7
ENCODING 167
SWIDTH 558 0
DWIDTH 31 0
BBX 26 53 2 -12
BITMAP
001FC000
007FF000
01FFF800
03FFFC00
07F9FC00
07C07E00
0FC03E00
0F801F00
0F801F00
0F801F00
0F801F00
0F801F00
0FC00000
07E00000
07F80000
03FE0000
07FF0000
1F7FC000
3E1FE000
3C0FF800
7807FC00
7801FE00
7800FF00
F8003F80
F8001F80
78000FC0
7C0007C0
7E0007C0
3F8003C0
3FC003C0
1FE003C0
0FF807C0
07FC0780
01FE0F80
00FF9F00
003FFE00
001FF800
0007F800
0003F800
0000FC00
00007C00
00007E00
3E003E00
3E003E00
3E003E00
1F003E00
1F007E00
1F80FC00
0FE3FC00
07FFF800
07FFF000
01FFC000
007F0000
ENDCHAR
STARTCHAR 00A8
ENCODING 168
SWIDTH 342 0
DWIDTH 19 0
BBX 14 6 2 34
BITMAP
F87C
F87C
F87C
F87C
F87C
F87C
ENDCHAR
STARTCHAR 00A9
ENCODING 169
SWIDTH 738 0
DWIDTH 41 0
BBX 43 43 -1 -1
BITMAP
00007FC00000
0003FFF80000
000FFFFF0000
003FFBFF8000
007F001FE000
01F80007F000
03F00001F800
07E00000FC00
078000003C00
0F003FC03E00
1F00FFF01F00
1E01FFF80F00
3C03E0FC0780
3C07C03C0780
7807803C03C0
780F001E03C0
780F001E03C0
780E000001C0
701E000001E0
F01E000001E0
F01E000001E0
F01E000001E0
F01E000001E0
F01E000001E0
701E000F01E0
781E001E01C0
780F001E03C0
780F001E03C0
7C07803C03C0
3C07C07C0780
3E03F0F80780
1E01FFF80F00
1F00FFF01F00
0F807FC01E00
07C000003C00
07E00000FC00
03F00001F800
01FC0003F000
007F001FC000
003FFBFF8000
000FFFFE0000
0003FFF80000
00007FC00000
ENDCHAR
STARTCHAR 00AA
ENCODING 170
SWIDTH 378 0
DWIDTH 21 0
BBX 17 25 2 17
BITMAP
07E000
1FF800
3FFC00
783C00
701E00
701E00
001E00
001E00
03FE00
1FFE00
7E1E00
701E00
E01E00
E01E00
E01E00
F07E00
7FFE00
7FEF80
1F8F80
000200
000000
000000
FFFF00
FFFF00
FFFF00
ENDCHAR
STARTCHAR 00AB
ENCODING 171
SWIDTH 558 0
DWIDTH 31 0
BBX 20 18 5 6
BITMAP
008010
018030
078070
0F80F0
1F83F0
3E07E0
FC0F80
F80F00
F00E00
F00E00
F80F00
7C0FC0
3F07E0
1F83F0
0F80F0
038070
018030
008010
ENDCHAR
STARTCHAR 00AC
ENCODING 172
SWIDTH 576 0
DWIDTH 32 0
BBX 28 16 2 5
BITMAP
FFFFFFF0
FFFFFFF0
FFFFFFF0
FFFFFFF0
000000F0
000000F0
000000F0
000000F0
000000F0
000000F0
000000F0
000000F0
000000F0
000000F0
000000F0
000000F0
ENDCHAR
STARTCHAR 00AD
ENCODING 173
SWIDTH 342 0
DWIDTH 19 0
BBX 13 4 3 13
BITMAP
FFF8
FFF8
FFF8
FFF8
ENDCHAR
STARTCHAR 00AE
ENCODING 174
SWIDTH 738 0
DWIDTH 41 0
BBX 43 43 -1 -1
BITMAP
00007FC00000
0003FFF80000
000FFFFE0000
003FFBFF8000
007F001FE000
01F80007F000
03F00001F800
03E00000FC00
078000003C00
0F8FFFE03E00
1F0FFFF81F00
1E0FFFFC0F00
3C0FFFFE0780
3C0F001E0780
380F001E03C0
780F001F03C0
780F001E03C0
780F001E03C0
700F001E01E0
F00F003E01E0
F00FFFFC01E0
F00FFFF801E0
F00FFFFC01E0
F00FFFFC01E0
700F003E01E0
780F001E01C0
780F001E03C0
780F001E03C0
780F001E03C0
3C0F001E0780
3C0F001E0780
1E0F001E0F00
1F0F001F1F00
0F8F000F1E00
078000003C00
07E000007C00
03F00001F800
01F80003F000
007F001FE000
003FFBFF8000
000FFFFE0000
0003FFF80000
00007FC00000
ENDCHAR
STARTCHAR 00AF
ENCODING 175
SWIDTH 342 0
DWIDTH 19 0
BBX 15 4 2 35
BITMAP
FFFE
FFFE
FFFE
FFFE
ENDCHAR
STARTCHAR 00B0
ENCODING 176
SWIDTH 396 0
DWIDTH 22 0
BBX 17 17 3 21
BITMAP
07E000
1FF800
3FFC00
7C3E00
700F00
F00700
E00700
E00700
E00780
E00700
E00700
F00F00
780F00
7C3E00
3FFC00
1FF800
07E000
ENDCHAR
STARTCHAR 00B1
ENCODING 177
SWIDTH 576 0
DWIDTH 32 0
BBX 27 35 3 -1
BITMAP
001E0000
001E0000
001E0000
001E0000
001E0000
001E0000
001E0000
001E0000
001E0000
001E0000
001E0000
FFFFFFE0
FFFFFFE0
FFFFFFE0
FFFFFFE0
001E0000
001E0000
001E0000
001E0000
001E0000
001E0000
001E0000
001E0000
001E0000
001E0000
001E0000
001E0000
00000000
00000000
00000000
00000000
FFFFFFE0
FFFFFFE0
FFFFFFE0
FFFFFFE0
ENDCHAR
STARTCHAR 00B2
ENCODING 178
SWIDTH 342 0
DWIDTH 19 0
BBX 17 23 1 16
BITMAP
07F000
1FFC00
3FFE00
7C1F00
780F00
F00700
F00780
F00780
000700
000F00
001F00
007E00
00FC00
03F000
0FC000
1F0000
3C0000
780000
F00000
F00000
FFFF00
FFFF00
FFFF00
ENDCHAR
STARTCHAR 00B3
ENCODING 179
SWIDTH 342 0
DWIDTH 19 0
BBX 17 24 0 15
BITMAP
03F000
0FFC00
1FFE00
3C1F00
780F00
780780
700780
700780
000700
001F00
01FE00
01FC00
01FF00
000F80
000780
000380
F00380
F00380
700380
780780
7C0F00
3FFF00
1FFC00
07F000
ENDCHAR
STARTCHAR 00B4
ENCODING 180
SWIDTH 342 0
DWIDTH 19 0
BBX 10 8 6 34
BITMAP
0FC0
1F80
1F00
3E00
3C00
7800
F000
E000
ENDCHAR
STARTCHAR 00B5
ENCODING 181
SWIDTH 558 0
DWIDTH 31 0
BBX 26 41 4 -12
BITMAP
F0003E00
F0003E00
F0003E00
F0003E00
F0003E00
F0003E00
F0003E00
F0003E00
F0003E00
F0003E00
F0003E00
F0003E00
F0003E00
F0003E00
F0003E00
F0003E00
F0003E00
F0003E00
F0003E00
F0003E00
F0007E00
F0007E00
F8007E00
F800FE00
FC01FE00
FF07FE00
FFFFBFC0
FFFF1FC0
FFFE1FC0
F3F80FC0
F0000000
F0000000
F0000000
F0000000
F0000000
F0000000
F0000000
F0000000
F0000000
F0000000
F0000000
ENDCHAR
STARTCHAR 00B6
ENCODING 182
SWIDTH 540 0
DWIDTH 30 0
BBX 26 50 3 -9
BITMAP
007FFFC0
03FFFFC0
07FFFFC0
0FFFFFC0
1FFE1E00
3FFE1E00
7FFE1E00
7FFE1E00
7FFE1E00
FFFE1E00
FFFE1E00
FFFE1E00
FFFE1E00
FFFE1E00
FFFE1E00
FFFE1E00
FFFE1E00
FFFE1E00
7FFE1E00
7FFE1E00
3FFE1E00
3FFE1E00
1FFE1E00
0FFE1E00
07FE1E00
01FE1E00
001E1E00
001E1E00
001E1E00
001E1E00
001E1E00
001E1E00
001E1E00
001E1E00
001E1E00
001E1E00
001E1E00
001E1E00
001E1E00
001E1E00
001E1E00
001E1E00
001E1E00
001E1E00
001E1E00
001E1E00
001E1E00
001E1E00
001E1E00
001E1E00
ENDCHAR
STARTCHAR 00B7
ENCODING 183
SWIDTH 270 0
DWIDTH 15 0
BBX 6 6 6 13
BITMAP
FC
FC
FC
FC
FC
FC
ENDCHAR
STARTCHAR 00B8
ENCODING 184
SWIDTH 342 0
DWIDTH 19 0
BBX 14 12 2 -12
BITMAP
0180
0380
0300
03F0
07F8
047C
003C
003C
607C
F8F8
7FF0
0FC0
ENDCHAR
STARTCHAR 00B9
ENCODING 185
SWIDTH 342 0
DWIDTH 19 0
BBX 9 23 3 16
BITMAP
0380
0380
0780
0F80
FF80
FF80
FF80
0780
0780
0780
0780
0780
0780
0780
0780
0780
0780
0780
0780
0780
0780
0780
0780
ENDCHAR
STARTCHAR 00BA
ENCODING 186
SWIDTH 360 0
DWIDTH 20 0
BBX 16 25 2 17
BITMAP
07E0
1FF8
3FFC
3C3E
781E
700F
700F
F007
E007
E007
F007
F007
F00F
700F
781E
3C3E
3FFC
1FF8
07E0
0000
0000
0000
7FFE
7FFE
7FFE
ENDCHAR
STARTCHAR 00BB
ENCODING 187
SWIDTH 558 0
DWIDTH 31 0
BBX 20 18 5 6
BITMAP
C01800
E01C00
F01E00
F81F00
7E0FC0
3F07E0
1F83F0
0780F0
038070
038070
0F81F0
1F83F0
3F07E0
FC1F80
F81F00
F01E00
C01C00
801000
ENDCHAR
STARTCHAR 00BC
ENCODING 188
SWIDTH 828 0
DWIDTH 46 0
BBX 44 41 1 -1
BITMAP
018000007000
01800000E000
03800001E000
07800001C000
1F8000038000
FF8000078000
FF8000070000
0380000E0000
0380000E0000
0380001C0000
0380003C0000
038000380000
038000700000
038000700000
038000E00000
038001E00000
038001C00380
038003800780
038007800F80
038007001F80
03800E003F80
03800E003F80
03801C007780
03803C00F780
00003801E780
00007001C780
000070038780
0000E0078780
0001E00F0780
0001C00E0780
0003801C0780
0007801FFFF0
0007001FFFF0
000E001FFFF0
000E00000780
001C00000780
003C00000780
003800000780
007000000780
007000000780
00E000000000
ENDCHAR
STARTCHAR 00BD
ENCODING 189
SWIDTH 828 0
DWIDTH 46 0
BBX 44 41 1 -1
BITMAP
01800001C000
01800001C000
038000038000
038000078000
0F8000070000
FF80000E0000
FF80000E0000
0380001C0000
0380003C0000
038000380000
038000700000
038000F00000
038000E00000
038001C00000
038001C00000
038003800000
038007807E00
03800703FF80
03800E07FFC0
03800E0783E0
03801C0F01E0
03803C0E00F0
0380380E00F0
0380701E00F0
0000F01E00F0
0000E00000E0
0001C00001E0
0001C00007C0
000380000F80
000780003F00
00070000FC00
000E0001F000
000E0007C000
001C00078000
003C000F0000
0038000E0000
0070001E0000
00F0001FFFF0
00E0001FFFF0
01C0001FFFF0
01C000000000
ENDCHAR
STARTCHAR 00BE
ENCODING 190
SWIDTH 828 0
DWIDTH 46 0
BBX 44 40 1 -1
BITMAP
03F000003800
0FFC00007800
1FFE00007000
3C1F0000E000
780F0000E000
78078001C000
700780038000
700780038000
000700070000
001F000F0000
01FE000E0000
01FC001C0000
01FF003C0000
000F80380000
000780700000
000380700000
F00380E00700
F00381E00F00
700381C01F00
780783801F00
7C0F07803F00
3FFF07007F00
1FFC0E00F700
07F00E01E700
00001C01C700
00003C038700
000038078700
0000700F0700
0000F01E0700
0000E01C0700
0001C03FFFF0
0001C03FFFF0
0003803FFFF0
000780000700
000700000700
000E00000700
001E00000700
001C00000700
003800000700
003800000000
ENDCHAR
STARTCHAR 00BF
ENCODING 191
SWIDTH 612 0
DWIDTH 34 0
BBX 24 41 5 -12
BITMAP
003E00
003E00
003E00
003E00
003E00
003E00
000000
000000
000000
000000
000000
003E00
003E00
003E00
003E00
003E00
003E00
007E00
00FC00
01F800
03F000
07E000
0FC000
1F8000
3F0000
7E0000
7C0000
7C0000
FC000F
F8000F
F8001F
F8001F
FC001F
7C001F
7E003E
7F007E
3FE3FC
1FFFF8
0FFFF0
07FFE0
00FF00
ENDCHAR
STARTCHAR 00C0
ENCODING 192
SWIDTH 666 0
DWIDTH 37 0
BBX 35 53 1 0
BITMAP
003F000000
001F800000
000F800000
0007C00000
0003E00000
0001E00000
0000F00000
0000780000
0000380000
0000000000
0000000000
0000000000
0003F80000
0003FC0000
0007FC0000
0007FC0000
0007FE0000
000FFE0000
000FBE0000
000FBF0000
001F9F0000
001F1F0000
001F1F8000
003F0F8000
003E0F8000
003E0FC000
007C07C000
007C07C000
007C07E000
00F803E000
00F803E000
00F803F000
01F001F000
01F001F800
03F001F800
03E000F800
03FFFFFC00
07FFFFFC00
07FFFFFC00
07FFFFFE00
0FC0007E00
0F80003E00
0F80003F00
1F80003F00
1F00001F00
1F00001F80
3F00001F80
3E00000F80
3E00000FC0
7E00000FC0
7C000007C0
FC000007E0
FC000007E0
ENDCHAR
STARTCHAR 00C1
ENCODING 193
SWIDTH 666 0
DWIDTH 37 0
BBX 35 53 1 0
BITMAP
00001FC000
00001F8000
00003F0000
00003E0000
00007C0000
0000F80000
0000F00000
0001E00000
0003C00000
0000000000
0000000000
0000000000
0003F80000
0003FC0000
0007FC0000
0007FC0000
0007FE0000
000FFE0000
000FBE0000
000FBF0000
001F9F0000
001F1F0000
001F1F8000
003F0F8000
003E0F8000
003E0FC000
007C07C000
007C07C000
007C07E000
00F803E000
00F803E000
00F803F000
01F001F000
01F001F800
03F001F800
03E000F800
03FFFFFC00
07FFFFFC00
07FFFFFC00
07FFFFFE00
0FC0007E00
0F80003E00
0F80003F00
1F80003F00
1F00001F00
1F00001F80
3F00001F80
3E00000F80
3E00000FC0
7E00000FC0
7C000007C0
FC000007E0
FC000007E0
ENDCHAR
STARTCHAR 00C2
ENCODING 194
SWIDTH 666 0
DWIDTH 37 0
BBX 35 53 1 0
BITMAP
0001F00000
0003F80000
0003FC0000
0007BC0000
000F9E0000
000F1F0000
001E0F0000
003C078000
003803C000
0000000000
0000000000
0000000000
0003F80000
0003FC0000
0007FC0000
0007FC0000
0007FE0000
000FFE0000
000FBE0000
000FBF0000
001F9F0000
001F1F0000
001F1F8000
003F0F8000
003E0F8000
003E0FC000
007C07C000
007C07C000
007C07E000
00F803E000
00F803E000
00F803F000
01F001F000
01F001F800
03F001F800
03E000F800
03FFFFFC00
07FFFFFC00
07FFFFFC00
07FFFFFE00
0FC0007E00
0F80003E00
0F80003F00
1F80003F00
1F00001F00
1F00001F80
3F00001F80
3E00000F80
3E00000FC0
7E00000FC0
7C000007C0
FC000007E0
FC000007E0
ENDCHAR
STARTCHAR 00C3
ENCODING 195
SWIDTH 666 0
DWIDTH 37 0
BBX 35 52 1 0
BITMAP
000601C000
001FC1C000
003FFFC000
003FFF8000
0078FF8000
00701F0000
0000000000
0000000000
0000000000
0000000000
0000000000
0003F80000
0003FC0000
0007FC0000
0007FC0000
0007FE0000
000FFE0000
000FBE0000
000FBF0000
001F9F0000
001F1F0000
001F1F8000
003F0F8000
003E0F8000
003E0FC000
007C07C000
007C07C000
007C07E000
00F803E000
00F803E000
00F803F000
01F001F000
01F001F800
03F001F800
03E000F800
03FFFFFC00
07FFFFFC00
07FFFFFC00
07FFFFFE00
0FC0007E00
0F80003E00
0F80003F00
1F80003F00
1F00001F00
1F00001F80
3F00001F80
3E00000F80
3E00000FC0
7E00000FC0
7C000007C0
FC000007E0
FC000007E0
ENDCHAR
STARTCHAR 00C4
ENCODING 196
SWIDTH 666 0
DWIDTH 37 0
BBX 35 51 1 0
BITMAP
003F1F8000
003F1F8000
003F1F8000
003F1F8000
003F1F8000
003F1F8000
0000000000
0000000000
0000000000
0000000000
0003F80000
0003FC0000
0007FC0000
0007FC0000
0007FE0000
000FFE0000
000FBE0000
000FBF0000
001F9F0000
001F1F0000
001F1F8000
003F0F8000
003E0F8000
003E0FC000
007C07C000
007C07C000
007C07E000
00F803E000
00F803E000
00F803F000
01F001F000
01F001F800
03F001F800
03E000F800
03FFFFFC00
07FFFFFC00
07FFFFFC00
07FFFFFE00
0FC0007E00
0F80003E00
0F80003F00
1F80003F00
1F00001F00
1F00001F80
3F00001F80
3E00000F80
3E00000FC0
7E00000FC0
7C000007C0
FC000007E0
FC000007E0
ENDCHAR
STARTCHAR 00C5
ENCODING 197
SWIDTH 666 0
DWIDTH 37 0
BBX 35 53 1 0
BITMAP
0001F80000
0003FC0000
00071C0000
00060C0000
00060E0000
00060C0000
00071C0000
0003FC0000
0001F00000
0000000000
0000000000
0000000000
0003F80000
0003FC0000
0007FC0000
0007FC0000
0007FE0000
000FFE0000
000FBE0000
000FBF0000
001F9F0000
001F1F0000
001F1F8000
003F0F8000
003E0F8000
003E0FC000
007C07C000
007C07C000
007C07E000
00F803E000
00F803E000
00F803F000
01F001F000
01F001F800
03F001F800
03E000F800
03FFFFFC00
07FFFFFC00
07FFFFFC00
07FFFFFE00
0FC0007E00
0F80003E00
0F80003F00
1F80003F00
1F00001F00
1F00001F80
3F00001F80
3E00000F80
3E00000FC0
7E00000FC0
7C000007C0
FC000007E0
FC000007E0
ENDCHAR
STARTCHAR 00C6
ENCODING 198
SWIDTH 1008 0
DWIDTH 56 0
BBX 52 41 1 0
BITMAP
0000FFFFFFFFE0
0000FFFFFFFFE0
0001FFFFFFFFE0
0001FFFFFFFFE0
0003FFFFFFFFE0
0003E07C000000
0003E07C000000
0007C07C000000
0007C07C000000
000FC07C000000
000F807C000000
000F807C000000
001F007C000000
001F007C000000
003F007C000000
003E007C000000
003E007C000000
007C007C000000
007C007FFFFFC0
00FC007FFFFFC0
00F8007FFFFFC0
00F8007FFFFFC0
01F8007FFFFFC0
01F0007C000000
03FFFFFC000000
03FFFFFC000000
07FFFFFC000000
07FFFFFC000000
07FFFFFC000000
0FC0007C000000
0F80007C000000
1F80007C000000
1F80007C000000
1F00007C000000
3F00007C000000
3E00007C000000
7E00007FFFFFF0
7E00007FFFFFF0
7C00007FFFFFF0
FC00007FFFFFF0
FC00007FFFFFF0
ENDCHAR
STARTCHAR 00C7
ENCODING 199
SWIDTH 720 0
DWIDTH 40 0
BBX 35 54 3 -12
BITMAP
0003FE0000
003FFFC000
00FFFFF000
01FFFFF800
03FFFFFC00
07F801FE00
0FE0007E00
0FC0003F00
1F80001F00
3F00001F80
3E00000F80
3E00000F80
7C00000FC0
7C00000000
7C00000000
FC00000000
F800000000
F800000000
F800000000
F800000000
F800000000
F800000000
F800000000
F800000000
F800000000
F800000000
F800000000
F8000007E0
FC000007C0
7C000007C0
7C000007C0
7E00000FC0
3E00000F80
3F00001F80
1F80001F80
1FC0003F00
0FE0007F00
07F801FE00
03FF0FFC00
01FFFFF800
00FFFFF000
003FFFC000
000FFF0000
0000C00000
0001C00000
0001FC0000
0003FE0000
00003E0000
00001E0000
00001E0000
00301E0000
003E7C0000
003FFC0000
0007F00000
ENDCHAR
STARTCHAR 00C8
ENCODING 200
SWIDTH 666 0
DWIDTH 37 0
BBX 29 53 5 0
BITMAP
01F80000
00FC0000
007C0000
003E0000
001E0000
000F0000
00078000
00038000
0001C000
00000000
00000000
00000000
FFFFFFF0
FFFFFFF0
FFFFFFF0
FFFFFFF0
FFFFFFF0
F8000000
F8000000
F8000000
F8000000
F8000000
F8000000
F8000000
F8000000
F8000000
F8000000
F8000000
F8000000
F8000000
FFFFFFE0
FFFFFFE0
FFFFFFE0
FFFFFFE0
FFFFFFE0
F8000000
F8000000
F8000000
F8000000
F8000000
F8000000
F8000000
F8000000
F8000000
F8000000
F8000000
F8000000
F8000000
FFFFFFF8
FFFFFFF8
FFFFFFF8
FFFFFFF8
FFFFFFF8
ENDCHAR
STARTCHAR 00C9
ENCODING 201
SWIDTH 666 0
DWIDTH 37 0
BBX 29 53 5 0
BITMAP
0001F800
0001F000
0003E000
0007C000
00078000
000F0000
001E0000
001C0000
00380000
00000000
00000000
00000000
FFFFFFF0
FFFFFFF0
FFFFFFF0
FFFFFFF0
FFFFFFF0
F8000000
F8000000
F8000000
F8000000
F8000000
F8000000
F8000000
F8000000
F8000000
F8000000
F8000000
F8000000
F8000000
FFFFFFE0
FFFFFFE0
FFFFFFE0
FFFFFFE0
FFFFFFE0
F8000000
F8000000
F8000000
F8000000
F8000000
F8000000
F8000000
F8000000
F8000000
F8000000
F8000000
F8000000
F8000000
FFFFFFF8
FFFFFFF8
FFFFFFF8
FFFFFFF8
FFFFFFF8
ENDCHAR
STARTCHAR 00CA
ENCODING 202
SWIDTH 666 0
DWIDTH 37 0
BBX 29 53 5 0
BITMAP
001F8000
001FC000
003FC000
007FE000
0079E000
00F0F000
00F07800
01E03800
03C03C00
00000000
00000000
00000000
FFFFFFF0
FFFFFFF0
FFFFFFF0
FFFFFFF0
FFFFFFF0
F8000000
F8000000
F8000000
F8000000
F8000000
F8000000
F8000000
F8000000
F8000000
F8000000
F8000000
F8000000
F8000000
FFFFFFE0
FFFFFFE0
FFFFFFE0
FFFFFFE0
FFFFFFE0
F8000000
F8000000
F8000000
F8000000
F8000000
F8000000
F8000000
F8000000
F8000000
F8000000
F8000000
F8000000
F8000000
FFFFFFF8
FFFFFFF8
FFFFFFF8
FFFFFFF8
FFFFFFF8
ENDCHAR
STARTCHAR 00CB
ENCODING 203
SWIDTH 666 0
DWIDTH 37 0
BBX 29 51 5 0
BITMAP
01F8FC00
01F8FC00
01F8FC00
01F8FC00
01F8FC00
01F8FC00
00000000
00000000
00000000
00000000
FFFFFFF0
FFFFFFF0
FFFFFFF0
FFFFFFF0
FFFFFFF0
F8000000
F8000000
F8000000
F8000000
F8000000
F8000000
F8000000
F8000000
F8000000
F8000000
F8000000
F8000000
F8000000
FFFFFFE0
FFFFFFE0
FFFFFFE0
FFFFFFE0
FFFFFFE0
F8000000
F8000000
F8000000
F8000000
F8000000
F8000000
F8000000
F8000000
F8000000
F8000000
F8000000
F8000000
F8000000
FFFFFFF8
FFFFFFF8
FFFFFFF8
FFFFFFF8
FFFFFFF8
ENDCHAR
STARTCHAR 00CC
ENCODING 204
SWIDTH 270 0
DWIDTH 15 0
BBX 12 53 0 0
BITMAP
FC00
7E00
3F00
1F00
0F80
07C0
03C0
01E0
00F0
0000
0000
0000
03E0
03E0
03E0
03E0
03E0
03E0
03E0
03E0
03E0
03E0
03E0
03E0
03E0
03E0
03E0
03E0
03E0
03E0
03E0
03E0
03E0
03E0
03E0
03E0
03E0
03E0
03E0
03E0
03E0
03E0
03E0
03E0
03E0
03E0
03E0
03E0
03E0
03E0
03E0
03E0
03E0
ENDCHAR
STARTCHAR 00CD
ENCODING 205
SWIDTH 270 0
DWIDTH 15 0
BBX 11 53 4 0
BITMAP
07E0
07C0
0F80
1F00
1E00
3C00
7800
7000
E000
0000
0000
0000
3E00
3E00
3E00
3E00
3E00
3E00
3E00
3E00
3E00
3E00
3E00
3E00
3E00
3E00
3E00
3E00
3E00
3E00
3E00
3E00
3E00
3E00
3E00
3E00
3E00
3E00
3E00
3E00
3E00
3E00
3E00
3E00
3E00
3E00
3E00
3E00
3E00
3E00
3E00
3E00
3E00
ENDCHAR
STARTCHAR 00CE
ENCODING 206
SWIDTH 270 0
DWIDTH 15 0
BBX 16 53 0 0
BITMAP
07E0
0FE0
0FF0
1FF8
1E78
3C3C
781E
701E
F00F
0000
0000
0000
03E0
03E0
03E0
03E0
03E0
03E0
03E0
03E0
03E0
03E0
03E0
03E0
03E0
03E0
03E0
03E0
03E0
03E0
03E0
03E0
03E0
03E0
03E0
03E0
03E0
03E0
03E0
03E0
03E0
03E0
03E0
03E0
03E0
03E0
03E0
03E0
03E0
03E0
03E0
03E0
03E0
ENDCHAR
STARTCHAR 00CF
ENCODING 207
SWIDTH 270 0
DWIDTH 15 0
BBX 14 51 1 0
BITMAP
F8FC
F8FC
F8FC
F8FC
F8FC
F8FC
0000
0000
0000
0000
07C0
07C0
07C0
07C0
07C0
07C0
07C0
07C0
07C0
07C0
07C0
07C0
07C0
07C0
07C0
07C0
07C0
07C0
07C0
07C0
07C0
07C0
07C0
07C0
07C0
07C0
07C0
07C0
07C0
07C0
07C0
07C0
07C0
07C0
07C0
07C0
07C0
07C0
07C0
07C0
07C0
ENDCHAR
STARTCHAR 00D0
ENCODING 208
SWIDTH 720 0
DWIDTH 40 0
BBX 36 41 1 0
BITMAP
0FFFFF0000
0FFFFFE000
0FFFFFF800
0FFFFFFC00
0FFFFFFE00
0F8000FF00
0F80007F00
0F80001F80
0F80000FC0
0F80000FC0
0F800007E0
0F800007E0
0F800003E0
0F800003E0
0F800003F0
0F800001F0
0F800001F0
0F800001F0
FFFFE001F0
FFFFE001F0
FFFFE001F0
FFFFE001F0
0F800001F0
0F800001F0
0F800001F0
0F800001F0
0F800003F0
0F800003E0
0F800003E0
0F800007E0
0F800007C0
0F80000FC0
0F80000FC0
0F80001F80
0F80003F00
0F8000FF00
0FFFFFFE00
0FFFFFFC00
0FFFFFF000
0FFFFFE000
0FFFFF0000
ENDCHAR
STARTCHAR 00D1
ENCODING 209
SWIDTH 720 0
DWIDTH 40 0
BBX 32 52 4 0
BITMAP
000C0380
003F8780
007FFF80
00FFFF00
00F1FF00
00E03C00
00000000
00000000
00000000
00000000
00000000
FC00001F
FE00001F
FE00001F
FF00001F
FF80001F
FF80001F
FFC0001F
FFE0001F
FBE0001F
FBF0001F
F9F0001F
F9F8001F
F8FC001F
F87C001F
F87E001F
F83F001F
F81F001F
F81F801F
F80FC01F
F80FC01F
F807E01F
F803E01F
F803F01F
F801F81F
F800F81F
F800FC1F
F8007E1F
F8003E1F
F8003F1F
F8001F1F
F8001F9F
F8000FDF
F80007DF
F80007FF
F80003FF
F80001FF
F80001FF
F80000FF
F80000FF
F800007F
F800003F
ENDCHAR
STARTCHAR 00D2
ENCODING 210
SWIDTH 774 0
DWIDTH 43 0
BBX 39 54 2 -1
BITMAP
000FC00000
0007E00000
0003F00000
0001F00000
0000F80000
0000780000
00003C0000
00001E0000
0000000000
0000000000
0000000000
0001FF0000
000FFFF000
003FFFFC00
00FFFFFE00
01FFFFFF80
03FC007FC0
07F0001FC0
0FE0000FE0
0FC00007F0
1F800003F0
1F000001F8
3F000000F8
3E000000FC
7E0000007C
7C0000007C
7C0000007E
7C0000003E
FC0000003E
F80000003E
F80000003E
F80000003E
F80000003E
F80000003E
F80000003E
F80000003E
FC0000003E
7C0000003E
7C0000007E
7C0000007C
7E0000007C
3E000000FC
3F000000F8
3F000001F8
1F800003F0
0FC00007F0
0FE0000FE0
07F0001FC0
03FE007F80
01FFFFFF00
00FFFFFE00
003FFFFC00
000FFFF000
0001FF0000
ENDCHAR
STARTCHAR 00D3
ENCODING 211
SWIDTH 774 0
DWIDTH 43 0
BBX 39 54 2 -1
BITMAP
000007E000
00000FC000
00000F8000
00001F0000
00003E0000
00003C0000
0000780000
0000F00000
0000000000
0000000000
0000000000
0001FF0000
000FFFF000
003FFFFC00
00FFFFFE00
01FFFFFF80
03FC007FC0
07F0001FC0
0FE0000FE0
0FC00007F0
1F800003F0
1F000001F8
3F000000F8
3E000000FC
7E0000007C
7C0000007C
7C0000007E
7C0000003E
FC0000003E
F80000003E
F80000003E
F80000003E
F80000003E
F80000003E
F80000003E
F80000003E
FC0000003E
7C0000003E
7C0000007E
7C0000007C
7E0000007C
3E000000FC
3F000000F8
3F000001F8
1F800003F0
0FC00007F0
0FE0000FE0
07F0001FC0
03FE007F80
01FFFFFF00
00FFFFFE00
003FFFFC00
000FFFF000
0001FF0000
ENDCHAR
STARTCHAR 00D4
ENCODING 212
SWIDTH 774 0
DWIDTH 43 0
BBX 39 54 2 -1
BITMAP
00007E0000
0000FE0000
0001FF0000
0001EF8000
0003C78000
0003C3C000
000781E000
000F01E000
0000000000
0000000000
0000000000
0001FF0000
000FFFF000
003FFFFC00
00FFFFFE00
01FFFFFF80
03FC007FC0
07F0001FC0
0FE0000FE0
0FC00007F0
1F800003F0
1F000001F8
3F000000F8
3E000000FC
7E0000007C
7C0000007C
7C0000007E
7C0000003E
FC0000003E
F80000003E
F80000003E
F80000003E
F80000003E
F80000003E
F80000003E
F80000003E
FC0000003E
7C0000003E
7C0000007E
7C0000007C
7E0000007C
3E000000FC
3F000000F8
3F000001F8
1F800003F0
0FC00007F0
0FE0000FE0
07F0001FC0
03FE007F80
01FFFFFF00
00FFFFFE00
003FFFFC00
000FFFF000
0001FF0000
ENDCHAR
STARTCHAR 00D5
ENCODING 213
SWIDTH 774 0
DWIDTH 43 0
BBX 39 53 2 -1
BITMAP
0001C07800
0007F07000
000FFFF000
000FFFF000
001E3FE000
001E07C000
0000000000
0000000000
0000000000
0000000000
0001FF0000
000FFFF000
003FFFFC00
00FFFFFE00
01FFFFFF80
03FC007FC0
07F0001FC0
0FE0000FE0
0FC00007F0
1F800003F0
1F000001F8
3F000000F8
3E000000FC
7E0000007C
7C0000007C
7C0000007E
7C0000003E
FC0000003E
F80000003E
F80000003E
F80000003E
F80000003E
F80000003E
F80000003E
F80000003E
FC0000003E
7C0000003E
7C0000007E
7C0000007C
7E0000007C
3E000000FC
3F000000F8
3F000001F8
1F800003F0
0FC00007F0
0FE0000FE0
07F0001FC0
03FE007F80
01FFFFFF00
00FFFFFE00
003FFFFC00
000FFFF000
0001FF0000
ENDCHAR
STARTCHAR 00D6
ENCODING 214
SWIDTH 774 0
DWIDTH 43 0
BBX 39 53 2 -1
BITMAP
000FC7E000
000FC7E000
000FC7E000
000FC7E000
000FC7E000
000FC7E000
0000000000
0000000000
0000000000
0000000000
0001FF0000
000FFFF000
003FFFFC00
00FFFFFE00
01FFFFFF80
03FC007FC0
07F0001FC0
0FE0000FE0
0FC00007F0
1F800003F0
1F000001F8
3F000000F8
3E000000FC
7E0000007C
7C0000007C
7C0000007E
7C0000003E
FC0000003E
F80000003E
F80000003E
F80000003E
F80000003E
F80000003E
F80000003E
F80000003E
FC0000003E
7C0000003E
7C0000007E
7C0000007C
7E0000007C
3E000000FC
3F000000F8
3F000001F8
1F800003F0
0FC00007F0
0FE0000FE0
07F0001FC0
03FE007F80
01FFFFFF00
00FFFFFE00
003FFFFC00
000FFFF000
0001FF0000
ENDCHAR
STARTCHAR 00D7
ENCODING 215
SWIDTH 576 0
DWIDTH 32 0
BBX 22 22 5 2
BITMAP
000010
300038
78007C
7C00FC
3E01F8
1F03F0
0F87E0
07CFC0
03FF80
01FF00
00FE00
00FC00
01FE00
03FF00
07EF80
0FC7C0
1F83E0
3F01F0
7E00F8
FC007C
780038
300010
ENDCHAR
STARTCHAR 00D8
ENCODING 216
SWIDTH 774 0
DWIDTH 43 0
BBX 39 43 2 0
BITMAP
0001FF000E
000FFFF01E
003FFFFC3C
00FFFFFE78
01FFFFFFF0
03FC007FE0
07F0001FE0
0FE0000FE0
1FC00007F0
1F80000FF0
3F00001FF8
3F00003CF8
7E000078FC
7E0000F0FC
7C0001E07C
7C0003C07C
FC0007807E
F80007803E
F8000F003E
F8001E003E
F8003C003E
F80078003E
F800F0003E
F801E0003E
F803C0003E
F80780003E
FC0F00007E
7C0F00007C
7C1E00007C
7E3C0000FC
7E780000FC
3FF00000F8
3FE00001F8
1FC00003F0
1FC00007F0
0FE0000FE0
1FF0001FC0
1FFC007F80
3DFFFFFF00
78FFFFFE00
F07FFFF800
601FFFE000
0001FF0000
ENDCHAR
STARTCHAR 00D9
ENCODING 217
SWIDTH 720 0
DWIDTH 40 0
BBX 31 54 5 -1
BITMAP
01FC0000
00FC0000
007E0000
003F0000
001F0000
000F8000
0007C000
0003C000
0001E000
00000000
00000000
00000000
F800003E
F800003E
F800003E
F800003E
F800003E
F800003E
F800003E
F800003E
F800003E
F800003E
F800003E
F800003E
F800003E
F800003E
F800003E
F800003E
F800003E
F800003E
F800003E
F800003E
F800003E
F800003E
F800003E
F800003E
F800003E
F800003E
F800003E
F800003E
F800003E
F800003E
F800003E
F800007E
FC00007C
7C0000FC
7E0000FC
3F0003F8
3FC007F0
1FFFFFF0
0FFFFFC0
07FFFF80
01FFFE00
003FF000
ENDCHAR
STARTCHAR 00DA
ENCODING 218
SWIDTH 720 0
DWIDTH 40 0
BBX 31 54 5 -1
BITMAP
0000FE00
0000FC00
0001F800
0003F000
0003E000
0007C000
000F8000
000F0000
001E0000
00000000
00000000
00000000
F800003E
F800003E
F800003E
F800003E
F800003E
F800003E
F800003E
F800003E
F800003E
F800003E
F800003E
F800003E
F800003E
F800003E
F800003E
F800003E
F800003E
F800003E
F800003E
F800003E
F800003E
F800003E
F800003E
F800003E
F800003E
F800003E
F800003E
F800003E
F800003E
F800003E
F800003E
F800007E
FC00007C
7C0000FC
7E0000FC
3F0003F8
3FC007F0
1FFFFFF0
0FFFFFC0
07FFFF80
01FFFE00
003FF000
ENDCHAR
STARTCHAR 00DB
ENCODING 219
SWIDTH 720 0
DWIDTH 40 0
BBX 31 54 5 -1
BITMAP
0007C000
000FE000
001FE000
001FF000
003CF800
00787800
00783C00
00F01E00
01E00E00
00000000
00000000
00000000
F800003E
F800003E
F800003E
F800003E
F800003E
F800003E
F800003E
F800003E
F800003E
F800003E
F800003E
F800003E
F800003E
F800003E
F800003E
F800003E
F800003E
F800003E
F800003E
F800003E
F800003E
F800003E
F800003E
F800003E
F800003E
F800003E
F800003E
F800003E
F800003E
F800003E
F800003E
F800007E
FC00007C
7C0000FC
7E0000FC
3F0003F8
3FC007F0
1FFFFFF0
0FFFFFC0
07FFFF80
01FFFE00
003FF000
ENDCHAR
STARTCHAR 00DC
ENCODING 220
SWIDTH 720 0
DWIDTH 40 0
BBX 31 52 5 -1
BITMAP
00FC7E00
00FC7E00
00FC7E00
00FC7E00
00FC7E00
00FC7E00
00000000
00000000
00000000
00000000
F800003E
F800003E
F800003E
F800003E
F800003E
F800003E
F800003E
F800003E
F800003E
F800003E
F800003E
F800003E
F800003E
F800003E
F800003E
F800003E
F800003E
F800003E
F800003E
F800003E
F800003E
F800003E
F800003E
F800003E
F800003E
F800003E
F800003E
F800003E
F800003E
F800003E
F800003E
F800007E
FC00007C
7C0000FC
7E0000FC
3F0003F8
3FC007F0
1FFFFFF0
0FFFFFC0
07FFFF80
01FFFE00
003FF000
ENDCHAR
STARTCHAR 00DD
ENCODING 221
SWIDTH 666 0
DWIDTH 37 0
BBX 35 53 1 0
BITMAP
00001F8000
00001F0000
00003E0000
00007C0000
0000780000
0000F00000
0001E00000
0001C00000
0003800000
0000000000
0000000000
0000000000
FC000007E0
7E000007E0
7F00000FC0
3F00001FC0
1F80001F80
1F80003F00
0FC0003F00
0FE0007E00
07E0007C00
03F000FC00
03F001F800
01F801F800
00FC03F000
00FC03E000
007E07E000
007E07C000
003F0FC000
001F1F8000
001F9F0000
000FFF0000
000FFE0000
0007FE0000
0003FC0000
0003F80000
0001F80000
0001F00000
0001F00000
0001F00000
0001F00000
0001F00000
0001F00000
0001F00000
0001F00000
0001F00000
0001F00000
0001F00000
0001F00000
0001F00000
0001F00000
0001F00000
0001F00000
ENDCHAR
STARTCHAR 00DE
ENCODING 222
SWIDTH 666 0
DWIDTH 37 0
BBX 29 41 5 0
BITMAP
F8000000
F8000000
F8000000
F8000000
F8000000
F8000000
F8000000
FFFFF800
FFFFFF00
FFFFFF80
FFFFFFC0
FFFFFFE0
F8000FF0
F80003F0
F80003F8
F80001F8
F80001F8
F80000F8
F80000F8
F80000F8
F80000F8
F80001F8
F80001F8
F80003F0
F80007F0
F8001FE0
FFFFFFE0
FFFFFFC0
FFFFFF80
FFFFFE00
FFFFE000
F8000000
F8000000
F8000000
F8000000
F8000000
F8000000
F8000000
F8000000
F8000000
F8000000
ENDCHAR
STARTCHAR 00DF
ENCODING 223
SWIDTH 612 0
DWIDTH 34 0
BBX 27 42 4 -1
BITMAP
007F8000
03FFF000
0FFFF800
1FFFFC00
3FE7FE00
7E007F00
7C003F00
F8001F80
F8000F80
F8000F80
F8000F80
F8000F80
F8000F80
F8001F00
F8003F00
F8007E00
F807FC00
F81FF000
F81FC000
F81FF800
F81FFE00
F801FF00
F8001F80
F8000FC0
F80007C0
F80007C0
F80003E0
F80003E0
F80003E0
F80003E0
F80003E0
F80003E0
F80007C0
F80007C0
F8000FC0
F8001F80
F8007F80
F83FFF00
F83FFE00
F83FFC00
F83FF000
003F8000
ENDCHAR
STARTCHAR 00E0
ENCODING 224
SWIDTH 558 0
DWIDTH 31 0
BBX 28 43 2 -1
BITMAP
03F00000
01F80000
00F80000
007C0000
003E0000
001E0000
000F0000
00070000
00038000
00000000
00000000
00000000
007FC000
03FFF800
07FFFC00
0FFFFE00
1FE1FF00
3F003F00
3E001F00
3E001F00
3C000F00
00000F00
00000F00
00001F00
00007F00
001FFF00
03FFFF00
0FFFEF00
1FFF0F00
3FC00F00
7E000F00
7C000F00
78000F00
F8000F00
F8001F00
F8001F00
7C003F00
7C00FF00
7F03FF80
3FFFEFF0
1FFFCFF0
0FFF07F0
03F803F0
ENDCHAR
STARTCHAR 00E1
ENCODING 225
SWIDTH 558 0
DWIDTH 31 0
BBX 28 43 2 -1
BITMAP
0001F800
0003F000
0007E000
0007C000
000F8000
000F0000
001E0000
003C0000
00380000
00000000
00000000
00000000
007FC000
03FFF800
07FFFC00
0FFFFE00
1FE1FF00
3F003F00
3E001F00
3E001F00
3C000F00
00000F00
00000F00
00001F00
00007F00
001FFF00
03FFFF00
0FFFEF00
1FFF0F00
3FC00F00
7E000F00
7C000F00
78000F00
F8000F00
F8001F00
F8001F00
7C003F00
7C00FF00
7F03FF80
3FFFEFF0
1FFFCFF0
0FFF07F0
03F803F0
ENDCHAR
STARTCHAR 00E2
ENCODING 226
SWIDTH 558 0
DWIDTH 31 0
BBX 28 43 2 -1
BITMAP
003F0000
003F8000
007F8000
007BC000
00F3E000
01E1E000
01E0F000
03C07000
03807800
00000000
00000000
00000000
007FC000
03FFF800
07FFFC00
0FFFFE00
1FE1FF00
3F003F00
3E001F00
3E001F00
3C000F00
00000F00
00000F00
00001F00
00007F00
001FFF00
03FFFF00
0FFFEF00
1FFF0F00
3FC00F00
7E000F00
7C000F00
78000F00
F8000F00
F8001F00
F8001F00
7C003F00
7C00FF00
7F03FF80
3FFFEFF0
1FFFCFF0
0FFF07F0
03F803F0
ENDCHAR
STARTCHAR 00E3
ENCODING 227
SWIDTH 558 0
DWIDTH 31 0
BBX 28 41 2 -1
BITMAP
01F01C00
03FE3C00
03FFF800
07FFF800
070FF000
0701C000
00000000
00000000
00000000
00000000
007FC000
03FFF800
07FFFC00
0FFFFE00
1FE1FF00
3F003F00
3E001F00
3E001F00
3C000F00
00000F00
00000F00
00001F00
00007F00
001FFF00
03FFFF00
0FFFEF00
1FFF0F00
3FC00F00
7E000F00
7C000F00
78000F00
F8000F00
F8001F00
F8001F00
7C003F00
7C00FF00
7F03FF80
3FFFEFF0
1FFFCFF0
0FFF07F0
03F803F0
ENDCHAR
STARTCHAR 00E4
ENCODING 228
SWIDTH 558 0
DWIDTH 31 0
BBX 28 41 2 -1
BITMAP
03F1F800
03F1F800
03F1F800
03F1F800
03F1F800
03F1F800
00000000
00000000
00000000
00000000
007FC000
03FFF800
07FFFC00
0FFFFE00
1FE1FF00
3F003F00
3E001F00
3E001F00
3C000F00
00000F00
00000F00
00001F00
00007F00
001FFF00
03FFFF00
0FFFEF00
1FFF0F00
3FC00F00
7E000F00
7C000F00
78000F00
F8000F00
F8001F00
F8001F00
7C003F00
7C00FF00
7F03FF80
3FFFEFF0
1FFFCFF0
0FFF07F0
03F803F0
ENDCHAR
STARTCHAR 00E5
ENCODING 229
SWIDTH 558 0
DWIDTH 31 0
BBX 28 43 2 -1
BITMAP
001E0000
003F8000
007FC000
0061C000
00E0C000
00E0C000
0061C000
007BC000
003F8000
001E0000
00000000
00000000
007FC000
03FFF800
07FFFC00
0FFFFE00
1FE1FF00
3F003F00
3E001F00
3E001F00
3C000F00
00000F00
00000F00
00001F00
00007F00
001FFF00
03FFFF00
0FFFEF00
1FFF0F00
3FC00F00
7E000F00
7C000F00
78000F00
F8000F00
F8001F00
F8001F00
7C003F00
7C00FF00
7F03FF80
3FFFEFF0
1FFFCFF0
0FFF07F0
03F803F0
ENDCHAR
STARTCHAR 00E6
ENCODING 230
SWIDTH 882 0
DWIDTH 49 0
BBX 45 31 2 -1
BITMAP
00FF8007F000
03FFE03FFC00
0FFFF8FFFF00
1FFFFDFFFF80
3FC1FFFC3FC0
3F003FF00FE0
3E001FC007E0
7C001F8003F0
7C001F8001F0
00001F0001F0
00001F0000F8
00001F0000F8
00007F0000F8
003FFFFFFFF8
03FFFFFFFFF8
0FFFFFFFFFF8
3FFE1FFFFFF8
7F801F000000
7E001F000000
FC001F000000
F8001F000000
F8001F0000F0
F8001F8001F0
F8003F8003F0
F8007FC003E0
FC00FBF00FE0
7F07F3FC3FC0
7FFFC1FFFF80
3FFF80FFFF00
0FFE003FFC00
03F8000FF000
ENDCHAR
STARTCHAR 00E7
ENCODING 231
SWIDTH 504 0
DWIDTH 28 0
BBX 24 42 2 -12
BITMAP
007F00
01FFE0
07FFF0
0FFFFC
1FE3FC
3F807E
3E003E
7E001F
7C001F
7C001F
F8001F
F80000
F80000
F80000
F80000
F80000
F80000
F80000
F80000
F80000
F8000F
F8000F
7C001F
7C001F
3E003F
3F007E
1FC0FC
0FFFFC
07FFF8
03FFE0
00FF80
003800
003000
007F00
007F80
0007C0
0003C0
0003C0
0607C0
0F8F80
07FF00
00FC00
ENDCHAR
STARTCHAR 00E8
ENCODING 232
SWIDTH 558 0
DWIDTH 31 0
BBX 27 43 2 -1
BITMAP
03F00000
01F80000
00F80000
007C0000
003E0000
001E0000
000F0000
00078000
00038000
00000000
00000000
00000000
003F8000
01FFF000
03FFFC00
07FFFE00
0FF1FF00
1F803F00
3F001F80
3E000F80
7C000FC0
7C0007C0
7C0007C0
780007C0
F80007C0
FFFFFFC0
FFFFFFE0
FFFFFFE0
FFFFFFE0
F8000000
F8000000
78000000
7C000000
7C0007C0
7C0007C0
3E000F80
3F001F80
1F803F00
1FF1FE00
0FFFFE00
07FFF800
01FFF000
007F8000
ENDCHAR
STARTCHAR 00E9
ENCODING 233
SWIDTH 558 0
DWIDTH 31 0
BBX 27 43 2 -1
BITMAP
0001F800
0003F000
0003E000
0007C000
000F8000
000F0000
001E0000
001C0000
00380000
00000000
00000000
00000000
003F8000
01FFF000
03FFFC00
07FFFE00
0FF1FF00
1F803F00
3F001F80
3E000F80
7C000FC0
7C0007C0
7C0007C0
780007C0
F80007C0
FFFFFFC0
FFFFFFE0
FFFFFFE0
FFFFFFE0
F8000000
F8000000
78000000
7C000000
7C0007C0
7C0007C0
3E000F80
3F001F80
1F803F00
1FF1FE00
0FFFFE00
07FFF800
01FFF000
007F8000
ENDCHAR
STARTCHAR 00EA
ENCODING 234
SWIDTH 558 0
DWIDTH 31 0
BBX 27 43 2 -1
BITMAP
001F8000
003F8000
003FC000
007FE000
0079E000
00F0F000
01E0F000
01E07800
03C03C00
00000000
00000000
00000000
003F8000
01FFF000
03FFFC00
07FFFE00
0FF1FF00
1F803F00
3F001F80
3E000F80
7C000FC0
7C0007C0
7C0007C0
780007C0
F80007C0
FFFFFFC0
FFFFFFE0
FFFFFFE0
FFFFFFE0
F8000000
F8000000
78000000
7C000000
7C0007C0
7C0007C0
3E000F80
3F001F80
1F803F00
1FF1FE00
0FFFFE00
07FFF800
01FFF000
007F8000
ENDCHAR
STARTCHAR 00EB
ENCODING 235
SWIDTH 558 0
DWIDTH 31 0
BBX 27 41 2 -1
BITMAP
03F1F800
03F1F800
03F1F800
03F1F800
03F1F800
03F1F800
00000000
00000000
00000000
00000000
003F8000
01FFF000
03FFFC00
07FFFE00
0FF1FF00
1F803F00
3F001F80
3E000F80
7C000FC0
7C0007C0
7C0007C0
780007C0
F80007C0
FFFFFFC0
FFFFFFE0
FFFFFFE0
FFFFFFE0
F8000000
F8000000
78000000
7C000000
7C0007C0
7C0007C0
3E000F80
3F001F80
1F803F00
1FF1FE00
0FFFFE00
07FFF800
01FFF000
007F8000
ENDCHAR
STARTCHAR 00EC
ENCODING 236
SWIDTH 270 0
DWIDTH 15 0
BBX 11 42 0 0
BITMAP
FC00
7E00
3F00
1F00
0F80
0780
03C0
01E0
00E0
0000
0000
0000
0000
07C0
07C0
07C0
07C0
07C0
07C0
07C0
07C0
07C0
07C0
07C0
07C0
07C0
07C0
07C0
07C0
07C0
07C0
07C0
07C0
07C0
07C0
07C0
07C0
07C0
07C0
07C0
07C0
07C0
ENDCHAR
STARTCHAR 00ED
ENCODING 237
SWIDTH 270 0
DWIDTH 15 0
BBX 11 42 4 0
BITMAP
07E0
0FC0
1F80
1F00
3E00
3C00
7800
F000
E000
0000
0000
0000
0000
7C00
7C00
7C00
7C00
7C00
7C00
7C00
7C00
7C00
7C00
7C00
7C00
7C00
7C00
7C00
7C00
7C00
7C00
7C00
7C00
7C00
7C00
7C00
7C00
7C00
7C00
7C00
7C00
7C00
ENDCHAR
STARTCHAR 00EE
ENCODING 238
SWIDTH 270 0
DWIDTH 15 0
BBX 15 42 0 0
BITMAP
07E0
0FE0
1FF0
1EF0
3E78
3C78
783C
F01E
F00E
0000
0000
0000
0000
07C0
07C0
07C0
07C0
07C0
07C0
07C0
07C0
07C0
07C0
07C0
07C0
07C0
07C0
07C0
07C0
07C0
07C0
07C0
07C0
07C0
07C0
07C0
07C0
07C0
07C0
07C0
07C0
07C0
ENDCHAR
STARTCHAR 00EF
ENCODING 239
SWIDTH 270 0
DWIDTH 15 0
BBX 15 39 0 0
BITMAP
FC7E
FC7E
FC7E
FC7E
FC7E
FC7E
0000
0000
0000
0000
07C0
07C0
07C0
07C0
07C0
07C0
07C0
07C0
07C0
07C0
07C0
07C0
07C0
07C0
07C0
07C0
07C0
07C0
07C0
07C0
07C0
07C0
07C0
07C0
07C0
07C0
07C0
07C0
07C0
ENDCHAR
STARTCHAR 00F0
ENCODING 240
SWIDTH 558 0
DWIDTH 31 0
BBX 26 42 2 -1
BITMAP
06000000
0F80C000
1FC7E000
07FFC000
01FF0000
01FE0000
0FFF0000
1F9F8000
0E0FC000
0007E000
0003F000
007FF800
01FFFC00
07FFFE00
0FFFFE00
1FE1FF00
3F803F00
3F001F80
7E001F80
7C000F80
7C0007C0
F80007C0
F80007C0
F80007C0
F80007C0
F80007C0
F80007C0
F80007C0
F80007C0
F80007C0
F80007C0
FC0007C0
7C0007C0
7C000F80
7E001F80
3F001F80
3F807F00
1FE1FE00
0FFFFC00
07FFF800
01FFF000
007F8000
ENDCHAR
STARTCHAR 00F1
ENCODING 241
SWIDTH 558 0
DWIDTH 31 0
BBX 23 40 4 0
BITMAP
03C070
0FF8F0
0FFFF0
1FFFE0
1E1FC0
1C0780
000000
000000
000000
000000
001F80
F0FFF0
F1FFF8
F3FFFC
F7C1FC
FF007E
FE003E
FC003E
FC003E
F8003E
F8003E
F8003E
F8003E
F8003E
F8003E
F8003E
F8003E
F8003E
F8003E
F8003E
F8003E
F8003E
F8003E
F8003E
F8003E
F8003E
F8003E
F8003E
F8003E
F8003E
ENDCHAR
STARTCHAR 00F2
ENCODING 242
SWIDTH 558 0
DWIDTH 31 0
BBX 26 43 2 -1
BITMAP
03F00000
01F80000
00F80000
007C0000
003C0000
003E0000
001F0000
000F0000
00078000
00000000
00000000
00000000
007F8000
01FFF000
07FFF800
0FFFFC00
1FE1FE00
1F807F00
3F001F80
7E001F80
7C000F80
7C000FC0
7C0007C0
F80007C0
F80007C0
F80007C0
F80007C0
F80007C0
F80007C0
F80007C0
F80007C0
F80007C0
7C0007C0
7C0007C0
7C000F80
7E001F80
3F001F00
3F803F00
1FE1FE00
0FFFFC00
07FFF800
01FFF000
007F8000
ENDCHAR
STARTCHAR 00F3
ENCODING 243
SWIDTH 558 0
DWIDTH 31 0
BBX 26 43 2 -1
BITMAP
0003F000
0003E000
0007C000
000FC000
000F8000
001F0000
001E0000
003C0000
00780000
00000000
00000000
00000000
007F8000
01FFF000
07FFF800
0FFFFC00
1FE1FE00
1F807F00
3F001F80
7E001F80
7C000F80
7C000FC0
7C0007C0
F80007C0
F80007C0
F80007C0
F80007C0
F80007C0
F80007C0
F80007C0
F80007C0
F80007C0
7C0007C0
7C0007C0
7C000F80
7E001F80
3F001F00
3F803F00
1FE1FE00
0FFFFC00
07FFF800
01FFF000
007F8000
ENDCHAR
STARTCHAR 00F4
ENCODING 244
SWIDTH 558 0
DWIDTH 31 0
BBX 26 43 2 -1
BITMAP
003F0000
003F8000
007F8000
00FFC000
00F3E000
01E1E000
01E0F000
03C07000
07807800
00000000
00000000
00000000
007F8000
01FFF000
07FFF800
0FFFFC00
1FE1FE00
1F807F00
3F001F80
7E001F80
7C000F80
7C000FC0
7C0007C0
F80007C0
F80007C0
F80007C0
F80007C0
F80007C0
F80007C0
F80007C0
F80007C0
F80007C0
7C0007C0
7C0007C0
7C000F80
7E001F80
3F001F00
3F803F00
1FE1FE00
0FFFFC00
07FFF800
01FFF000
007F8000
ENDCHAR
STARTCHAR 00F5
ENCODING 245
SWIDTH 558 0
DWIDTH 31 0
BBX 26 41 2 -1
BITMAP
00F01C00
03FE3C00
03FFF800
07FFF800
070FF000
0701E000
00000000
00000000
00000000
00000000
007F8000
01FFF000
07FFF800
0FFFFC00
1FE1FE00
1F807F00
3F001F80
7E001F80
7C000F80
7C000FC0
7C0007C0
F80007C0
F80007C0
F80007C0
F80007C0
F80007C0
F80007C0
F80007C0
F80007C0
F80007C0
7C0007C0
7C0007C0
7C000F80
7E001F80
3F001F00
3F803F00
1FE1FE00
0FFFFC00
07FFF800
01FFF000
007F8000
ENDCHAR
STARTCHAR 00F6
ENCODING 246
SWIDTH 558 0
DWIDTH 31 0
BBX 26 41 2 -1
BITMAP
03F1F800
03F1F800
03F1F800
03F1F800
03F1F800
03F1F800
00000000
00000000
00000000
00000000
007F8000
01FFF000
07FFF800
0FFFFC00
1FE1FE00
1F807F00
3F001F80
7E001F80
7C000F80
7C000FC0
7C0007C0
F80007C0
F80007C0
F80007C0
F80007C0
F80007C0
F80007C0
F80007C0
F80007C0
F80007C0
7C0007C0
7C0007C0
7C000F80
7E001F80
3F001F00
3F803F00
1FE1FE00
0FFFFC00
07FFF800
01FFF000
007F8000
ENDCHAR
STARTCHAR 00F7
ENCODING 247
SWIDTH 576 0
DWIDTH 32 0
BBX 27 26 3 0
BITMAP
003F0000
003F0000
003F0000
003F0000
003F0000
003F0000
00000000
00000000
00000000
00000000
00000000
FFFFFFE0
FFFFFFE0
FFFFFFE0
FFFFFFE0
00000000
00000000
00000000
00000000
00000000
003F0000
003F0000
003F0000
003F0000
003F0000
003F0000
ENDCHAR
STARTCHAR 00F8
ENCODING 248
SWIDTH 612 0
DWIDTH 34 0
BBX 28 31 1 -1
BITMAP
003FC020
00FFF870
03FFFCF0
07FFFFE0
0FF0FFC0
0FC03F80
1F800F80
3F000FC0
3E001FC0
3E003BE0
3E0073E0
7C00F3E0
7C01E3E0
7C01C3E0
7C0383E0
7C0703E0
7C0E03E0
7C1C03E0
7C3803E0
7C7003E0
7EE003E0
3FE003E0
3FC007C0
3F800FC0
1F800F80
0FC01F80
1FF0FF00
3FFFFE00
73FFFC00
E0FFF800
603FC000
ENDCHAR
STARTCHAR 00F9
ENCODING 249
SWIDTH 558 0
DWIDTH 31 0
BBX 23 43 4 -1
BITMAP
0FC000
07C000
03E000
01F000
00F000
007800
003C00
001C00
000000
000000
000000
000000
000000
F0003E
F0003E
F0003E
F0003E
F0003E
F0003E
F0003E
F0003E
F0003E
F0003E
F0003E
F0003E
F0003E
F0003E
F0003E
F0003E
F0003E
F0003E
F0003E
F0003E
F0003E
F0007E
F8007E
F800FE
FC01FE
FF07DE
7FFF9E
3FFF1E
1FFE1E
07F800
ENDCHAR
STARTCHAR 00FA
ENCODING 250
SWIDTH 558 0
DWIDTH 31 0
BBX 23 43 4 -1
BITMAP
000FC0
001F80
001F00
003E00
003C00
007800
00F000
00E000
000000
000000
000000
000000
000000
F0003E
F0003E
F0003E
F0003E
F0003E
F0003E
F0003E
F0003E
F0003E
F0003E
F0003E
F0003E
F0003E
F0003E
F0003E
F0003E
F0003E
F0003E
F0003E
F0003E
F0003E
F0007E
F8007E
F800FE
FC01FE
FF07DE
7FFF9E
3FFF1E
1FFE1E
07F800
ENDCHAR
STARTCHAR 00FB
ENCODING 251
SWIDTH 558 0
DWIDTH 31 0
BBX 23 43 4 -1
BITMAP
00FC00
00FE00
01FE00
03EF00
03CF80
078780
0703C0
0F01E0
1E00E0
000000
000000
000000
000000
F0003E
F0003E
F0003E
F0003E
F0003E
F0003E
F0003E
F0003E
F0003E
F0003E
F0003E
F0003E
F0003E
F0003E
F0003E
F0003E
F0003E
F0003E
F0003E
F0003E
F0003E
F0007E
F8007E
F800FE
FC01FE
FF07DE
7FFF9E
3FFF1E
1FFE1E
07F800
ENDCHAR
STARTCHAR 00FC
ENCODING 252
SWIDTH 558 0
DWIDTH 31 0
BBX 23 41 4 -1
BITMAP
0FC7E0
0FC7E0
0FC7E0
0FC7E0
0FC7E0
0FC7E0
000000
000000
000000
000000
000000
F0003E
F0003E
F0003E
F0003E
F0003E
F0003E
F0003E
F0003E
F0003E
F0003E
F0003E
F0003E
F0003E
F0003E
F0003E
F0003E
F0003E
F0003E
F0003E
F0003E
F0003E
F0007E
F8007E
F800FE
FC01FE
FF07DE
7FFF9E
3FFF1E
1FFE1E
07F800
ENDCHAR
STARTCHAR 00FD
ENCODING 253
SWIDTH 504 0
DWIDTH 28 0
BBX 25 54 1 -12
BITMAP
0003F000
0007E000
0007C000
000F8000
001F0000
001E0000
003C0000
00380000
00700000
00000000
00000000
00000000
00000000
F8000F80
7C000F80
7C000F80
7C001F00
3E001F00
3E001F00
3E003E00
1F003E00
1F003C00
1F007C00
0F807C00
0F80F800
0F80F800
07C0F800
07C1F000
07C1F000
03E1E000
03E3E000
03E3E000
01F3C000
01F7C000
01F7C000
00F78000
00FF8000
00FF0000
007F0000
007F0000
007E0000
003E0000
003E0000
007C0000
007C0000
007C0000
00F80000
00F80000
01F00000
3FF00000
3FE00000
3FE00000
3FC00000
3F000000
ENDCHAR
STARTCHAR 00FE
ENCODING 254
SWIDTH 558 0
DWIDTH 31 0
BBX 26 52 3 -12
BITMAP
F8000000
F8000000
F8000000
F8000000
F8000000
F8000000
F8000000
F8000000
F8000000
F8000000
F83F8000
F8FFF000
FBFFF800
FFFFFC00
FFE3FE00
FF807F00
FF003F00
FE001F80
FC000F80
FC000F80
F8000F80
F80007C0
F80007C0
F80007C0
F80007C0
F80007C0
F80007C0
F80007C0
F80007C0
F80007C0
F8000FC0
FC000F80
FC000F80
FE001F80
FF003F00
FF807F00
FFE3FE00
FFFFFC00
FBFFF800
F8FFE000
F83F8000
F8000000
F8000000
F8000000
F8000000
F8000000
F8000000
F8000000
F8000000
F8000000
F8000000
F8000000
ENDCHAR
STARTCHAR 00FF
ENCODING 255
SWIDTH 504 0
DWIDTH 28 0
BBX 25 52 1 -12
BITMAP
07E3F000
07E3F000
07E3F000
07E3F000
07E3F000
07E3F000
00000000
00000000
00000000
00000000
00000000
F8000F80
7C000F80
7C000F80
7C001F00
3E001F00
3E001F00
3E003E00
1F003E00
1F003C00
1F007C00
0F807C00
0F80F800
0F80F800
07C0F800
07C1F000
07C1F000
03E1E000
03E3E000
03E3E000
01F3C000
01F7C000
01F7C000
00F78000
00FF8000
00FF0000
007F0000
007F0000
007E0000
003E0000
003E0000
007C0000
007C0000
007C0000
00F80000
00F80000
01F00000
3FF00000
3FE00000
3FE00000
3FC00000
3F000000
ENDCHAR
STARTCHAR 0100
ENCODING 256
SWIDTH 666 0
DWIDTH 37 0
BBX 35 51 1 0
BITMAP
003FFF8000
003FFF8000
003FFF8000
003FFF8000
0000000000
0000000000
0000000000
0000000000
0000000000
0000000000
0003F80000
0003FC0000
0007FC0000
0007FC0000
0007FE0000
000FFE0000
000FBE0000
000FBF0000
001F9F0000
001F1F0000
001F1F8000
003F0F8000
003E0F8000
003E0FC000
007C07C000
007C07C000
007C07E000
00F803E000
00F803E000
00F803F000
01F001F000
01F001F800
03F001F800
03E000F800
03FFFFFC00
07FFFFFC00
07FFFFFC00
07FFFFFE00
0FC0007E00
0F80003E00
0F80003F00
1F80003F00
1F00001F00
1F00001F80
3F00001F80
3E00000F80
3E00000FC0
7E00000FC0
7C000007C0
FC000007E0
FC000007E0
ENDCHAR
STARTCHAR 0101
ENCODING 257
SWIDTH 558 0
DWIDTH 31 0
BBX 28 40 2 -1
BITMAP
03FFF800
03FFF800
03FFF800
03FFF800
00000000
00000000
00000000
00000000
00000000
007FC000
03FFF800
07FFFC00
0FFFFE00
1FE1FF00
3F003F00
3E001F00
3E001F00
3C000F00
00000F00
00000F00
00001F00
00007F00
001FFF00
03FFFF00
0FFFEF00
1FFF0F00
3FC00F00
7E000F00
7C000F00
78000F00
F8000F00
F8001F00
F8001F00
7C003F00
7C00FF00
7F03FF80
3FFFEFF0
1FFFCFF0
0FFF07F0
03F803F0
ENDCHAR
STARTCHAR 0102
ENCODING 258
SWIDTH 666 0
DWIDTH 37 0
BBX 35 53 1 0
BITMAP
007801C000
007801C000
007803C000
003E078000
003FFF8000
001FFF0000
000FFE0000
0003F80000
0000000000
0000000000
0000000000
0000000000
0003F80000
0003FC0000
0007FC0000
0007FC0000
0007FE0000
000FFE0000
000FBE0000
000FBF0000
001F9F0000
001F1F0000
001F1F8000
003F0F8000
003E0F8000
003E0FC000
007C07C000
007C07C000
007C07E000
00F803E000
00F803E000
00F803F000
01F001F000
01F001F800
03F001F800
03E000F800
03FFFFFC00
07FFFFFC00
07FFFFFC00
07FFFFFE00
0FC0007E00
0F80003E00
0F80003F00
1F80003F00
1F00001F00
1F00001F80
3F00001F80
3E00000F80
3E00000FC0
7E00000FC0
7C000007C0
FC000007E0
FC000007E0
ENDCHAR
STARTCHAR 0103
ENCODING 259
SWIDTH 558 0
DWIDTH 31 0
BBX 28 42 2 -1
BITMAP
07003C00
07803800
07807800
07E0F800
03FFF000
01FFF000
00FFC000
003F0000
00000000
00000000
00000000
007FC000
03FFF800
07FFFC00
0FFFFE00
1FE1FF00
3F003F00
3E001F00
3E001F00
3C000F00
00000F00
00000F00
00001F00
00007F00
001FFF00
03FFFF00
0FFFEF00
1FFF0F00
3FC00F00
7E000F00
7C000F00
78000F00
F8000F00
F8001F00
F8001F00
7C003F00
7C00FF00
7F03FF80
3FFFEFF0
1FFFCFF0
0FFF07F0
03F803F0
ENDCHAR
STARTCHAR 0104
ENCODING 260
SWIDTH 666 0
DWIDTH 37 0
BBX 37 52 1 -12
BITMAP
0003F80000
0003FC0000
0007FC0000
0007FC0000
0007FE0000
000FFE0000
000FBE0000
000FBF0000
001F9F0000
001F1F0000
001F1F8000
003F0F8000
003E0F8000
003E0FC000
007C07C000
007C07C000
007C07E000
00F803E000
00F803E000
00F803F000
01F001F000
01F001F800
03F001F800
03E000F800
03FFFFFC00
07FFFFFC00
07FFFFFC00
07FFFFFE00
0FC0007E00
0F80003E00
0F80003F00
1F80003F00
1F00001F00
1F00001F80
3F00001F80
3E00000F80
3E00000FC0
7E00000FC0
7C000007C0
FC000007E0
FC000007E0
00000001C0
0000000780
0000000E00
0000001E00
0000003C00
0000003C00
0000003C00
0000003C00
0000003E00
0000001FF8
00000007F8
ENDCHAR
STARTCHAR 0105
ENCODING 261
SWIDTH 558 0
DWIDTH 31 0
BBX 31 41 2 -11
BITMAP
007FC000
03FFF800
07FFFC00
0FFFFE00
1FE1FF00
3F003F00
3E001F00
3E000F00
3E000F00
00000F00
00000F00
00001F00
00007F00
001FFF00
03FFFF00
0FFFEF00
1FFF0F00
3FC00F00
7E000F00
7C000F00
78000F00
F8000F00
F8001F00
F8001F00
7C003F00
7C00FF00
7F03FF80
3FFFEFF0
1FFFCFF0
0FFF07F0
03FC03F0
000001C0
00000780
00000F00
00000F00
00000F00
00000F00
00000F00
00000FFE
000007FE
000000FE
ENDCHAR
STARTCHAR 0106
ENCODING 262
SWIDTH 720 0
DWIDTH 40 0
BBX 35 54 3 -1
BITMAP
00001F8000
00001F0000
00003E0000
00007C0000
0000780000
0000F00000
0001E00000
0001C00000
0000000000
0000000000
0000000000
0003FE0000
003FFFC000
00FFFFF000
01FFFFF800
03FFFFFC00
07F801FE00
0FE0007E00
0FC0003F00
1F80001F00
3F00001F80
3E00000F80
7E00000F80
7C00000FC0
7C00000000
7C00000000
F800000000
F800000000
F800000000
F800000000
F800000000
F800000000
F800000000
F800000000
F800000000
F800000000
F800000000
F800000000
FC000007E0
FC000007C0
7C000007C0
7E00000FC0
7E00000FC0
3F00000F80
3F00001F80
1F80001F80
1FC0003F00
0FE0007F00
07F801FE00
03FFFFFC00
01FFFFF800
00FFFFF000
003FFFC000
0007FE0000
ENDCHAR
STARTCHAR 0107
ENCODING 263
SWIDTH 504 0
DWIDTH 28 0
BBX 24 43 2 -1
BITMAP
0003F0
0003E0
0007C0
000FC0
000F80
001F00
001E00
003C00
007800
000000
000000
000000
007F00
01FFE0
07FFF0
0FFFFC
1FE3FC
3F007E
3E003E
7E001F
7C001F
7C001F
F8001F
F80000
F80000
F80000
F80000
F80000
F80000
F80000
F80000
F80000
F8000F
FC001F
7C001F
7E001F
3E003E
3F807E
1FE3FC
0FFFF8
07FFF0
03FFE0
007F00
ENDCHAR
STARTCHAR 0108
ENCODING 264
SWIDTH 720 0
DWIDTH 40 0
BBX 35 54 3 -1
BITMAP
0001F80000
0003F80000
0007FC0000
0007BE0000
000F1E0000
000F0F0000
001E078000
003C038000
0000000000
0000000000
0000000000
0003FE0000
003FFFC000
00FFFFF000
01FFFFF800
03FFFFFC00
07F801FE00
0FE0007E00
0FC0003F00
1F80001F00
3F00001F80
3E00000F80
7E00000F80
7C00000FC0
7C00000000
7C00000000
F800000000
F800000000
F800000000
F800000000
F800000000
F800000000
F800000000
F800000000
F800000000
F800000000
F800000000
F800000000
FC000007E0
FC000007C0
7C000007C0
7E00000FC0
7E00000FC0
3F00000F80
3F00001F80
1F80001F80
1FC0003F00
0FE0007F00
07F801FE00
03FFFFFC00
01FFFFF800
00FFFFF000
003FFFC000
0007FE0000
ENDCHAR
STARTCHAR 0109
ENCODING 265
SWIDTH 504 0
DWIDTH 28 0
BBX 24 43 2 -1
BITMAP
003F00
007F00
007F80
00FFC0
00F3C0
01E1E0
03C1E0
03C0F0
078078
000000
000000
000000
007F00
01FFE0
07FFF0
0FFFFC
1FE3FC
3F007E
3E003E
7E001F
7C001F
7C001F
F8001F
F80000
F80000
F80000
F80000
F80000
F80000
F80000
F80000
F80000
F8000F
FC001F
7C001F
7E001F
3E003E
3F807E
1FE3FC
0FFFF8
07FFF0
03FFE0
007F00
ENDCHAR
STARTCHAR 010A
ENCODING 266
SWIDTH 720 0
DWIDTH 40 0
BBX 35 53 3 -1
BITMAP
0001F80000
0001F80000
0001F80000
0001F80000
0001F80000
0001F80000
0000000000
0000000000
0000000000
0000000000
0003FE0000
003FFFC000
00FFFFF000
01FFFFF800
03FFFFFC00
07F801FE00
0FE0007E00
0FC0003F00
1F80001F00
3F00001F80
3E00000F80
7E00000F80
7C00000FC0
7C00000000
7C00000000
F800000000
F800000000
F800000000
F800000000
F800000000
F800000000
F800000000
F800000000
F800000000
F800000000
F800000000
F800000000
FC000007E0
FC000007C0
7C000007C0
7E00000FC0
7E00000FC0
3F00000F80
3F00001F80
1F80001F80
1FC0003F00
0FE0007F00
07F801FE00
03FFFFFC00
01FFFFF800
00FFFFF000
003FFFC000
0007FE0000
ENDCHAR
STARTCHAR 010B
ENCODING 267
SWIDTH 504 0
DWIDTH 28 0
BBX 24 41 2 -1
BITMAP
003F00
003F00
003F00
003F00
003F00
003F00
000000
000000
000000
000000
007F00
01FFE0
07FFF0
0FFFFC
1FE3FC
3F007E
3E003E
7E001F
7C001F
7C001F
F8001F
F80000
F80000
F80000
F80000
F80000
F80000
F80000
F80000
F80000
F8000F
FC001F
7C001F
7E001F
3E003E
3F807E
1FE3FC
0FFFF8
07FFF0
03FFE0
007F00
ENDCHAR
STARTCHAR 010C
ENCODING 268
SWIDTH 720 0
DWIDTH 40 0
BBX 35 54 3 -1
BITMAP
001C03C000
001E078000
000F0F0000
000F8F0000
0007DE0000
0003FE0000
0003FC0000
0001F80000
0000000000
0000000000
0000000000
0003FE0000
003FFFC000
00FFFFF000
01FFFFF800
03FFFFFC00
07F801FE00
0FE0007E00
0FC0003F00
1F80001F00
3F00001F80
3E00000F80
7E00000F80
7C00000FC0
7C00000000
7C00000000
F800000000
F800000000
F800000000
F800000000
F800000000
F800000000
F800000000
F800000000
F800000000
F800000000
F800000000
F800000000
FC000007E0
FC000007C0
7C000007C0
7E00000FC0
7E00000FC0
3F00000F80
3F00001F80
1F80001F80
1FC0003F00
0FE0007F00
07F801FE00
03FFFFFC00
01FFFFF800
00FFFFF000
003FFFC000
0007FE0000
ENDCHAR
STARTCHAR 010D
ENCODING 269
SWIDTH 504 0
DWIDTH 28 0
BBX 24 43 2 -1
BITMAP
078070
03C0F0
03C1E0
01E3E0
01F3C0
00FF80
007F80
007F00
003F00
000000
000000
000000
007F00
01FFE0
07FFF0
0FFFFC
1FE3FC
3F007E
3E003E
7E001F
7C001F
7C001F
F8001F
F80000
F80000
F80000
F80000
F80000
F80000
F80000
F80000
F80000
F8000F
FC001F
7C001F
7E001F
3E003E
3F807E
1FE3FC
0FFFF8
07FFF0
03FFE0
007F00
ENDCHAR
STARTCHAR 010E
ENCODING 270
SWIDTH 720 0
DWIDTH 40 0
BBX 32 53 5 0
BITMAP
03C03C00
01C07800
01E0F000
00F0F000
0079E000
007FC000
003FC000
003F8000
001F8000
00000000
00000000
00000000
FFFFF000
FFFFFE00
FFFFFF80
FFFFFFC0
FFFFFFE0
F8000FF0
F80003F8
F80001F8
F80000FC
F80000FC
F800007E
F800007E
F800003E
F800003E
F800003F
F800001F
F800001F
F800001F
F800001F
F800001F
F800001F
F800001F
F800001F
F800001F
F800001F
F800001F
F800003F
F800003E
F800003E
F800007E
F800007C
F80000FC
F80000FC
F80001F8
F80003F0
F8000FF0
FFFFFFE0
FFFFFFC0
FFFFFF00
FFFFFE00
FFFFF000
ENDCHAR
STARTCHAR 010F
ENCODING 271
SWIDTH 648 0
DWIDTH 36 0
BBX 35 42 1 -1
BITMAP
000003E7E0
000003E7E0
000003E7E0
000003E7E0
000003E7E0
000003E7E0
000003E060
000003E0E0
000003E0E0
000003E0C0
000003E1C0
003F83E780
01FFE3E700
03FFF3E000
07FFFBE000
0FF1FFE000
1FC03FE000
3F001FE000
3F000FE000
3E000FE000
7C0007E000
7C0007E000
7C0007E000
7C0003E000
780003E000
F80003E000
F80003E000
F80003E000
780003E000
7C0003E000
7C0003E000
7C0007E000
7C0007E000
3E000FE000
3F000FE000
3F001FE000
1FC03FE000
0FF1FFE000
0FFFFBE000
03FFF3E000
01FFE3E000
007F800000
ENDCHAR
STARTCHAR 0110
ENCODING 272
SWIDTH 720 0
DWIDTH 40 0
BBX 36 41 1 0
BITMAP
0FFFFF0000
0FFFFFE000
0FFFFFF800
0FFFFFFC00
0FFFFFFE00
0F8000FF00
0F80007F00
0F80001F80
0F80000FC0
0F80000FC0
0F800007E0
0F800007E0
0F800003E0
0F800003E0
0F800003F0
0F800001F0
0F800001F0
0F800001F0
FFFFE001F0
FFFFE001F0
FFFFE001F0
FFFFE001F0
0F800001F0
0F800001F0
0F800001F0
0F800001F0
0F800003F0
0F800003E0
0F800003E0
0F800007E0
0F800007C0
0F80000FC0
0F80000FC0
0F80001F80
0F80003F00
0F8000FF00
0FFFFFFE00
0FFFFFFC00
0FFFFFF000
0FFFFFE000
0FFFFF0000
ENDCHAR
STARTCHAR 0111
ENCODING 273
SWIDTH 558 0
DWIDTH 31 0
BBX 30 42 1 -1
BITMAP
000003C0
000003C0
000003C0
000003C0
0007FFFC
0007FFFC
0007FFFC
000003C0
000003C0
000003C0
000003C0
003F83C0
01FFE3C0
03FFF3C0
0FFFFBC0
0FFFFFC0
1FC07FC0
3F801FC0
3F000FC0
3E000FC0
7C0007C0
7C0007C0
7C0007C0
7C0003C0
780003C0
F80003C0
F80003C0
F80003C0
780003C0
7C0003C0
7C0007C0
7C0007C0
7C0007C0
3E000FC0
3F000FC0
3F801FC0
1FC07FC0
0FFFFFC0
07FFFBC0
03FFF3C0
01FFE3C0
007F0000
ENDCHAR
STARTCHAR 0112
ENCODING 274
SWIDTH 666 0
DWIDTH 37 0
BBX 29 51 5 0
BITMAP
01FFFC00
01FFFC00
01FFFC00
01FFFC00
00000000
00000000
00000000
00000000
00000000
00000000
FFFFFFF0
FFFFFFF0
FFFFFFF0
FFFFFFF0
FFFFFFF0
F8000000
F8000000
F8000000
F8000000
F8000000
F8000000
F8000000
F8000000
F8000000
F8000000
F8000000
F8000000
F8000000
FFFFFFE0
FFFFFFE0
FFFFFFE0
FFFFFFE0
FFFFFFE0
F8000000
F8000000
F8000000
F8000000
F8000000
F8000000
F8000000
F8000000
F8000000
F8000000
F8000000
F8000000
F8000000
FFFFFFF8
FFFFFFF8
FFFFFFF8
FFFFFFF8
FFFFFFF8
ENDCHAR
STARTCHAR 0113
ENCODING 275
SWIDTH 558 0
DWIDTH 31 0
BBX 27 40 2 -1
BITMAP
03FFF800
03FFF800
03FFF800
03FFF800
00000000
00000000
00000000
00000000
00000000
003F8000
01FFF000
03FFFC00
07FFFE00
0FF1FF00
1F803F00
3F001F80
3E000F80
7C000FC0
7C0007C0
7C0007C0
780007C0
F80007C0
FFFFFFC0
FFFFFFE0
FFFFFFE0
FFFFFFE0
F8000000
F8000000
78000000
7C000000
7C0007C0
7C0007C0
3E000F80
3F001F80
1F803F00
1FF1FE00
0FFFFE00
07FFF800
01FFF000
007F8000
ENDCHAR
STARTCHAR 0114
ENCODING 276
SWIDTH 666 0
DWIDTH 37 0
BBX 29 53 5 0
BITMAP
03801E00
03801C00
03C01C00
03E07C00
01FFF800
01FFF800
007FF000
001FC000
00000000
00000000
00000000
00000000
FFFFFFF0
FFFFFFF0
FFFFFFF0
FFFFFFF0
FFFFFFF0
F8000000
F8000000
F8000000
F8000000
F8000000
F8000000
F8000000
F8000000
F8000000
F8000000
F8000000
F8000000
F8000000
FFFFFFE0
FFFFFFE0
FFFFFFE0
FFFFFFE0
FFFFFFE0
F8000000
F8000000
F8000000
F8000000
F8000000
F8000000
F8000000
F8000000
F8000000
F8000000
F8000000
F8000000
F8000000
FFFFFFF8
FFFFFFF8
FFFFFFF8
FFFFFFF8
FFFFFFF8
ENDCHAR
STARTCHAR 0115
ENCODING 277
SWIDTH 558 0
DWIDTH 31 0
BBX 27 42 2 -1
BITMAP
03801C00
03801C00
03C03C00
03E07C00
01FFF800
01FFF000
007FE000
001F8000
00000000
00000000
00000000
003F8000
01FFF000
03FFFC00
07FFFE00
0FF1FF00
1F803F00
3F001F80
3E000F80
7C000FC0
7C0007C0
7C0007C0
780007C0
F80007C0
FFFFFFC0
FFFFFFE0
FFFFFFE0
FFFFFFE0
F8000000
F8000000
78000000
7C000000
7C0007C0
7C0007C0
3E000F80
3F001F80
1F803F00
1FF1FE00
0FFFFE00
07FFF800
01FFF000
007F8000
ENDCHAR
STARTCHAR 0116
ENCODING 278
SWIDTH 666 0
DWIDTH 37 0
BBX 29 51 5 0
BITMAP
001F8000
001F8000
001F8000
001F8000
001F8000
001F8000
00000000
00000000
00000000
00000000
FFFFFFF0
FFFFFFF0
FFFFFFF0
FFFFFFF0
FFFFFFF0
F8000000
F8000000
F8000000
F8000000
F8000000
F8000000
F8000000
F8000000
F8000000
F8000000
F8000000
F8000000
F8000000
FFFFFFE0
FFFFFFE0
FFFFFFE0
FFFFFFE0
FFFFFFE0
F8000000
F8000000
F8000000
F8000000
F8000000
F8000000
F8000000
F8000000
F8000000
F8000000
F8000000
F8000000
F8000000
FFFFFFF8
FFFFFFF8
FFFFFFF8
FFFFFFF8
FFFFFFF8
ENDCHAR
STARTCHAR 0117
ENCODING 279
SWIDTH 558 0
DWIDTH 31 0
BBX 27 41 2 -1
BITMAP
001F8000
001F8000
001F8000
001F8000
001F8000
001F8000
00000000
00000000
00000000
00000000
003F8000
01FFF000
03FFFC00
07FFFE00
0FF1FF00
1F803F00
3F001F80
3E000F80
7C000FC0
7C0007C0
7C0007C0
780007C0
F80007C0
FFFFFFC0
FFFFFFE0
FFFFFFE0
FFFFFFE0
F8000000
F8000000
78000000
7C000000
7C0007C0
7C0007C0
3E000F80
3F001F80
1F803F00
1FF1FE00
0FFFFE00
07FFF800
01FFF000
007F8000
ENDCHAR
STARTCHAR 0118
ENCODING 280
SWIDTH 666 0
DWIDTH 37 0
BBX 31 52 5 -12
BITMAP
FFFFFFF0
FFFFFFF0
FFFFFFF0
FFFFFFF0
FFFFFFF0
F8000000
F8000000
F8000000
F8000000
F8000000
F8000000
F8000000
F8000000
F8000000
F8000000
F8000000
F8000000
F8000000
FFFFFFE0
FFFFFFE0
FFFFFFE0
FFFFFFE0
FFFFFFE0
F8000000
F8000000
F8000000
F8000000
F8000000
F8000000
F8000000
F8000000
F8000000
F8000000
F8000000
F8000000
F8000000
FFFFFFF8
FFFFFFF8
FFFFFFF8
FFFFFFF8
FFFFFFF8
000000F0
000001C0
00000780
00000F00
00000F00
00000F00
00000F00
00000F00
00000F80
000007FE
000003FE
ENDCHAR
STARTCHAR 0119
ENCODING 281
SWIDTH 558 0
DWIDTH 31 0
BBX 27 41 2 -11
BITMAP
003F8000
01FFF000
03FFFC00
07FFFE00
0FF1FF00
1F803F00
3F001F80
3E000F80
7C0007C0
7C0007C0
7C0007C0
780007C0
F80003C0
FFFFFFC0
FFFFFFE0
FFFFFFE0
FFFFFFE0
F8000000
F8000000
78000000
7C000000
7C0007C0
7C0007C0
3E000F80
3F001F80
1F803F00
1FF0FF00
0FFFFE00
07FFFC00
01FFF800
003FF000
0000E000
0001C000
0003C000
0003C000
0003C000
0003C000
0003C000
0003FB80
0001FF80
00007F80
ENDCHAR
STARTCHAR 011A
ENCODING 282
SWIDTH 666 0
DWIDTH 37 0
BBX 29 53 5 0
BITMAP
03C03C00
01E03800
00F07800
00F0F000
0079E000
003FE000
003FC000
001F8000
001F8000
00000000
00000000
00000000
FFFFFFF0
FFFFFFF0
FFFFFFF0
FFFFFFF0
FFFFFFF0
F8000000
F8000000
F8000000
F8000000
F8000000
F8000000
F8000000
F8000000
F8000000
F8000000
F8000000
F8000000
F8000000
FFFFFFE0
FFFFFFE0
FFFFFFE0
FFFFFFE0
FFFFFFE0
F8000000
F8000000
F8000000
F8000000
F8000000
F8000000
F8000000
F8000000
F8000000
F8000000
F8000000
F8000000
F8000000
FFFFFFF8
FFFFFFF8
FFFFFFF8
FFFFFFF8
FFFFFFF8
ENDCHAR
STARTCHAR 011B
ENCODING 283
SWIDTH 558 0
DWIDTH 31 0
BBX 27 43 2 -1
BITMAP
03C03C00
01E07800
01E0F000
00F0F000
0079E000
007FE000
003FC000
003F8000
001F8000
00000000
00000000
00000000
003F8000
01FFF000
03FFFC00
07FFFE00
0FF1FF00
1F803F00
3F001F80
3E000F80
7C000FC0
7C0007C0
7C0007C0
780007C0
F80007C0
FFFFFFC0
FFFFFFE0
FFFFFFE0
FFFFFFE0
F8000000
F8000000
78000000
7C000000
7C0007C0
7C0007C0
3E000F80
3F001F80
1F803F00
1FF1FE00
0FFFFE00
07FFF800
01FFF000
007F8000
ENDCHAR
STARTCHAR 011C
ENCODING 284
SWIDTH 774 0
DWIDTH 43 0
BBX 37 54 2 -1
BITMAP
0000FC0000
0000FE0000
0001FF0000
0001EF0000
0003C78000
000783C000
000783C000
000F01E000
0000000000
0000000000
0000000000
0001FF8000
000FFFF000
003FFFFC00
00FFFFFE00
01FFFFFF80
03FE007FC0
07F8001FC0
07E0000FE0
0FC00007E0
1F800003F0
1F800001F0
3F000001F8
3E000001F8
3E00000000
7E00000000
7C00000000
7C00000000
7C00000000
7C00000000
7C00000000
FC000FFFF8
FC000FFFF8
FC000FFFF8
7C000FFFF8
7C000FFFF8
7C00000078
7C00000078
7C00000078
7E00000078
3E000000F8
3F000000F8
3F000000F8
1F800001F8
1F800003F8
0FC00003F8
0FE00007F8
07F8001FF8
03FE007F78
01FFFFFE78
00FFFFFC38
003FFFF038
000FFFC038
0001FE0000
ENDCHAR
STARTCHAR 011D
ENCODING 285
SWIDTH 558 0
DWIDTH 31 0
BBX 25 54 2 -12
BITMAP
003F0000
003F8000
007F8000
00FFC000
00F3C000
01E1E000
01E0F000
03C0F000
07807800
00000000
00000000
00000000
007E0000
01FF8F80
07FFCF80
0FFFEF80
1FE3FF80
1F00FF80
3E007F80
3E003F80
7C001F80
7C001F80
78001F80
F8000F80
F8000F80
F8000F80
F8000F80
F8000F80
F8000F80
F8000F80
F8000F80
F8000F80
F8001F80
7C001F80
7C001F80
7E003F80
3E003F80
3F00FF80
1FE3FF80
0FFFEF80
07FFCF80
03FF8F80
007E0F00
00000F00
00000F00
7C001F00
7C001F00
7C003E00
3E007E00
3F80FC00
1FFFF800
0FFFF000
03FFE000
007F0000
ENDCHAR
STARTCHAR 011E
ENCODING 286
SWIDTH 774 0
DWIDTH 43 0
BBX 37 54 2 -1
BITMAP
000E007800
000E007000
000F007000
000F81F000
0007FFE000
0003FFE000
0001FFC000
00007F0000
0000000000
0000000000
0000000000
0001FF8000
000FFFF000
003FFFFC00
00FFFFFE00
01FFFFFF80
03FE007FC0
07F8001FC0
07E0000FE0
0FC00007E0
1F800003F0
1F800001F0
3F000001F8
3E000001F8
3E00000000
7E00000000
7C00000000
7C00000000
7C00000000
7C00000000
7C00000000
FC000FFFF8
FC000FFFF8
FC000FFFF8
7C000FFFF8
7C000FFFF8
7C00000078
7C00000078
7C00000078
7E00000078
3E000000F8
3F000000F8
3F000000F8
1F800001F8
1F800003F8
0FC00003F8
0FE00007F8
07F8001FF8
03FE007F78
01FFFFFE78
00FFFFFC38
003FFFF038
000FFFC038
0001FE0000
ENDCHAR
STARTCHAR 011F
ENCODING 287
SWIDTH 558 0
DWIDTH 31 0
BBX 25 53 2 -12
BITMAP
07003800
07003800
07807800
07C0F800
03FFF000
01FFE000
00FFC000
003F0000
00000000
00000000
00000000
007E0000
01FF8F80
07FFCF80
0FFFEF80
1FE3FF80
1F00FF80
3E007F80
3E003F80
7C001F80
7C001F80
78001F80
F8000F80
F8000F80
F8000F80
F8000F80
F8000F80
F8000F80
F8000F80
F8000F80
F8000F80
F8001F80
7C001F80
7C001F80
7E003F80
3E003F80
3F00FF80
1FE3FF80
0FFFEF80
07FFCF80
03FF8F80
007E0F00
00000F00
00000F00
7C001F00
7C001F00
7C003E00
3E007E00
3F80FC00
1FFFF800
0FFFF000
03FFE000
007F0000
ENDCHAR
STARTCHAR 0120
ENCODING 288
SWIDTH 774 0
DWIDTH 43 0
BBX 37 53 2 -1
BITMAP
00007E0000
00007E0000
00007E0000
00007E0000
00007E0000
00007E0000
0000000000
0000000000
0000000000
0000000000
0001FF8000
000FFFF000
003FFFFC00
00FFFFFE00
01FFFFFF80
03FE007FC0
07F8001FC0
07E0000FE0
0FC00007E0
1F800003F0
1F800001F0
3F000001F8
3E000001F8
3E00000000
7E00000000
7C00000000
7C00000000
7C00000000
7C00000000
7C00000000
FC000FFFF8
FC000FFFF8
FC000FFFF8
7C000FFFF8
7C000FFFF8
7C00000078
7C00000078
7C00000078
7E00000078
3E000000F8
3F000000F8
3F000000F8
1F800001F8
1F800003F8
0FC00003F8
0FE00007F8
07F8001FF8
03FE007F78
01FFFFFE78
00FFFFFC38
003FFFF038
000FFFC038
0001FE0000
ENDCHAR
STARTCHAR 0121
ENCODING 289
SWIDTH 558 0
DWIDTH 31 0
BBX 25 52 2 -12
BITMAP
003F0000
003F0000
003F0000
003F0000
003F0000
003F0000
00000000
00000000
00000000
00000000
007E0000
01FF8F80
07FFCF80
0FFFEF80
1FE3FF80
1F00FF80
3E007F80
3E003F80
7C001F80
7C001F80
78001F80
F8000F80
F8000F80
F8000F80
F8000F80
F8000F80
F8000F80
F8000F80
F8000F80
F8000F80
F8001F80
7C001F80
7C001F80
7E003F80
3E003F80
3F00FF80
1FE3FF80
0FFFEF80
07FFCF80
03FF8F80
007E0F00
00000F00
00000F00
7C001F00
7C001F00
7C003E00
3E007E00
3F80FC00
1FFFF800
0FFFF000
03FFE000
007F0000
ENDCHAR
STARTCHAR 0122
ENCODING 290
SWIDTH 774 0
DWIDTH 43 0
BBX 37 57 2 -16
BITMAP
0001FF8000
000FFFF000
003FFFFC00
00FFFFFE00
01FFFFFF80
03FE007FC0
07F8001FC0
07E0000FE0
0FC00007E0
1F800003F0
1F800001F0
3F000001F8
3E000001F8
3E00000000
7E00000000
7C00000000
7C00000000
7C00000000
7C00000000
7C00000000
FC000FFFF8
FC000FFFF8
FC000FFFF8
7C000FFFF8
7C000FFFF8
7C00000078
7C00000078
7C00000078
7E00000078
3E000000F8
3F000000F8
3F000000F8
1F800001F8
1F800003F8
0FC00003F8
0FE00007F8
07F8001FF8
03FE007F78
01FFFFFE78
00FFFFFC38
003FFFF038
000FFFC038
0001FE0000
0000000000
0000000000
00007C0000
00007C0000
00007C0000
00007C0000
00007C0000
00007C0000
00000C0000
00000C0000
00001C0000
00001C0000
0000780000
0000700000
ENDCHAR
STARTCHAR 0123
ENCODING 291
SWIDTH 558 0
DWIDTH 31 0
BBX 25 57 2 -11
BITMAP
000F0000
001F0000
00180000
00380000
00380000
00300000
003F0000
003F0000
003F0000
003F0000
003F0000
003F0000
00000000
00000000
00000000
007E0000
01FF8F80
07FFCF80
0FFFEF80
1FE3FF80
1F00FF80
3E007F80
3E003F80
7C001F80
7C001F80
78001F80
F8000F80
F8000F80
F8000F80
F8000F80
F8000F80
F8000F80
F8000F80
F8000F80
F8000F80
F8001F80
7C001F80
7C001F80
7E003F80
3E003F80
3F00FF80
1FE3FF80
0FFFEF80
07FFCF80
03FF8F80
007E0F00
00000F00
00000F00
7C001F00
7C001F00
7C003E00
3E007E00
3F80FC00
1FFFF800
0FFFF000
03FFE000
007F0000
ENDCHAR
STARTCHAR 0124
ENCODING 292
SWIDTH 720 0
DWIDTH 40 0
BBX 31 53 5 0
BITMAP
0007C000
000FE000
000FF000
001EF000
003E7800
003C7C00
00783C00
00F01E00
00E00F00
00000000
00000000
00000000
F800003E
F800003E
F800003E
F800003E
F800003E
F800003E
F800003E
F800003E
F800003E
F800003E
F800003E
F800003E
F800003E
F800003E
F800003E
F800003E
F800003E
F800003E
FFFFFFFE
FFFFFFFE
FFFFFFFE
FFFFFFFE
FFFFFFFE
F800003E
F800003E
F800003E
F800003E
F800003E
F800003E
F800003E
F800003E
F800003E
F800003E
F800003E
F800003E
F800003E
F800003E
F800003E
F800003E
F800003E
F800003E
ENDCHAR
STARTCHAR 0125
ENCODING 293
SWIDTH 558 0
DWIDTH 31 0
BBX 29 53 -2 0
BITMAP
03E00000
07F00000
0FF00000
0FF80000
1E7C0000
3C3C0000
3C1E0000
780F0000
F0070000
00000000
00000000
00000000
03E00000
03E00000
03E00000
03E00000
03E00000
03E00000
03E00000
03E00000
03E00000
03E00000
03E00000
03E0FE00
03E3FFC0
03E7FFE0
03EFFFF0
03FF07F0
03FC01F8
03F800F8
03F000F8
03F000F8
03E000F8
03E000F8
03E000F8
03E000F8
03E000F8
03E000F8
03E000F8
03E000F8
03E000F8
03E000F8
03E000F8
03E000F8
03E000F8
03E000F8
03E000F8
03E000F8
03E000F8
03E000F8
03E000F8
03E000F8
03E000F8
ENDCHAR
STARTCHAR 0126
ENCODING 294
SWIDTH 720 0
DWIDTH 40 0
BBX 40 41 0 0
BITMAP
07C00001F0
07C00001F0
07C00001F0
07C00001F0
07C00001F0
07C00001F0
07C00001F0
07C00001F0
07C00001F0
FFFFFFFFFF
FFFFFFFFFF
FFFFFFFFFF
FFFFFFFFFF
07C00001F0
07C00001F0
07C00001F0
07C00001F0
07C00001F0
07FFFFFFF0
07FFFFFFF0
07FFFFFFF0
07FFFFFFF0
07FFFFFFF0
07C00001F0
07C00001F0
07C00001F0
07C00001F0
07C00001F0
07C00001F0
07C00001F0
07C00001F0
07C00001F0
07C00001F0
07C00001F0
07C00001F0
07C00001F0
07C00001F0
07C00001F0
07C00001F0
07C00001F0
07C00001F0
ENDCHAR
STARTCHAR 0127
ENCODING 295
SWIDTH 558 0
DWIDTH 31 0
BBX 26 41 1 0
BITMAP
1F000000
1F000000
1F000000
1F000000
FFFFE000
FFFFE000
FFFFE000
1F000000
1F000000
1F000000
1F000000
1F07F000
1F1FFE00
1F3FFF00
1F7FFF80
1FF83F80
1FE00FC0
1FC007C0
1F8007C0
1F8007C0
1F0007C0
1F0007C0
1F0007C0
1F0007C0
1F0007C0
1F0007C0
1F0007C0
1F0007C0
1F0007C0
1F0007C0
1F0007C0
1F0007C0
1F0007C0
1F0007C0
1F0007C0
1F0007C0
1F0007C0
1F0007C0
1F0007C0
1F0007C0
1F0007C0
ENDCHAR
STARTCHAR 0128
ENCODING 296
SWIDTH 270 0
DWIDTH 15 0
BBX 17 52 -1 0
BITMAP
0C0380
3F8780
7FFF80
FFFF00
F1FF00
E03C00
000000
000000
000000
000000
000000
01F000
01F000
01F000
01F000
01F000
01F000
01F000
01F000
01F000
01F000
01F000
01F000
01F000
01F000
01F000
01F000
01F000
01F000
01F000
01F000
01F000
01F000
01F000
01F000
01F000
01F000
01F000
01F000
01F000
01F000
01F000
01F000
01F000
01F000
01F000
01F000
01F000
01F000
01F000
01F000
01F000
ENDCHAR
STARTCHAR 0129
ENCODING 297
SWIDTH 270 0
DWIDTH 15 0
BBX 17 40 -1 0
BITMAP
1E0380
7FC780
7FFF80
FFFF00
E0FE00
E03C00
000000
000000
000000
000000
000000
03E000
03E000
03E000
03E000
03E000
03E000
03E000
03E000
03E000
03E000
03E000
03E000
03E000
03E000
03E000
03E000
03E000
03E000
03E000
03E000
03E000
03E000
03E000
03E000
03E000
03E000
03E000
03E000
03E000
ENDCHAR
STARTCHAR 012A
ENCODING 298
SWIDTH 270 0
DWIDTH 15 0
BBX 14 51 1 0
BITMAP
FFFC
FFFC
FFFC
FFFC
0000
0000
0000
0000
0000
0000
07C0
07C0
07C0
07C0
07C0
07C0
07C0
07C0
07C0
07C0
07C0
07C0
07C0
07C0
07C0
07C0
07C0
07C0
07C0
07C0
07C0
07C0
07C0
07C0
07C0
07C0
07C0
07C0
07C0
07C0
07C0
07C0
07C0
07C0
07C0
07C0
07C0
07C0
07C0
07C0
07C0
ENDCHAR
STARTCHAR 012B
ENCODING 299
SWIDTH 270 0
DWIDTH 15 0
BBX 14 39 1 0
BITMAP
FFFC
FFFC
FFFC
FFFC
0000
0000
0000
0000
0000
0000
0F80
0F80
0F80
0F80
0F80
0F80
0F80
0F80
0F80
0F80
0F80
0F80
0F80
0F80
0F80
0F80
0F80
0F80
0F80
0F80
0F80
0F80
0F80
0F80
0F80
0F80
0F80
0F80
0F80
ENDCHAR
STARTCHAR 012C
ENCODING 300
SWIDTH 270 0
DWIDTH 15 0
BBX 17 53 -1 0
BITMAP
F00380
F00380
F00780
7C0F00
7FFF00
3FFE00
1FFC00
07F000
000000
000000
000000
000000
03E000
03E000
03E000
03E000
03E000
03E000
03E000
03E000
03E000
03E000
03E000
03E000
03E000
03E000
03E000
03E000
03E000
03E000
03E000
03E000
03E000
03E000
03E000
03E000
03E000
03E000
03E000
03E000
03E000
03E000
03E000
03E000
03E000
03E000
03E000
03E000
03E000
03E000
03E000
03E000
03E000
ENDCHAR
STARTCHAR 012D
ENCODING 301
SWIDTH 270 0
DWIDTH 15 0
BBX 17 41 -1 0
BITMAP
F00380
F00780
780780
7C1F00
7FFF00
3FFE00
1FFC00
03E000
000000
000000
000000
000000
03E000
03E000
03E000
03E000
03E000
03E000
03E000
03E000
03E000
03E000
03E000
03E000
03E000
03E000
03E000
03E000
03E000
03E000
03E000
03E000
03E000
03E000
03E000
03E000
03E000
03E000
03E000
03E000
03E000
ENDCHAR
STARTCHAR 012E
ENCODING 302
SWIDTH 270 0
DWIDTH 15 0
BBX 9 52 4 -12
BITMAP
3E00
3E00
3E00
3E00
3E00
3E00
3E00
3E00
3E00
3E00
3E00
3E00
3E00
3E00
3E00
3E00
3E00
3E00
3E00
3E00
3E00
3E00
3E00
3E00
3E00
3E00
3E00
3E00
3E00
3E00
3E00
3E00
3E00
3E00
3E00
3E00
3E00
3E00
3E00
3E00
3E00
1C00
3800
7800
F000
F000
F000
F000
F000
F800
7F80
3F80
ENDCHAR
STARTCHAR 012F
ENCODING 303
SWIDTH 216 0
DWIDTH 12 0
BBX 10 52 1 -12
BITMAP
1E00
1E00
1E00
1E00
1E00
1E00
0000
0000
0000
0000
0000
0000
1E00
1E00
1E00
1E00
1E00
1E00
1E00
1E00
1E00
1E00
1E00
1E00
1E00
1E00
1E00
1E00
1E00
1E00
1E00
1E00
1E00
1E00
1E00
1E00
1E00
1E00
1E00
1E00
1E00
0E00
1C00
3800
7800
7800
F000
F000
F800
7C00
7FC0
3FC0
ENDCHAR
STARTCHAR 0130
ENCODING 304
SWIDTH 270 0
DWIDTH 15 0
BBX 6 51 5 0
BITMAP
FC
FC
FC
FC
FC
FC
00
00
00
00
7C
7C
7C
7C
7C
7C
7C
7C
7C
7C
7C
7C
7C
7C
7C
7C
7C
7C
7C
7C
7C
7C
7C
7C
7C
7C
7C
7C
7C
7C
7C
7C
7C
7C
7C
7C
7C
7C
7C
7C
7C
ENDCHAR
STARTCHAR 0131
ENCODING 305
SWIDTH 270 0
DWIDTH 15 0
BBX 5 29 5 0
BITMAP
F8
F8
F8
F8
F8
F8
F8
F8
F8
F8
F8
F8
F8
F8
F8
F8
F8
F8
F8
F8
F8
F8
F8
F8
F8
F8
F8
F8
F8
ENDCHAR
STARTCHAR 0132
ENCODING 306
SWIDTH 738 0
DWIDTH 41 0
BBX 30 42 6 -1
BITMAP
F800007C
F800007C
F800007C
F800007C
F800007C
F800007C
F800007C
F800007C
F800007C
F800007C
F800007C
F800007C
F800007C
F800007C
F800007C
F800007C
F800007C
F800007C
F800007C
F800007C
F800007C
F800007C
F800007C
F800007C
F800007C
F800007C
F800007C
F800007C
F8F8007C
F8F8007C
F8F8007C
F8F8007C
F8F8007C
F8F8007C
F8FC007C
F8FC00FC
F87E01F8
F87FC7F8
F83FFFF0
F81FFFE0
F807FF80
0001FE00
ENDCHAR
STARTCHAR 0133
ENCODING 307
SWIDTH 450 0
DWIDTH 25 0
BBX 15 53 5 -12
BITMAP
F81E
F81E
F81E
F81E
F81E
F81E
0000
0000
0000
0000
0000
0000
F81E
F81E
F81E
F81E
F81E
F81E
F81E
F81E
F81E
F81E
F81E
F81E
F81E
F81E
F81E
F81E
F81E
F81E
F81E
F81E
F81E
F81E
F81E
F81E
F81E
F81E
F81E
F81E
F81E
001E
001E
001E
001E
001E
003E
003E
007E
03FE
03FC
03F8
03E0
ENDCHAR
STARTCHAR 0134
ENCODING 308
SWIDTH 504 0
DWIDTH 28 0
BBX 27 54 1 -1
BITMAP
00007C00
0000FE00
0001FE00
0001EF00
0003CF80
0007C780
000783C0
000F01E0
001E00E0
00000000
00000000
00000000
00007E00
00007E00
00007E00
00007E00
00007E00
00007E00
00007E00
00007E00
00007E00
00007E00
00007E00
00007E00
00007E00
00007E00
00007E00
00007E00
00007E00
00007E00
00007E00
00007E00
00007E00
00007E00
00007E00
00007E00
00007E00
00007E00
00007E00
00007E00
F8007E00
F8007E00
F8007E00
F8007E00
F8007E00
FC007C00
FC007C00
7E00FC00
7F01F800
3FC7F800
3FFFF000
1FFFE000
07FF8000
01FE0000
ENDCHAR
STARTCHAR 0135
ENCODING 309
SWIDTH 216 0
DWIDTH 12 0
BBX 16 54 -2 -12
BITMAP
07E0
0FF0
0FF0
1FF8
1E78
3C3C
781C
781E
F00F
0000
0000
0000
0000
03E0
03E0
03E0
03E0
03E0
03E0
03E0
03E0
03E0
03E0
03E0
03E0
03E0
03E0
03E0
03E0
03E0
03E0
03E0
03E0
03E0
03E0
03E0
03E0
03E0
03E0
03E0
03E0
03E0
03E0
03E0
03E0
03E0
03E0
03E0
03C0
07C0
7FC0
7FC0
7F80
7C00
ENDCHAR
STARTCHAR 0136
ENCODING 310
SWIDTH 666 0
DWIDTH 37 0
BBX 32 57 4 -16
BITMAP
FC00007F
FC0000FE
FC0001FC
FC0003F8
FC0007F0
FC000FE0
FC001FC0
FC003F80
FC007F00
FC00FE00
FC00FC00
FC01F800
FC03F000
FC07E000
FC0FC000
FC1F8000
FC3F0000
FC7F0000
FCFF8000
FDFFC000
FFF7C000
FFE7E000
FFC3F000
FF81F800
FF01F800
FE00FC00
FC007E00
FC007E00
FC003F00
FC001F80
FC001F80
FC000FC0
FC0007E0
FC0007E0
FC0003F0
FC0001F8
FC0001F8
FC0000FC
FC00007E
FC00007F
FC00003F
00000000
00000000
00000000
0007C000
0007C000
0007C000
0007C000
0007C000
0007C000
0000C000
0000C000
0001C000
0001C000
00038000
00070000
00060000
ENDCHAR
STARTCHAR 0137
ENCODING 311
SWIDTH 504 0
DWIDTH 28 0
BBX 25 57 3 -16
BITMAP
F8000000
F8000000
F8000000
F8000000
F8000000
F8000000
F8000000
F8000000
F8000000
F8000000
F8000000
F8000000
F8007E00
F800FC00
F801F800
F803F000
F807E000
F80FC000
F81F8000
F83F0000
F87E0000
F8FC0000
F9F80000
FBFC0000
FFFE0000
FFFE0000
FF3F0000
FE1F0000
FC1F8000
F80FC000
F807C000
F807E000
F803F000
F803F000
F801F800
F800F800
F800FC00
F8007E00
F8003E00
F8003F00
F8001F80
00000000
00000000
00000000
007E0000
007E0000
007E0000
007E0000
007E0000
007E0000
000E0000
000E0000
000C0000
001C0000
003C0000
00780000
00600000
ENDCHAR
STARTCHAR 0138
ENCODING 312
SWIDTH 504 0
DWIDTH 28 0
BBX 22 28 2 0
BITMAP
F0007C
F000F8
F001F0
F003E0
F007C0
F00F80
F01F00
F03E00
F07C00
F0F800
F1F000
F3E000
F7F000
FFF800
FE7800
FC3C00
F81E00
F01E00
F00F00
F00780
F007C0
F003C0
F001E0
F001F0
F000F0
F00078
F0007C
F0003C
ENDCHAR
STARTCHAR 0139
ENCODING 313
SWIDTH 558 0
DWIDTH 31 0
BBX 26 53 4 0
BITMAP
07E00000
0FC00000
0F800000
1F000000
1E000000
3C000000
78000000
70000000
E0000000
00000000
00000000
00000000
FC000000
FC000000
FC000000
FC000000
FC000000
FC000000
FC000000
FC000000
FC000000
FC000000
FC000000
FC000000
FC000000
FC000000
FC000000
FC000000
FC000000
FC000000
FC000000
FC000000
FC000000
FC000000
FC000000
FC000000
FC000000
FC000000
FC000000
FC000000
FC000000
FC000000
FC000000
FC000000
FC000000
FC000000
FC000000
FC000000
FFFFFFC0
FFFFFFC0
FFFFFFC0
FFFFFFC0
FFFFFFC0
ENDCHAR
STARTCHAR 013A
ENCODING 314
SWIDTH 216 0
DWIDTH 12 0
BBX 11 53 4 0
BITMAP
07E0
0FC0
1F80
1F00
3E00
7C00
7800
F000
E000
0000
0000
0000
F000
F000
F000
F000
F000
F000
F000
F000
F000
F000
F000
F000
F000
F000
F000
F000
F000
F000
F000
F000
F000
F000
F000
F000
F000
F000
F000
F000
F000
F000
F000
F000
F000
F000
F000
F000
F000
F000
F000
F000
F000
ENDCHAR
STARTCHAR 013B
ENCODING 315
SWIDTH 558 0
DWIDTH 31 0
BBX 26 57 4 -16
BITMAP
FC000000
FC000000
FC000000
FC000000
FC000000
FC000000
FC000000
FC000000
FC000000
FC000000
FC000000
FC000000
FC000000
FC000000
FC000000
FC000000
FC000000
FC000000
FC000000
FC000000
FC000000
FC000000
FC000000
FC000000
FC000000
FC000000
FC000000
FC000000
FC000000
FC000000
FC000000
FC000000
FC000000
FC000000
FC000000
FC000000
FFFFFFC0
FFFFFFC0
FFFFFFC0
FFFFFFC0
FFFFFFC0
00000000
00000000
00000000
003F0000
003F0000
003F0000
003F0000
003F0000
003F0000
00070000
00070000
00070000
00060000
000E0000
003C0000
00300000
ENDCHAR
STARTCHAR 013C
ENCODING 316
SWIDTH 216 0
DWIDTH 12 0
BBX 5 57 4 -16
BITMAP
F0
F0
F0
F0
F0
F0
F0
F0
F0
F0
F0
F0
F0
F0
F0
F0
F0
F0
F0
F0
F0
F0
F0
F0
F0
F0
F0
F0
F0
F0
F0
F0
F0
F0
F0
F0
F0
F0
F0
F0
F0
00
00
00
F8
F8
F8
F8
F8
F8
18
18
38
30
70
E0
C0
ENDCHAR
STARTCHAR 013D
ENCODING 317
SWIDTH 558 0
DWIDTH 31 0
BBX 26 41 4 0
BITMAP
FC1F8000
FC1F8000
FC1F8000
FC1F8000
FC1F8000
FC1F8000
FC038000
FC038000
FC030000
FC070000
FC1E0000
FC1C0000
FC100000
FC000000
FC000000
FC000000
FC000000
FC000000
FC000000
FC000000
FC000000
FC000000
FC000000
FC000000
FC000000
FC000000
FC000000
FC000000
FC000000
FC000000
FC000000
FC000000
FC000000
FC000000
FC000000
FC000000
FFFFFFC0
FFFFFFC0
FFFFFFC0
FFFFFFC0
FFFFFFC0
ENDCHAR
STARTCHAR 013E
ENCODING 318
SWIDTH 306 0
DWIDTH 17 0
BBX 13 41 4 0
BITMAP
F1F8
F1F8
F1F8
F1F8
F1F8
F1F8
F038
F038
F038
F030
F1F0
F1E0
F100
F000
F000
F000
F000
F000
F000
F000
F000
F000
F000
F000
F000
F000
F000
F000
F000
F000
F000
F000
F000
F000
F000
F000
F000
F000
F000
F000
F000
ENDCHAR
STARTCHAR 013F
ENCODING 319
SWIDTH 558 0
DWIDTH 31 0
BBX 26 41 4 0
BITMAP
FC000000
FC000000
FC000000
FC000000
FC000000
FC000000
FC000000
FC000000
FC000000
FC000000
FC000000
FC000000
FC000000
FC000000
FC000000
FC000000
FC000000
FC000000
FC01F800
FC01F800
FC01F800
FC01F800
FC01F800
FC01F800
FC000000
FC000000
FC000000
FC000000
FC000000
FC000000
FC000000
FC000000
FC000000
FC000000
FC000000
FC000000
FFFFFFC0
FFFFFFC0
FFFFFFC0
FFFFFFC0
FFFFFFC0
ENDCHAR
STARTCHAR 0140
ENCODING 320
SWIDTH 342 0
DWIDTH 19 0
BBX 14 41 4 0
BITMAP
F800
F800
F800
F800
F800
F800
F800
F800
F800
F800
F800
F800
F800
F800
F800
F800
F800
F800
F8FC
F8FC
F8FC
F8FC
F8FC
F8FC
F800
F800
F800
F800
F800
F800
F800
F800
F800
F800
F800
F800
F800
F800
F800
F800
F800
ENDCHAR
STARTCHAR 0141
ENCODING 321
SWIDTH 558 0
DWIDTH 31 0
BBX 31 41 0 0
BITMAP
0FC00000
0FC00000
0FC00000
0FC00000
0FC00000
0FC00000
0FC00000
0FC00000
0FC00000
0FC00000
0FC00000
0FC00000
0FC02000
0FC0E000
0FC1E000
0FC7E000
0FCFC000
0FDF8000
0FFE0000
0FFC0000
0FF00000
0FE00000
3FC00000
7FC00000
FFC00000
FFC00000
EFC00000
8FC00000
0FC00000
0FC00000
0FC00000
0FC00000
0FC00000
0FC00000
0FC00000
0FC00000
0FFFFFFE
0FFFFFFE
0FFFFFFE
0FFFFFFE
0FFFFFFE
ENDCHAR
STARTCHAR 0142
ENCODING 322
SWIDTH 216 0
DWIDTH 12 0
BBX 12 41 0 0
BITMAP
1F00
1F00
1F00
1F00
1F00
1F00
1F00
1F00
1F00
1F00
1F00
1F00
1F00
1F00
1F00
1F30
1F70
1FF0
1FE0
1FC0
1F80
7F00
FF00
FF00
DF00
9F00
1F00
1F00
1F00
1F00
1F00
1F00
1F00
1F00
1F00
1F00
1F00
1F00
1F00
1F00
1F00
ENDCHAR
STARTCHAR 0143
ENCODING 323
SWIDTH 720 0
DWIDTH 40 0
BBX 32 53 4 0
BITMAP
00003F00
00007E00
0000FC00
0000F800
0001F000
0003E000
0003C000
00078000
000F0000
00000000
00000000
00000000
FC00001F
FE00001F
FE00001F
FF00001F
FF80001F
FF80001F
FFC0001F
FFE0001F
FBE0001F
FBF0001F
F9F0001F
F9F8001F
F8FC001F
F87C001F
F87E001F
F83F001F
F81F001F
F81F801F
F80FC01F
F80FC01F
F807E01F
F803E01F
F803F01F
F801F81F
F800F81F
F800FC1F
F8007E1F
F8003E1F
F8003F1F
F8001F1F
F8001F9F
F8000FDF
F80007DF
F80007FF
F80003FF
F80001FF
F80001FF
F80000FF
F80000FF
F800007F
F800003F
ENDCHAR
STARTCHAR 0144
ENCODING 324
SWIDTH 558 0
DWIDTH 31 0
BBX 23 42 4 0
BITMAP
0007E0
000FC0
000F80
001F00
001E00
003C00
007800
007800
00F000
000000
000000
000000
001F80
F0FFF0
F1FFF8
F3FFFC
F7C1FC
FF007E
FE003E
FC003E
FC003E
F8003E
F8003E
F8003E
F8003E
F8003E
F8003E
F8003E
F8003E
F8003E
F8003E
F8003E
F8003E
F8003E
F8003E
F8003E
F8003E
F8003E
F8003E
F8003E
F8003E
F8003E
ENDCHAR
STARTCHAR 0145
ENCODING 325
SWIDTH 720 0
DWIDTH 40 0
BBX 32 57 4 -16
BITMAP
FC00001F
FE00001F
FE00001F
FF00001F
FF80001F
FF80001F
FFC0001F
FFE0001F
FBE0001F
FBF0001F
F9F0001F
F9F8001F
F8FC001F
F87C001F
F87E001F
F83F001F
F81F001F
F81F801F
F80FC01F
F80FC01F
F807E01F
F803E01F
F803F01F
F801F81F
F800F81F
F800FC1F
F8007E1F
F8003E1F
F8003F1F
F8001F1F
F8001F9F
F8000FDF
F80007DF
F80007FF
F80003FF
F80001FF
F80001FF
F80000FF
F80000FF
F800007F
F800003F
00000000
00000000
00000000
0007C000
0007C000
0007C000
0007C000
0007C000
0007C000
0000C000
0000C000
0001C000
0001C000
00038000
00070000
00060000
ENDCHAR
STARTCHAR 0146
ENCODING 326
SWIDTH 558 0
DWIDTH 31 0
BBX 23 46 4 -16
BITMAP
001F80
F0FFF0
F1FFF8
F3FFFC
F7C1FC
FF007E
FE003E
FC003E
FC003E
F8003E
F8003E
F8003E
F8003E
F8003E
F8003E
F8003E
F8003E
F8003E
F8003E
F8003E
F8003E
F8003E
F8003E
F8003E
F8003E
F8003E
F8003E
F8003E
F8003E
F8003E
000000
000000
000000
007C00
007C00
007C00
007C00
007C00
007C00
000C00
000C00
000C00
001C00
003800
007000
006000
ENDCHAR
STARTCHAR 0147
ENCODING 327
SWIDTH 720 0
DWIDTH 40 0
BBX 32 53 4 0
BITMAP
00F00F00
00781E00
00381E00
003C3C00
001E7800
001FF800
000FF000
0007E000
0007E000
00000000
00000000
00000000
FC00001F
FE00001F
FE00001F
FF00001F
FF80001F
FF80001F
FFC0001F
FFE0001F
FBE0001F
FBF0001F
F9F0001F
F9F8001F
F8FC001F
F87C001F
F87E001F
F83F001F
F81F001F
F81F801F
F80FC01F
F80FC01F
F807E01F
F803E01F
F803F01F
F801F81F
F800F81F
F800FC1F
F8007E1F
F8003E1F
F8003F1F
F8001F1F
F8001F9F
F8000FDF
F80007DF
F80007FF
F80003FF
F80001FF
F80001FF
F80000FF
F80000FF
F800007F
F800003F
ENDCHAR
STARTCHAR 0148
ENCODING 328
SWIDTH 558 0
DWIDTH 31 0
BBX 23 42 4 0
BITMAP
0E01E0
0F01E0
0783C0
03C780
03EF80
01EF00
01FF00
00FE00
007C00
000000
000000
000000
001F80
F0FFF0
F1FFF8
F3FFFC
F7C1FC
FF007E
FE003E
FC003E
FC003E
F8003E
F8003E
F8003E
F8003E
F8003E
F8003E
F8003E
F8003E
F8003E
F8003E
F8003E
F8003E
F8003E
F8003E
F8003E
F8003E
F8003E
F8003E
F8003E
F8003E
F8003E
ENDCHAR
STARTCHAR 0149
ENCODING 329
SWIDTH 612 0
DWIDTH 34 0
BBX 29 43 1 0
BITMAP
F8000000
F8000000
F8000000
F8000000
F8000000
F8000000
18000000
18000000
38000000
38000000
70000000
E0000000
C0000000
0000FE00
03C3FF80
03C7FFE0
03CFFFE0
03DE07F0
03FC03F0
03F801F8
03F000F8
03E000F8
03E000F8
03E000F8
03C000F8
03C000F8
03C000F8
03C000F8
03C000F8
03C000F8
03C000F8
03C000F8
03C000F8
03C000F8
03C000F8
03C000F8
03C000F8
03C000F8
03C000F8
03C000F8
03C000F8
03C000F8
03C000F8
ENDCHAR
STARTCHAR 014A
ENCODING 330
SWIDTH 720 0
DWIDTH 40 0
BBX 30 59 5 -17
BITMAP
0003FC00
F81FFF80
F83FFFC0
F87FFFE0
F8FFFFF0
F9F007F8
FBC001F8
FF8001FC
FF0000FC
FF00007C
FE00007C
FE00007C
FC00007C
FC00007C
FC00007C
FC00007C
F800007C
F800007C
F800007C
F800007C
F800007C
F800007C
F800007C
F800007C
F800007C
F800007C
F800007C
F800007C
F800007C
F800007C
F800007C
F800007C
F800007C
F800007C
F800007C
F800007C
F800007C
F800007C
F800007C
F800007C
F800007C
F800007C
0000007C
0000007C
0000007C
0000007C
0000007C
0000007C
0000007C
0000007C
0000007C
0000007C
000000FC
000001FC
00003FF8
00003FF8
00003FF0
00003FC0
00003E00
ENDCHAR
STARTCHAR 014B
ENCODING 331
SWIDTH 558 0
DWIDTH 31 0
BBX 23 42 4 -12
BITMAP
001FC0
F0FFF0
F1FFF8
F3FFFC
F7C1FC
FF007E
FE003E
FC003E
FC003E
F8003E
F8003E
F8003E
F8003E
F8003E
F8003E
F8003E
F8003E
F8003E
F8003E
F8003E
F8003E
F8003E
F8003E
F8003E
F8003E
F8003E
F8003E
F8003E
F8003E
F8003E
00003E
00003E
00003E
00003E
00003E
00003E
00003E
00007E
0003FE
0003FC
0003F8
0003E0
ENDCHAR
STARTCHAR 014C
ENCODING 332
SWIDTH 774 0
DWIDTH 43 0
BBX 39 52 2 -1
BITMAP
000FFFE000
000FFFE000
000FFFE000
000FFFE000
0000000000
0000000000
0000000000
0000000000
0000000000
0001FF0000
000FFFF000
003FFFFC00
00FFFFFE00
01FFFFFF80
03FC007FC0
07F0001FC0
0FE0000FE0
0FC00007F0
1F800003F0
1F000001F8
3F000000F8
3E000000FC
7E0000007C
7C0000007C
7C0000007E
7C0000003E
FC0000003E
F80000003E
F80000003E
F80000003E
F80000003E
F80000003E
F80000003E
F80000003E
FC0000003E
7C0000003E
7C0000007E
7C0000007C
7E0000007C
3E000000FC
3F000000F8
3F000001F8
1F800003F0
0FC00007F0
0FE0000FE0
07F0001FC0
03FE007F80
01FFFFFF00
00FFFFFE00
003FFFFC00
000FFFF000
0001FF0000
ENDCHAR
STARTCHAR 014D
ENCODING 333
SWIDTH 558 0
DWIDTH 31 0
BBX 26 40 2 -1
BITMAP
03FFF800
03FFF800
03FFF800
03FFF800
00000000
00000000
00000000
00000000
00000000
007F8000
01FFF000
07FFF800
0FFFFC00
1FE1FE00
1F807F00
3F001F80
7E001F80
7C000F80
7C000FC0
7C0007C0
F80007C0
F80007C0
F80007C0
F80007C0
F80007C0
F80007C0
F80007C0
F80007C0
F80007C0
7C0007C0
7C0007C0
7C000F80
7E001F80
3F001F00
3F803F00
1FE1FE00
0FFFFC00
07FFF800
01FFF000
007F8000
ENDCHAR
STARTCHAR 014E
ENCODING 334
SWIDTH 774 0
DWIDTH 43 0
BBX 39 54 2 -1
BITMAP
001C007000
001E00F000
001E00F000
000F01E000
000FFFE000
0007FFC000
0003FF8000
0000FE0000
0000000000
0000000000
0000000000
0001FF0000
000FFFF000
003FFFFC00
00FFFFFE00
01FFFFFF80
03FC007FC0
07F0001FC0
0FE0000FE0
0FC00007F0
1F800003F0
1F000001F8
3F000000F8
3E000000FC
7E0000007C
7C0000007C
7C0000007E
7C0000003E
FC0000003E
F80000003E
F80000003E
F80000003E
F80000003E
F80000003E
F80000003E
F80000003E
FC0000003E
7C0000003E
7C0000007E
7C0000007C
7E0000007C
3E000000FC
3F000000F8
3F000001F8
1F800003F0
0FC00007F0
0FE0000FE0
07F0001FC0
03FE007F80
01FFFFFF00
00FFFFFE00
003FFFFC00
000FFFF000
0001FF0000
ENDCHAR
STARTCHAR 014F
ENCODING 335
SWIDTH 558 0
DWIDTH 31 0
BBX 26 42 2 -1
BITMAP
07003800
07003800
07807800
07C0F800
03FFF000
01FFE000
00FFC000
003F0000
00000000
00000000
00000000
007F8000
01FFF000
07FFF800
0FFFFC00
1FE1FE00
1F807F00
3F001F80
7E001F80
7C000F80
7C000FC0
7C0007C0
F80007C0
F80007C0
F80007C0
F80007C0
F80007C0
F80007C0
F80007C0
F80007C0
F80007C0
7C0007C0
7C0007C0
7C000F80
7E001F80
3F001F00
3F803F00
1FE1FE00
0FFFFC00
07FFF800
01FFF000
007F8000
ENDCHAR
STARTCHAR 0150
ENCODING 336
SWIDTH 774 0
DWIDTH 43 0
BBX 39 54 2 -1
BITMAP
00003F0FC0
00007E1F80
00007C3F00
0000F83E00
0001F07C00
0001E0F800
0003C0F000
000781E000
0000000000
0000000000
0000000000
0001FF0000
000FFFF000
003FFFFC00
00FFFFFE00
01FFFFFF80
03FC007FC0
07F0001FC0
0FE0000FE0
0FC00007F0
1F800003F0
1F000001F8
3F000000F8
3E000000FC
7E0000007C
7C0000007C
7C0000007E
7C0000003E
FC0000003E
F80000003E
F80000003E
F80000003E
F80000003E
F80000003E
F80000003E
F80000003E
FC0000003E
7C0000003E
7C0000007E
7C0000007C
7E0000007C
3E000000FC
3F000000F8
3F000001F8
1F800003F0
0FC00007F0
0FE0000FE0
07F0001FC0
03FE007F80
01FFFFFF00
00FFFFFE00
003FFFFC00
000FFFF000
0001FF0000
ENDCHAR
STARTCHAR 0151
ENCODING 337
SWIDTH 558 0
DWIDTH 31 0
BBX 27 43 2 -1
BITMAP
001F87E0
003F0FC0
003E1F80
007C1F00
00783E00
00F03C00
01F07800
01E0F000
03C0E000
00000000
00000000
00000000
007F8000
01FFF000
07FFF800
0FFFFC00
1FE1FE00
1F807F00
3F001F80
7E001F80
7C000F80
7C000FC0
7C0007C0
F80007C0
F80007C0
F80007C0
F80007C0
F80007C0
F80007C0
F80007C0
F80007C0
F80007C0
7C0007C0
7C0007C0
7C000F80
7E001F80
3F001F00
3F803F00
1FE1FE00
0FFFFC00
07FFF800
01FFF000
007F8000
ENDCHAR
STARTCHAR 0152
ENCODING 338
SWIDTH 1008 0
DWIDTH 56 0
BBX 51 43 2 -1
BITMAP
0007F800000000
003FFE1FFFFFE0
00FFFF9FFFFFE0
01FFFFDFFFFFE0
03FFFFFFFFFFE0
07F003FFFFFFE0
0FE001FF000000
0FC000FF000000
1F80007F000000
1F00003F000000
3F00001F000000
3E00001F000000
3E00001F000000
7C00001F000000
7C00001F000000
7C00001F000000
7C00001F000000
7C00001F000000
7C00001F000000
FC00001FFFFFE0
FC00001FFFFFE0
FC00001FFFFFE0
FC00001FFFFFE0
FC00001FFFFFE0
FC00001F000000
7C00001F000000
7C00001F000000
7C00001F000000
7C00001F000000
7C00001F000000
7E00001F000000
3E00001F000000
3F00001F000000
3F00003F000000
1F80007F000000
0FC0007F000000
0FE001FF000000
07F003FFFFFFE0
03FFFFFFFFFFE0
01FFFFDFFFFFE0
00FFFF9FFFFFE0
003FFE1FFFFFE0
0007F800000000
ENDCHAR
STARTCHAR 0153
ENCODING 339
SWIDTH 936 0
DWIDTH 52 0
BBX 48 31 2 -1
BITMAP
007F8001FE00
01FFF007FF80
07FFF81FFFE0
0FFFFE3FFFF0
1FE1FE7F87F8
1F803F7E01FC
3F001FF800FC
3E000FF0007E
7E000FF0003E
7C0007E0003E
7C0007E0001F
780007E0001F
F80003E0001F
F80003FFFFFF
F80003FFFFFF
F80003FFFFFF
F80003FFFFFF
F80003E00000
F80003E00000
7C0007E00000
7C0007E00000
7C0007E0003E
7E000FF0003E
3E000FF0007E
3F001FF8007C
1F803FFE01FC
1FF1FE7F87F8
0FFFFC3FFFF0
07FFF81FFFE0
01FFF007FF80
007F8001FE00
ENDCHAR
STARTCHAR 0154
ENCODING 340
SWIDTH 720 0
DWIDTH 40 0
BBX 33 53 5 0
BITMAP
0000FC0000
0000F80000
0001F00000
0003E00000
0003C00000
0007800000
000F000000
000E000000
001C000000
0000000000
0000000000
0000000000
FFFFFE0000
FFFFFFC000
FFFFFFF000
FFFFFFF800
FFFFFFF800
F80001FC00
F80000FC00
F800007E00
F800007E00
F800003E00
F800003E00
F800003E00
F800003E00
F800003E00
F800007E00
F800007C00
F800007C00
F80000F800
F80003F000
FFFFFFE000
FFFFFFC000
FFFFFFC000
FFFFFFE000
FFFFFFF800
F80001F800
F80000FC00
F800007C00
F800007C00
F800007C00
F800007C00
F800007C00
F800007C00
F800007C00
F800007C00
F800007C00
F800007E00
F800007E00
F800003E00
F800003E00
F800003F00
F800003F80
ENDCHAR
STARTCHAR 0155
ENCODING 341
SWIDTH 342 0
DWIDTH 19 0
BBX 14 42 4 0
BITMAP
00FC
01F8
01F0
03E0
07C0
0780
0F00
0E00
1C00
0000
0000
0000
003C
F0FC
F1FC
F3FC
F7FC
F7C0
FF00
FE00
FC00
F800
F800
F800
F800
F800
F800
F800
F800
F800
F800
F800
F800
F800
F800
F800
F800
F800
F800
F800
F800
F800
ENDCHAR
STARTCHAR 0156
ENCODING 342
SWIDTH 720 0
DWIDTH 40 0
BBX 33 57 5 -16
BITMAP
FFFFFE0000
FFFFFFC000
FFFFFFF000
FFFFFFF800
FFFFFFF800
F80001FC00
F80000FC00
F800007E00
F800007E00
F800003E00
F800003E00
F800003E00
F800003E00
F800003E00
F800007E00
F800007C00
F800007C00
F80000F800
F80003F000
FFFFFFE000
FFFFFFC000
FFFFFFC000
FFFFFFE000
FFFFFFF800
F80001F800
F80000FC00
F800007C00
F800007C00
F800007C00
F800007C00
F800007C00
F800007C00
F800007C00
F800007C00
F800007C00
F800007E00
F800007E00
F800003E00
F800003E00
F800003F00
F800003F80
0000000000
0000000000
0000000000
0007C00000
0007C00000
0007C00000
0007C00000
0007C00000
0007C00000
0000C00000
0000C00000
0000C00000
0001C00000
0003800000
0007000000
0006000000
ENDCHAR
STARTCHAR 0157
ENCODING 343
SWIDTH 342 0
DWIDTH 19 0
BBX 14 46 4 -16
BITMAP
003C
F0FC
F1FC
F3FC
F7FC
F7C0
FF00
FE00
FC00
F800
F800
F800
F800
F800
F800
F800
F800
F800
F800
F800
F800
F800
F800
F800
F800
F800
F800
F800
F800
F800
0000
0000
0000
F800
F800
F800
F800
F800
F800
1800
1800
3800
3800
7000
E000
C000
ENDCHAR
STARTCHAR 0158
ENCODING 344
SWIDTH 720 0
DWIDTH 40 0
BBX 33 53 5 0
BITMAP
01E01E0000
00E03C0000
00F0780000
0078780000
003CF00000
003FE00000
001FE00000
001FC00000
000FC00000
0000000000
0000000000
0000000000
FFFFFE0000
FFFFFFC000
FFFFFFF000
FFFFFFF800
FFFFFFF800
F80001FC00
F80000FC00
F800007E00
F800007E00
F800003E00
F800003E00
F800003E00
F800003E00
F800003E00
F800007E00
F800007C00
F800007C00
F80000F800
F80003F000
FFFFFFE000
FFFFFFC000
FFFFFFC000
FFFFFFE000
FFFFFFF800
F80001F800
F80000FC00
F800007C00
F800007C00
F800007C00
F800007C00
F800007C00
F800007C00
F800007C00
F800007C00
F800007C00
F800007E00
F800007E00
F800003E00
F800003E00
F800003F00
F800003F80
ENDCHAR
STARTCHAR 0159
ENCODING 345
SWIDTH 342 0
DWIDTH 19 0
BBX 15 42 3 0
BITMAP
F00E
701E
783C
3C7C
3E78
1FF0
0FF0
0FE0
07E0
0000
0000
0000
001E
787E
78FE
79FE
7BFE
7BE0
7F80
7F00
7E00
7C00
7C00
7C00
7C00
7C00
7C00
7C00
7C00
7C00
7C00
7C00
7C00
7C00
7C00
7C00
7C00
7C00
7C00
7C00
7C00
7C00
ENDCHAR
STARTCHAR 015A
ENCODING 346
SWIDTH 666 0
DWIDTH 37 0
BBX 32 54 3 -1
BITMAP
00007E00
0000FC00
0001F800
0001F000
0003E000
0003C000
00078000
000F0000
00000000
00000000
00000000
001FF000
00FFFE00
03FFFF80
0FFFFFC0
0FFC7FE0
1FC007F0
3F0001F8
3E0000F8
7E0000FC
7C00007C
7C00007C
7C00007C
7C00007C
7E000000
7E000000
7F000000
3FC00000
3FF80000
1FFF8000
0FFFF000
03FFFF00
00FFFFC0
000FFFF0
0000FFF8
00001FFC
000003FC
000000FE
0000007E
0000003E
F800003E
F800003F
F800003E
F800003E
FC00003E
7C00007E
7E00007C
3F0000FC
3FC003F8
1FFFFFF0
0FFFFFE0
03FFFFC0
01FFFF00
001FF800
ENDCHAR
STARTCHAR 015B
ENCODING 347
SWIDTH 504 0
DWIDTH 28 0
BBX 24 43 2 -1
BITMAP
0007E0
000FC0
000F80
001F00
001E00
003C00
007800
007800
00F000
000000
000000
000000
00FF00
07FFC0
0FFFF0
1FFFF8
3FC7F8
7E00FC
7C007C
7C007C
78007C
7C0000
7C0000
7E0000
7FC000
3FFC00
1FFFC0
07FFF0
01FFF8
001FFC
0001FE
00007E
00003E
F8001F
F8001F
F8003E
FC003E
7E007E
7FC3FC
3FFFF8
1FFFF0
0FFFE0
01FF00
ENDCHAR
STARTCHAR 015C
ENCODING 348
SWIDTH 666 0
DWIDTH 37 0
BBX 32 54 3 -1
BITMAP
000FC000
000FE000
001FF000
003EF000
003C7800
00787C00
00703C00
00F01E00
00000000
00000000
00000000
001FF000
00FFFE00
03FFFF80
0FFFFFC0
0FFC7FE0
1FC007F0
3F0001F8
3E0000F8
7E0000FC
7C00007C
7C00007C
7C00007C
7C00007C
7E000000
7E000000
7F000000
3FC00000
3FF80000
1FFF8000
0FFFF000
03FFFF00
00FFFFC0
000FFFF0
0000FFF8
00001FFC
000003FC
000000FE
0000007E
0000003E
F800003E
F800003F
F800003E
F800003E
FC00003E
7C00007E
7E00007C
3F0000FC
3FC003F8
1FFFFFF0
0FFFFFE0
03FFFFC0
01FFFF00
001FF800
ENDCHAR
STARTCHAR 015D
ENCODING 349
SWIDTH 504 0
DWIDTH 28 0
BBX 24 43 2 -1
BITMAP
007E00
00FE00
00FF00
01FF80
01E780
03C3C0
0783C0
0781E0
0F00F0
000000
000000
000000
00FF00
07FFC0
0FFFF0
1FFFF8
3FC7F8
7E00FC
7C007C
7C007C
78007C
7C0000
7C0000
7E0000
7FC000
3FFC00
1FFFC0
07FFF0
01FFF8
001FFC
0001FE
00007E
00003E
F8001F
F8001F
F8003E
FC003E
7E007E
7FC3FC
3FFFF8
1FFFF0
0FFFE0
01FF00
ENDCHAR
STARTCHAR 015E
ENCODING 350
SWIDTH 666 0
DWIDTH 37 0
BBX 32 54 3 -12
BITMAP
001FF000
00FFFE00
03FFFF80
07FFFFE0
0FFC3FF0
1FC007F0
3F0001F8
3E0000F8
3E0000FC
7C00007C
7C00007C
7C00007C
7C00007C
7E000000
7E000000
3F000000
3FC00000
3FF80000
1FFF8000
0FFFF000
03FFFF00
00FFFFC0
000FFFF0
0001FFF8
00001FFC
000003FC
000000FE
0000007E
0000003E
F800003F
F800003F
F800003F
F800003F
FC00003E
7C00003E
7E00007E
3F0000FC
3FC001FC
1FFC3FF8
0FFFFFF0
07FFFFE0
01FFFF80
003FFC00
00070000
00060000
0007E000
000FF000
0000F800
00007800
00007800
00C0F800
01F1F000
00FFE000
001F8000
ENDCHAR
STARTCHAR 015F
ENCODING 351
SWIDTH 504 0
DWIDTH 28 0
BBX 24 42 2 -12
BITMAP
00FF00
07FFC0
0FFFF0
1FFFF8
3FC7F8
7E00FC
7C007C
7C007C
78007C
7C0000
7C0000
7E0000
7FC000
3FFC00
1FFF80
0FFFF0
01FFF8
001FFC
0001FE
00007E
00003E
F8001F
F8001E
F8001E
FC003E
7E007E
7F81FC
3FFFFC
1FFFF8
0FFFE0
03FF80
006000
006000
00FE00
00FF00
000F80
000F80
000780
0C0F00
1F1F00
0FFE00
03F800
ENDCHAR
STARTCHAR 0160
ENCODING 352
SWIDTH 666 0
DWIDTH 37 0
BBX 32 54 3 -1
BITMAP
00F01E00
00F01C00
00783C00
003C7800
003EF800
001FF000
000FE000
000FE000
00000000
00000000
00000000
001FF000
00FFFE00
03FFFF80
0FFFFFC0
0FFC7FE0
1FC007F0
3F0001F8
3E0000F8
7E0000FC
7C00007C
7C00007C
7C00007C
7C00007C
7E000000
7E000000
7F000000
3FC00000
3FF80000
1FFF8000
0FFFF000
03FFFF00
00FFFFC0
000FFFF0
0000FFF8
00001FFC
000003FC
000000FE
0000007E
0000003E
F800003E
F800003F
F800003E
F800003E
FC00003E
7C00007E
7E00007C
3F0000FC
3FC003F8
1FFFFFF0
0FFFFFE0
03FFFFC0
01FFFF00
001FF800
ENDCHAR
STARTCHAR 0161
ENCODING 353
SWIDTH 504 0
DWIDTH 28 0
BBX 24 43 2 -1
BITMAP
0F00E0
0701E0
0783C0
03C7C0
03E780
01FF00
00FF00
00FE00
007E00
000000
000000
000000
00FF00
07FFC0
0FFFF0
1FFFF8
3FC7F8
7E00FC
7C007C
7C007C
78007C
7C0000
7C0000
7E0000
7FC000
3FFC00
1FFFC0
07FFF0
01FFF8
001FFC
0001FE
00007E
00003E
F8001F
F8001F
F8003E
FC003E
7E007E
7FC3FC
3FFFF8
1FFFF0
0FFFE0
01FF00
ENDCHAR
STARTCHAR 0162
ENCODING 354
SWIDTH 612 0
DWIDTH 34 0
BBX 32 53 1 -12
BITMAP
FFFFFFFF
FFFFFFFF
FFFFFFFF
FFFFFFFF
FFFFFFFF
0007E000
0007E000
0007E000
0007E000
0007E000
0007E000
0007E000
0007E000
0007E000
0007E000
0007E000
0007E000
0007E000
0007E000
0007E000
0007E000
0007E000
0007E000
0007E000
0007E000
0007E000
0007E000
0007E000
0007E000
0007E000
0007E000
0007E000
0007E000
0007E000
0007E000
0007E000
0007E000
0007E000
0007E000
0007E000
0007E000
0000C000
0001C000
00018000
0001F800
0003FC00
00023E00
00001E00
00001E00
00303E00
007C7C00
003FF800
0007E000
ENDCHAR
STARTCHAR 0163
ENCODING 355
SWIDTH 270 0
DWIDTH 15 0
BBX 13 48 1 -11
BITMAP
0F00
0F00
0F00
0F00
0F00
0F00
0F00
0F00
FFF8
FFF8
FFF8
FFF8
0F00
0F00
0F00
0F00
0F00
0F00
0F00
0F00
0F00
0F00
0F00
0F00
0F00
0F00
0F00
0F00
0F00
0F00
0F00
0F00
0F00
0F80
0FF8
0FF8
07F8
03F8
0300
0600
07F0
0FF8
0078
0078
0078
F0F8
FFF0
3FC0
ENDCHAR
STARTCHAR 0164
ENCODING 356
SWIDTH 612 0
DWIDTH 34 0
BBX 32 53 1 0
BITMAP
00F00F00
00781E00
00381E00
003C3C00
001E7800
001FF800
000FF000
0007E000
0007E000
00000000
00000000
00000000
FFFFFFFF
FFFFFFFF
FFFFFFFF
FFFFFFFF
FFFFFFFF
0007E000
0007E000
0007E000
0007E000
0007E000
0007E000
0007E000
0007E000
0007E000
0007E000
0007E000
0007E000
0007E000
0007E000
0007E000
0007E000
0007E000
0007E000
0007E000
0007E000
0007E000
0007E000
0007E000
0007E000
0007E000
0007E000
0007E000
0007E000
0007E000
0007E000
0007E000
0007E000
0007E000
0007E000
0007E000
0007E000
ENDCHAR
STARTCHAR 0165
ENCODING 357
SWIDTH 324 0
DWIDTH 18 0
BBX 17 46 1 -1
BITMAP
001F80
001F80
001F80
001F80
001F80
001F80
000380
000380
0F0380
0F0300
0F0700
0F1E00
0F1C00
0F0000
0F0000
0F0000
FFF800
FFF800
FFF800
FFF800
0F0000
0F0000
0F0000
0F0000
0F0000
0F0000
0F0000
0F0000
0F0000
0F0000
0F0000
0F0000
0F0000
0F0000
0F0000
0F0000
0F0000
0F0000
0F0000
0F0000
0F0000
0F8000
0FF800
0FF800
07F800
03F800
ENDCHAR
STARTCHAR 0166
ENCODING 358
SWIDTH 612 0
DWIDTH 34 0
BBX 32 41 1 0
BITMAP
FFFFFFFF
FFFFFFFF
FFFFFFFF
FFFFFFFF
FFFFFFFF
0007E000
0007E000
0007E000
0007E000
0007E000
0007E000
0007E000
0007E000
0007E000
07FFFFF0
07FFFFF0
07FFFFF0
07FFFFF0
0007E000
0007E000
0007E000
0007E000
0007E000
0007E000
0007E000
0007E000
0007E000
0007E000
0007E000
0007E000
0007E000
0007E000
0007E000
0007E000
0007E000
0007E000
0007E000
0007E000
0007E000
0007E000
0007E000
ENDCHAR
STARTCHAR 0167
ENCODING 359
SWIDTH 270 0
DWIDTH 15 0
BBX 13 38 1 -1
BITMAP
0F00
0F00
0F00
0F00
0F00
0F00
0F00
0F00
FFF8
FFF8
FFF8
FFF8
0F00
0F00
0F00
0F00
FFF8
FFF8
FFF8
0F00
0F00
0F00
0F00
0F00
0F00
0F00
0F00
0F00
0F00
0F00
0F00
0F00
0F00
0F80
0FF8
0FF8
07F8
03F8
ENDCHAR
STARTCHAR 0168
ENCODING 360
SWIDTH 720 0
DWIDTH 40 0
BBX 31 53 5 -1
BITMAP
00380F00
00FE0E00
01FFFE00
01FFFE00
03C7FC00
0380F800
00000000
00000000
00000000
00000000
00000000
F800003E
F800003E
F800003E
F800003E
F800003E
F800003E
F800003E
F800003E
F800003E
F800003E
F800003E
F800003E
F800003E
F800003E
F800003E
F800003E
F800003E
F800003E
F800003E
F800003E
F800003E
F800003E
F800003E
F800003E
F800003E
F800003E
F800003E
F800003E
F800003E
F800003E
F800003E
F800007E
FC00007C
7C0000FC
7E0000FC
7F0003F8
3FC007F0
1FFFFFF0
0FFFFFC0
07FFFF80
01FFFE00
003FF000
ENDCHAR
STARTCHAR 0169
ENCODING 361
SWIDTH 558 0
DWIDTH 31 0
BBX 23 41 4 -1
BITMAP
07C070
0FF0F0
0FFFE0
1FFFE0
1C3FC0
1C0700
000000
000000
000000
000000
000000
F0003E
F0003E
F0003E
F0003E
F0003E
F0003E
F0003E
F0003E
F0003E
F0003E
F0003E
F0003E
F0003E
F0003E
F0003E
F0003E
F0003E
F0003E
F0003E
F0003E
F0003E
F0007E
F8007E
F800FE
FC01FE
FF07DE
7FFF9E
3FFF1E
1FFE1E
07F800
ENDCHAR
STARTCHAR 016A
ENCODING 362
SWIDTH 720 0
DWIDTH 40 0
BBX 31 52 5 -1
BITMAP
00FFFE00
00FFFE00
00FFFE00
00FFFE00
00000000
00000000
00000000
00000000
00000000
00000000
F800003E
F800003E
F800003E
F800003E
F800003E
F800003E
F800003E
F800003E
F800003E
F800003E
F800003E
F800003E
F800003E
F800003E
F800003E
F800003E
F800003E
F800003E
F800003E
F800003E
F800003E
F800003E
F800003E
F800003E
F800003E
F800003E
F800003E
F800003E
F800003E
F800003E
F800003E
F800007E
FC00007C
7C0000FC
7E0000FC
7F0003F8
3FC007F0
1FFFFFF0
0FFFFFC0
07FFFF80
01FFFE00
003FF000
ENDCHAR
STARTCHAR 016B
ENCODING 363
SWIDTH 558 0
DWIDTH 31 0
BBX 23 40 4 -1
BITMAP
0FFFE0
0FFFE0
0FFFE0
0FFFE0
000000
000000
000000
000000
000000
000000
F0003E
F0003E
F0003E
F0003E
F0003E
F0003E
F0003E
F0003E
F0003E
F0003E
F0003E
F0003E
F0003E
F0003E
F0003E
F0003E
F0003E
F0003E
F0003E
F0003E
F0003E
F0007E
F8007E
F800FE
FC01FE
FF07DE
7FFF9E
3FFF1E
1FFE1E
07F800
ENDCHAR
STARTCHAR 016C
ENCODING 364
SWIDTH 720 0
DWIDTH 40 0
BBX 31 54 5 -1
BITMAP
01C00E00
01C00E00
01E01E00
01F03E00
00FFFC00
00FFFC00
007FF000
001FC000
00000000
00000000
00000000
00000000
F800003E
F800003E
F800003E
F800003E
F800003E
F800003E
F800003E
F800003E
F800003E
F800003E
F800003E
F800003E
F800003E
F800003E
F800003E
F800003E
F800003E
F800003E
F800003E
F800003E
F800003E
F800003E
F800003E
F800003E
F800003E
F800003E
F800003E
F800003E
F800003E
F800003E
F800003E
F800007E
FC00007C
7C0000FC
7E0000FC
7F0003F8
3FC007F0
1FFFFFF0
0FFFFFC0
07FFFF80
01FFFE00
003FF000
ENDCHAR
STARTCHAR 016D
ENCODING 365
SWIDTH 558 0
DWIDTH 31 0
BBX 23 42 4 -1
BITMAP
1C00F0
1E00F0
1E00E0
0F83E0
0FFFE0
07FFC0
03FF80
00FC00
000000
000000
000000
000000
F0003E
F0003E
F0003E
F0003E
F0003E
F0003E
F0003E
F0003E
F0003E
F0003E
F0003E
F0003E
F0003E
F0003E
F0003E
F0003E
F0003E
F0003E
F0003E
F0003E
F0003E
F0007E
F8007E
F800FE
FC01FE
FF07DE
7FFF9E
3FFF1E
1FFE1E
07F800
ENDCHAR
STARTCHAR 016E
ENCODING 366
SWIDTH 720 0
DWIDTH 40 0
BBX 31 54 5 -1
BITMAP
000FC000
001FE000
001C7000
00383000
00383000
00383000
001C7000
001FE000
000FC000
00000000
00000000
00000000
F800003E
F800003E
F800003E
F800003E
F800003E
F800003E
F800003E
F800003E
F800003E
F800003E
F800003E
F800003E
F800003E
F800003E
F800003E
F800003E
F800003E
F800003E
F800003E
F800003E
F800003E
F800003E
F800003E
F800003E
F800003E
F800003E
F800003E
F800003E
F800003E
F800003E
F800003E
F800007E
FC00007C
7C0000FC
7E0000FC
7F0003F8
3FC007F0
1FFFFFF0
0FFFFFC0
07FFFF80
01FFFE00
003FF000
ENDCHAR
STARTCHAR 016F
ENCODING 367
SWIDTH 558 0
DWIDTH 31 0
BBX 23 43 4 -1
BITMAP
007800
00FE00
01FF00
018700
038300
038300
018700
01EE00
00FE00
007800
000000
000000
000000
F0003E
F0003E
F0003E
F0003E
F0003E
F0003E
F0003E
F0003E
F0003E
F0003E
F0003E
F0003E
F0003E
F0003E
F0003E
F0003E
F0003E
F0003E
F0003E
F0003E
F0003E
F0007E
F8007E
F800FE
FC01FE
FF07DE
7FFF9E
3FFF1E
1FFE1E
07F800
ENDCHAR
STARTCHAR 0170
ENCODING 368
SWIDTH 720 0
DWIDTH 40 0
BBX 31 54 5 -1
BITMAP
0007E1F8
0007C3F0
000F83E0
001F07C0
001E0F80
003C0F00
00781E00
00703C00
00E03800
00000000
00000000
00000000
F800003E
F800003E
F800003E
F800003E
F800003E
F800003E
F800003E
F800003E
F800003E
F800003E
F800003E
F800003E
F800003E
F800003E
F800003E
F800003E
F800003E
F800003E
F800003E
F800003E
F800003E
F800003E
F800003E
F800003E
F800003E
F800003E
F800003E
F800003E
F800003E
F800003E
F800003E
F800007E
FC00007C
7C0000FC
7E0000FC
7F0003F8
3FC007F0
1FFFFFF0
0FFFFFC0
07FFFF80
01FFFE00
003FF000
ENDCHAR
STARTCHAR 0171
ENCODING 369
SWIDTH 558 0
DWIDTH 31 0
BBX 25 43 4 -1
BITMAP
007E1F80
007C3F00
00F83E00
01F07C00
01E0F800
03C0F000
0781E000
0703C000
0F038000
00000000
00000000
00000000
00000000
F0003E00
F0003E00
F0003E00
F0003E00
F0003E00
F0003E00
F0003E00
F0003E00
F0003E00
F0003E00
F0003E00
F0003E00
F0003E00
F0003E00
F0003E00
F0003E00
F0003E00
F0003E00
F0003E00
F0003E00
F0003E00
F0007E00
F8007E00
F800FE00
FC01FE00
FF07DE00
7FFF9E00
3FFF1E00
1FFE1E00
07F80000
ENDCHAR
STARTCHAR 0172
ENCODING 370
SWIDTH 720 0
DWIDTH 40 0
BBX 31 52 5 -11
BITMAP
F800003E
F800003E
F800003E
F800003E
F800003E
F800003E
F800003E
F800003E
F800003E
F800003E
F800003E
F800003E
F800003E
F800003E
F800003E
F800003E
F800003E
F800003E
F800003E
F800003E
F800003E
F800003E
F800003E
F800003E
F800003E
F800003E
F800003E
F800003E
F800003E
F800003E
F800003E
F800007E
FC00007C
7C0000FC
7E0000FC
7F0003F8
3FC007F8
1FFFFFF0
0FFFFFE0
07FFFFC0
01FFFF80
003FF700
00001E00
00003C00
00007C00
00007800
00007800
00007800
00007C00
00003FF0
00001FF0
000007F0
ENDCHAR
STARTCHAR 0173
ENCODING 371
SWIDTH 558 0
DWIDTH 31 0
BBX 25 40 4 -11
BITMAP
F0003E00
F0003E00
F0003E00
F0003E00
F0003E00
F0003E00
F0003E00
F0003E00
F0003E00
F0003E00
F0003E00
F0003E00
F0003E00
F0003E00
F0003E00
F0003E00
F0003E00
F0003E00
F0003E00
F0003E00
F0003E00
F0007E00
F8007E00
F800FE00
FC01FE00
FF07DE00
7FFF9E00
3FFF1E00
1FFE1E00
07F81C00
00007800
0000F000
0001E000
0001E000
0001E000
0001E000
0001E000
0001FD80
0000FF80
00003F80
ENDCHAR
STARTCHAR 0174
ENCODING 372
SWIDTH 936 0
DWIDTH 52 0
BBX 50 53 1 0
BITMAP
000003F0000000
000003F0000000
000007F8000000
00000FFC000000
00000F3C000000
00001E1E000000
00003C0F000000
00003C07000000
00007807800000
00000000000000
00000000000000
00000000000000
FC0003F00007C0
7C0003F8000FC0
7E0003F8000FC0
7E0003F8000FC0
7E0007F8000F80
3E0007FC000F80
3E0007FC001F80
3F0007FC001F80
3F000FBE001F00
1F000FBE001F00
1F000F3E003F00
1F801F3E003F00
1F801F1F003E00
0F801F1F003E00
0F801E1F003E00
0FC03E0F007E00
0FC03E0F807C00
07C03E0F807C00
07C03C0F807C00
07C07C07C0FC00
07E07C07C0F800
03E07C07C0F800
03E07803C0F800
03E0F803E0F800
03F0F803E1F000
01F0F003E1F000
01F1F001F1F000
01F1F001F1F000
01F9F001F3E000
00F9E001F3E000
00FBE000FBE000
00FBE000FBE000
00FBE000FBC000
007FC0007FC000
007FC0007FC000
007FC0007FC000
007F80007F8000
003F80003F8000
003F80003F8000
003F80003F8000
003F00003F0000
ENDCHAR
STARTCHAR 0175
ENCODING 373
SWIDTH 720 0
DWIDTH 40 0
BBX 39 42 0 0
BITMAP
00007E0000
0000FE0000
0000FF0000
0001FF0000
0003E78000
0003C3C000
000783C000
000701E000
000F00E000
0000000000
0000000000
0000000000
0000000000
FC007E003E
7C007E003E
7C00FE007E
7C00FF007C
3E00FF007C
3E00FF007C
3E01FF00F8
3E01EF80F8
1F01EF80F8
1F01EF80F8
1F03E781F0
0F03C7C1F0
0F83C7C1F0
0F83C7C1E0
0787C3C3E0
07C783E3E0
07C783E3C0
07C781E3C0
03CF81E7C0
03EF01F7C0
03EF01F780
01EF00F780
01FF00FF80
01FE00FF00
01FE00FF00
00FE007F00
00FE007E00
00FC007E00
007C007E00
ENDCHAR
STARTCHAR 0176
ENCODING 374
SWIDTH 666 0
DWIDTH 37 0
BBX 35 53 1 0
BITMAP
0001F80000
0001FC0000
0003FC0000
0007FE0000
00079E0000
000F0F0000
000E078000
001E038000
003C03C000
0000000000
0000000000
0000000000
FC000007E0
7E000007E0
7F00000FC0
3F00000FC0
1F80001F80
1F80003F00
0FC0003F00
0FE0007E00
07E0007E00
03F000FC00
03F001F800
01F801F800
00FC03F000
00FC03E000
007E07E000
007E07C000
003F0FC000
001F9F8000
001F9F0000
000FFF0000
0007FE0000
0007FE0000
0003FC0000
0003F80000
0001F80000
0001F80000
0001F80000
0001F80000
0001F80000
0001F80000
0001F80000
0001F80000
0001F80000
0001F80000
0001F80000
0001F80000
0001F80000
0001F80000
0001F80000
0001F80000
0001F80000
ENDCHAR
STARTCHAR 0177
ENCODING 375
SWIDTH 504 0
DWIDTH 28 0
BBX 25 54 1 -12
BITMAP
003F0000
007F0000
007F8000
00FFC000
00F3C000
01E1E000
03C1E000
03C0F000
07807800
00000000
00000000
00000000
00000000
F8000F80
7C000F80
7C000F80
7C001F00
3E001F00
3E001F00
3E003E00
1F003E00
1F003C00
1F007C00
0F807C00
0F80F800
0F80F800
07C0F800
07C1F000
07C1F000
03E1E000
03E3E000
03E3E000
01F3C000
01F7C000
01F7C000
00F78000
00FF8000
00FF0000
007F0000
007F0000
007E0000
003E0000
003E0000
007C0000
007C0000
007C0000
00F80000
00F80000
01F00000
3FF00000
3FE00000
3FE00000
3FC00000
3F000000
ENDCHAR
STARTCHAR 0178
ENCODING 376
SWIDTH 666 0
DWIDTH 37 0
BBX 35 51 1 0
BITMAP
001F0F8000
001F0F8000
001F0F8000
001F0F8000
001F0F8000
001F0F8000
0000000000
0000000000
0000000000
0000000000
FC000007E0
7E000007E0
7F00000FC0
3F00000FC0
1F80001F80
1F80003F00
0FC0003F00
0FE0007E00
07E0007E00
03F000FC00
03F001F800
01F801F800
00FC03F000
00FC03E000
007E07E000
007E07C000
003F0FC000
001F9F8000
001F9F0000
000FFF0000
0007FE0000
0007FE0000
0003FC0000
0003F80000
0001F80000
0001F80000
0001F80000
0001F80000
0001F80000
0001F80000
0001F80000
0001F80000
0001F80000
0001F80000
0001F80000
0001F80000
0001F80000
0001F80000
0001F80000
0001F80000
0001F80000
ENDCHAR
STARTCHAR 0179
ENCODING 377
SWIDTH 612 0
DWIDTH 34 0
BBX 30 53 2 0
BITMAP
00007E00
00007C00
0000F800
0001F000
0001E000
0003C000
00078000
00070000
000E0000
00000000
00000000
00000000
7FFFFFFC
7FFFFFFC
7FFFFFFC
7FFFFFFC
7FFFFFFC
000001FC
000003F8
000003F0
000007E0
00000FE0
00001FC0
00001F80
00003F00
00007F00
0000FE00
0000FC00
0001F800
0003F000
0007F000
000FE000
000FC000
001F8000
003F8000
007F0000
007E0000
00FC0000
01FC0000
03F80000
03F00000
07E00000
0FE00000
1FC00000
1F800000
3F000000
7F000000
FE000000
FFFFFFFC
FFFFFFFC
FFFFFFFC
FFFFFFFC
FFFFFFFC
ENDCHAR
STARTCHAR 017A
ENCODING 378
SWIDTH 504 0
DWIDTH 28 0
BBX 23 42 2 0
BITMAP
0007E0
0007C0
000F80
001F00
001F00
003E00
003C00
007800
00F000
000000
000000
000000
000000
7FFFFE
7FFFFE
7FFFFE
7FFFFE
00007C
0000F8
0001F8
0003F0
0007E0
0007C0
000F80
001F00
003F00
007E00
00FC00
00F800
01F000
03F000
07E000
0FC000
1F8000
1F0000
3E0000
7E0000
FC0000
FFFFFE
FFFFFE
FFFFFE
FFFFFE
ENDCHAR
STARTCHAR 017B
ENCODING 379
SWIDTH 612 0
DWIDTH 34 0
BBX 30 51 2 0
BITMAP
0007E000
0007E000
0007E000
0007E000
0007E000
0007E000
00000000
00000000
00000000
00000000
7FFFFFFC
7FFFFFFC
7FFFFFFC
7FFFFFFC
7FFFFFFC
000001FC
000003F8
000003F0
000007E0
00000FE0
00001FC0
00001F80
00003F00
00007F00
0000FE00
0000FC00
0001F800
0003F000
0007F000
000FE000
000FC000
001F8000
003F8000
007F0000
007E0000
00FC0000
01FC0000
03F80000
03F00000
07E00000
0FE00000
1FC00000
1F800000
3F000000
7F000000
FE000000
FFFFFFFC
FFFFFFFC
FFFFFFFC
FFFFFFFC
FFFFFFFC
ENDCHAR
STARTCHAR 017C
ENCODING 380
SWIDTH 504 0
DWIDTH 28 0
BBX 23 40 2 0
BITMAP
007E00
007E00
007E00
007E00
007E00
007E00
000000
000000
000000
000000
000000
7FFFFE
7FFFFE
7FFFFE
7FFFFE
00007C
0000F8
0001F8
0003F0
0007E0
0007C0
000F80
001F00
003F00
007E00
00FC00
00F800
01F000
03F000
07E000
0FC000
1F8000
1F0000
3E0000
7E0000
FC0000
FFFFFE
FFFFFE
FFFFFE
FFFFFE
ENDCHAR
STARTCHAR 017D
ENCODING 381
SWIDTH 612 0
DWIDTH 34 0
BBX 30 53 2 0
BITMAP
00E00F00
00F01E00
00783C00
003C7C00
003E7800
001FF000
000FF000
000FE000
0007C000
00000000
00000000
00000000
7FFFFFFC
7FFFFFFC
7FFFFFFC
7FFFFFFC
7FFFFFFC
000001FC
000003F8
000003F0
000007E0
00000FE0
00001FC0
00001F80
00003F00
00007F00
0000FE00
0000FC00
0001F800
0003F000
0007F000
000FE000
000FC000
001F8000
003F8000
007F0000
007E0000
00FC0000
01FC0000
03F80000
03F00000
07E00000
0FE00000
1FC00000
1F800000
3F000000
7F000000
FE000000
FFFFFFFC
FFFFFFFC
FFFFFFFC
FFFFFFFC
FFFFFFFC
ENDCHAR
STARTCHAR 017E
ENCODING 382
SWIDTH 504 0
DWIDTH 28 0
BBX 23 42 2 0
BITMAP
0F00F0
0781E0
0783C0
03C3C0
01E780
01FF80
00FF00
00FE00
007E00
000000
000000
000000
000000
7FFFFE
7FFFFE
7FFFFE
7FFFFE
00007C
0000F8
0001F8
0003F0
0007E0
0007C0
000F80
001F00
003F00
007E00
00FC00
00F800
01F000
03F000
07E000
0FC000
1F8000
1F0000
3E0000
7E0000
FC0000
FFFFFE
FFFFFE
FFFFFE
FFFFFE
ENDCHAR
STARTCHAR 017F
ENCODING 383
SWIDTH 216 0
DWIDTH 12 0
BBX 14 41 -1 0
BITMAP
00FC
03FC
03FC
07FC
07C0
0F80
0F80
0F80
0F80
0F80
0F80
0F80
FF80
FF80
FF80
FF80
0F80
0F80
0F80
0F80
0F80
0F80
0F80
0F80
0F80
0F80
0F80
0F80
0F80
0F80
0F80
0F80
0F80
0F80
0F80
0F80
0F80
0F80
0F80
0F80
0F80
ENDCHAR
STARTCHAR 0192
ENCODING 402
SWIDTH 558 0
DWIDTH 31 0
BBX 29 54 1 -12
BITMAP
000003F0
00000FF8
00001FF8
00003FF0
00007F70
0000FC00
0000F800
0000F800
0001F000
0001F000
0001F000
0001E000
0003E000
0003E000
0003E000
0003E000
01FFFF80
01FFFF80
01FFFF80
01FFFF80
0007C000
0007C000
00078000
000F8000
000F8000
000F8000
000F8000
000F8000
001F0000
001F0000
001F0000
001F0000
001F0000
001E0000
003E0000
003E0000
003E0000
003E0000
003C0000
007C0000
007C0000
007C0000
007C0000
007C0000
00F80000
00F80000
00F80000
01F00000
03F00000
CFE00000
FFC00000
FF800000
FF000000
FC000000
ENDCHAR
STARTCHAR 01FA
ENCODING 506
SWIDTH 666 0
DWIDTH 37 0
BBX 35 60 1 0
BITMAP
0003F00000
0007E00000
0007C00000
000F800000
001F000000
001E000000
003C000000
0079F80000
0003FC0000
00071C0000
00060C0000
00060C0000
00060C0000
00071C0000
0003F80000
0001F00000
0000000000
0000000000
0000000000
0003F80000
0003FC0000
0007FC0000
0007FC0000
0007FE0000
000FFE0000
000FBE0000
000FBF0000
001F9F0000
001F1F0000
001F1F8000
003F0F8000
003E0F8000
003E0FC000
007C07C000
007C07C000
007C07E000
00F803E000
00F803E000
00F803F000
01F001F000
01F001F800
03F001F800
03E000F800
03FFFFFC00
07FFFFFC00
07FFFFFC00
07FFFFFE00
0FC0007E00
0F80003E00
0F80003F00
1F80003F00
1F00001F00
1F00001F80
3F00001F80
3E00000F80
3E00000FC0
7E00000FC0
7C000007C0
FC000007E0
FC000007E0
ENDCHAR
STARTCHAR 01FB
ENCODING 507
SWIDTH 558 0
DWIDTH 31 0
BBX 28 51 2 -1
BITMAP
001F8000
003F0000
007E0000
007C0000
00F80000
01F00000
01E00000
03C00000
001F0000
003F8000
007BC000
0071C000
0060C000
0060C000
0070C000
007BC000
003F8000
001F0000
00000000
00000000
007FC000
03FFF800
07FFFC00
0FFFFE00
1FE1FF00
3F003F00
3E001F00
3E001F00
3C000F00
00000F00
00000F00
00001F00
00007F00
001FFF00
03FFFF00
0FFFEF00
1FFF0F00
3FC00F00
7E000F00
7C000F00
78000F00
F8000F00
F8001F00
F8001F00
7C003F00
7C00FF00
7F03FF80
3FFFEFF0
1FFFCFF0
0FFF07F0
03F803F0
ENDCHAR
STARTCHAR 01FC
ENCODING 508
SWIDTH 1008 0
DWIDTH 56 0
BBX 52 53 1 0
BITMAP
000000007E0000
00000000FC0000
00000000F80000
00000001F00000
00000003E00000
00000003C00000
00000007800000
0000000F000000
0000000E000000
00000000000000
00000000000000
00000000000000
0000FFFFFFFFE0
0000FFFFFFFFE0
0001FFFFFFFFE0
0001FFFFFFFFE0
0003FFFFFFFFE0
0003E07C000000
0003E07C000000
0007C07C000000
0007C07C000000
000FC07C000000
000F807C000000
000F807C000000
001F007C000000
001F007C000000
003F007C000000
003E007C000000
003E007C000000
007C007C000000
007C007FFFFFC0
00FC007FFFFFC0
00F8007FFFFFC0
00F8007FFFFFC0
01F8007FFFFFC0
01F0007C000000
03FFFFFC000000
03FFFFFC000000
07FFFFFC000000
07FFFFFC000000
07FFFFFC000000
0FC0007C000000
0F80007C000000
1F80007C000000
1F80007C000000
1F00007C000000
3F00007C000000
3E00007C000000
7E00007FFFFFF0
7E00007FFFFFF0
7C00007FFFFFF0
FC00007FFFFFF0
FC00007FFFFFF0
ENDCHAR
STARTCHAR 01FD
ENCODING 509
SWIDTH 882 0
DWIDTH 49 0
BBX 45 43 2 -1
BITMAP
000000FC0000
000001F80000
000003F00000
000003E00000
000007C00000
000007800000
00000F000000
00001E000000
00001C000000
000000000000
000000000000
000000000000
00FF8007F000
03FFE03FFC00
0FFFF8FFFF00
1FFFFDFFFF80
3FC1FFFC3FC0
3F003FF00FE0
3E001FC007E0
7C001F8003F0
7C001F8001F0
00001F0001F0
00001F0000F8
00001F0000F8
00007F0000F8
003FFFFFFFF8
03FFFFFFFFF8
0FFFFFFFFFF8
3FFE1FFFFFF8
7F801F000000
7E001F000000
FC001F000000
F8001F000000
F8001F0000F0
F8001F8001F0
F8003F8003F0
F8007FC003E0
FC00FBF00FE0
7F07F3FC3FC0
7FFFC1FFFF80
3FFF80FFFF00
0FFE003FFC00
03F8000FF000
ENDCHAR
STARTCHAR 01FE
ENCODING 510
SWIDTH 774 0
DWIDTH 43 0
BBX 39 54 2 -1
BITMAP
00001FC000
00001F0000
00003E0000
00007C0000
0000780000
0000F00000
0000E00000
0001C00000
0000000000
0000000000
0000000000
0001FF000E
000FFFF01E
003FFFFC3C
00FFFFFE78
01FFFFFFF0
03FC007FE0
07F0001FE0
0FE0000FE0
1FC00007F0
1F80000FF0
3F00001FF8
3F00003CF8
7E000078FC
7E0000F0FC
7C0001E07C
7C0003C07C
FC0007807E
F80007803E
F8000F003E
F8001E003E
F8003C003E
F80078003E
F800F0003E
F801E0003E
F803C0003E
F80780003E
FC0F00007E
7C0F00007C
7C1E00007C
7E3C0000FC
7E780000FC
3FF00000F8
3FE00001F8
1FC00003F0
1FC00007F0
0FE0000FE0
1FF0001FC0
1FFC007F80
3DFFFFFF00
78FFFFFE00
F07FFFF800
601FFFE000
0001FF0000
ENDCHAR
STARTCHAR 01FF
ENCODING 511
SWIDTH 612 0
DWIDTH 34 0
BBX 28 43 1 -1
BITMAP
0001F800
0003F000
0007E000
0007C000
000F8000
001F0000
001E0000
003C0000
00000000
00000000
00000000
00000000
003FC020
00FFF870
03FFFCF0
07FFFFE0
0FF0FFC0
0FC03F80
1F800F80
3F000FC0
3E001FC0
3E003BE0
3E0073E0
7C00F3E0
7C01E3E0
7C01C3E0
7C0383E0
7C0703E0
7C0E03E0
7C1C03E0
7C3803E0
7C7003E0
7EE003E0
3FE003E0
3FC007C0
3F800FC0
1F800F80
0FC01F80
1FF0FF00
3FFFFE00
73FFFC00
E0FFF800
603FC000
ENDCHAR
STARTCHAR 0218
ENCODING 536
SWIDTH 666 0
DWIDTH 37 0
BBX 32 57 3 -16
BITMAP
001FF000
00FFFE00
03FFFF80
0FFFFFC0
0FFC7FE0
1FC007F0
3F0001F8
3E0000F8
7E0000FC
7C00007C
7C00007C
7C00007C
7C00007C
7E000000
7E000000
7F000000
3FC00000
3FF80000
1FFF8000
0FFFF000
03FFFF00
00FFFFC0
000FFFF0
0000FFF8
00001FFC
000003FC
000000FE
0000007E
0000003E
F800003E
F800003F
F800003E
F800003E
FC00003E
7C00007E
7E00007C
3F0000FC
3FC003F8
1FFFFFF0
0FFFFFE0
03FFFFC0
01FFFF00
001FF800
00000000
00000000
0007E000
0007E000
0007E000
0007E000
0007E000
0007E000
0000E000
0000E000
0000C000
0001C000
00078000
00070000
ENDCHAR
STARTCHAR 0219
ENCODING 537
SWIDTH 504 0
DWIDTH 28 0
BBX 24 45 2 -16
BITMAP
00FF00
07FFC0
0FFFF0
1FFFF8
3FC7F8
7E00FC
7C007C
7C007C
78007C
7C0000
7C0000
7E0000
7FC000
3FFC00
1FFFC0
07FFF0
01FFF8
001FFC
0001FE
00007E
00003E
F8001F
F8001F
F8003E
FC003E
7E007E
7FC3FC
3FFFF8
1FFFF0
0FFFE0
01FF00
000000
000000
007E00
007E00
007E00
007E00
007E00
007E00
000C00
000C00
000C00
001C00
007800
007000
ENDCHAR
STARTCHAR 021A
ENCODING 538
SWIDTH 612 0
DWIDTH 34 0
BBX 32 57 1 -16
BITMAP
FFFFFFFF
FFFFFFFF
FFFFFFFF
FFFFFFFF
FFFFFFFF
0007E000
0007E000
0007E000
0007E000
0007E000
0007E000
0007E000
0007E000
0007E000
0007E000
0007E000
0007E000
0007E000
0007E000
0007E000
0007E000
0007E000
0007E000
0007E000
0007E000
0007E000
0007E000
0007E000
0007E000
0007E000
0007E000
0007E000
0007E000
0007E000
0007E000
0007E000
0007E000
0007E000
0007E000
0007E000
0007E000
00000000
00000000
00000000
0007E000
0007E000
0007E000
0007E000
0007E000
0007E000
00006000
0000E000
0000E000
0000C000
0001C000
00078000
00070000
ENDCHAR
STARTCHAR 021B
ENCODING 539
SWIDTH 270 0
DWIDTH 15 0
BBX 13 52 1 -16
BITMAP
0F00
0F00
0F00
0F00
0F00
0F00
0F00
0F00
FFF8
FFF8
FFF8
FFF8
0F00
0F00
0F00
0F00
0F00
0F00
0F00
0F00
0F00
0F00
0F00
0F00
0F00
0F00
0F00
0F00
0F00
0F00
0F00
0F00
0F00
0F80
0FF8
0FF8
07F8
03F8
0000
0000
07E0
07E0
07E0
07E0
07E0
07E0
00E0
00E0
00C0
01C0
0780
0700
ENDCHAR
STARTCHAR 02C6
ENCODING 710
SWIDTH 342 0
DWIDTH 19 0
BBX 15 8 2 34
BITMAP
0FC0
1FE0
1FE0
3FF0
3CF8
7878
F03C
E01E
ENDCHAR
STARTCHAR 02C7
ENCODING 711
SWIDTH 342 0
DWIDTH 19 0
BBX 16 8 1 34
BITMAP
F00F
781E
3C3C
3E3C
1E78
0FF0
0FF0
07E0
ENDCHAR
STARTCHAR 02C9
ENCODING 713
SWIDTH 342 0
DWIDTH 19 0
BBX 15 4 2 35
BITMAP
FFFE
FFFE
FFFE
FFFE
ENDCHAR
STARTCHAR 02D8
ENCODING 728
SWIDTH 342 0
DWIDTH 19 0
BBX 17 8 1 33
BITMAP
E00780
F00700
F00F00
FC1F00
7FFE00
3FFE00
1FF800
07E000
ENDCHAR
STARTCHAR 02D9
ENCODING 729
SWIDTH 342 0
DWIDTH 19 0
BBX 6 6 6 34
BITMAP
FC
FC
FC
FC
FC
FC
ENDCHAR
STARTCHAR 02DA
ENCODING 730
SWIDTH 342 0
DWIDTH 19 0
BBX 10 10 4 32
BITMAP
1E00
3F80
7FC0
61C0
E0C0
E0C0
61C0
7BC0
3F80
1E00
ENDCHAR
STARTCHAR 02DB
ENCODING 731
SWIDTH 342 0
DWIDTH 19 0
BBX 12 12 3 -12
BITMAP
0F80
1E00
3C00
7800
F000
F000
F000
F800
7C00
7FF0
1FF0
0100
ENDCHAR
STARTCHAR 02DC
ENCODING 732
SWIDTH 342 0
DWIDTH 19 0
BBX 18 6 0 34
BITMAP
1F03C0
3FC380
7FFF80
7FFF80
70FF00
F01C00
ENDCHAR
STARTCHAR 02DD
ENCODING 733
SWIDTH 342 0
DWIDTH 19 0
BBX 20 8 -1 34
BITMAP
0FC3F0
1F87E0
1F0FC0
3E0F80
3C1F00
781E00
F03C00
E07800
ENDCHAR
STARTCHAR 0384
ENCODING 900
SWIDTH 342 0
DWIDTH 19 0
BBX 5 11 7 32
BITMAP
F8
F8
F8
F8
F8
F0
F0
70
70
60
60
ENDCHAR
STARTCHAR 0385
ENCODING 901
SWIDTH 342 0
DWIDTH 19 0
BBX 15 14 2 33
BITMAP
07C0
07C0
07C0
07C0
07C0
0780
0780
0380
FBBE
FB3E
F83E
F83E
F83E
F83E
ENDCHAR
STARTCHAR 0386
ENCODING 902
SWIDTH 666 0
DWIDTH 37 0
BBX 35 41 1 0
BITMAP
3E03F80000
3E03FC0000
3E07FC0000
3E07FC0000
3E07FE0000
3E0FFE0000
3C0FBE0000
1C0FBF0000
1C1F9F0000
1C1F1F0000
181F1F8000
003F0F8000
003E0F8000
003E0FC000
007C07C000
007C07C000
007C07E000
00F803E000
00F803E000
00F803F000
01F001F000
01F001F800
03F001F800
03E000F800
03FFFFFC00
07FFFFFC00
07FFFFFC00
07FFFFFE00
0FC0007E00
0F80003E00
0F80003F00
1F80003F00
1F00001F00
1F00001F80
3F00001F80
3E00000F80
3E00000FC0
7E00000FC0
7C000007C0
FC000007E0
FC000007E0
ENDCHAR
STARTCHAR 0387
ENCODING 903
SWIDTH 270 0
DWIDTH 15 0
BBX 6 6 6 13
BITMAP
FC
FC
FC
FC
FC
FC
ENDCHAR
STARTCHAR 0388
ENCODING 904
SWIDTH 792 0
DWIDTH 44 0
BBX 36 41 2 0
BITMAP
F1FFFFFFE0
F1FFFFFFE0
F1FFFFFFE0
F1FFFFFFE0
F1FFFFFFE0
F1F0000000
F1F0000000
E1F0000000
E1F0000000
61F0000000
61F0000000
01F0000000
01F0000000
01F0000000
01F0000000
01F0000000
01F0000000
01F0000000
01FFFFFFC0
01FFFFFFC0
01FFFFFFC0
01FFFFFFC0
01FFFFFFC0
01F0000000
01F0000000
01F0000000
01F0000000
01F0000000
01F0000000
01F0000000
01F0000000
01F0000000
01F0000000
01F0000000
01F0000000
01F0000000
01FFFFFFF0
01FFFFFFF0
01FFFFFFF0
01FFFFFFF0
01FFFFFFF0
ENDCHAR
STARTCHAR 0389
ENCODING 905
SWIDTH 846 0
DWIDTH 47 0
BBX 39 41 1 0
BITMAP
F8F800003E
F8F800003E
F8F800003E
F8F800003E
F8F800003E
F8F800003E
F0F800003E
70F800003E
70F800003E
70F800003E
60F800003E
00F800003E
00F800003E
00F800003E
00F800003E
00F800003E
00F800003E
00F800003E
00FFFFFFFE
00FFFFFFFE
00FFFFFFFE
00FFFFFFFE
00FFFFFFFE
00F800003E
00F800003E
00F800003E
00F800003E
00F800003E
00F800003E
00F800003E
00F800003E
00F800003E
00F800003E
00F800003E
00F800003E
00F800003E
00F800003E
00F800003E
00F800003E
00F800003E
00F800003E
ENDCHAR
STARTCHAR 038A
ENCODING 906
SWIDTH 378 0
DWIDTH 21 0
BBX 13 41 1 0
BITMAP
F8F8
F8F8
F8F8
F8F8
F8F8
78F8
78F8
70F8
70F8
70F8
30F8
00F8
00F8
00F8
00F8
00F8
00F8
00F8
00F8
00F8
00F8
00F8
00F8
00F8
00F8
00F8
00F8
00F8
00F8
00F8
00F8
00F8
00F8
00F8
00F8
00F8
00F8
00F8
00F8
00F8
00F8
ENDCHAR
STARTCHAR 038C
ENCODING 908
SWIDTH 774 0
DWIDTH 43 0
BBX 42 43 -1 -1
BITMAP
00003FE00000
F001FFFC0000
F007FFFF8000
F01FFFFFC000
F03FFFFFE000
F07F800FF000
F0FE0003F800
F1FC0001FC00
F3F80000FE00
63F000007E00
67E000003F00
67E000001F00
0FC000001F80
0FC000001F80
0F8000000F80
0F8000000F80
1F8000000FC0
1F00000007C0
1F00000007C0
1F00000007C0
1F00000007C0
1F00000007C0
1F00000007C0
1F00000007C0
1F00000007C0
1F00000007C0
1F8000000FC0
0F8000000F80
0F8000000F80
0FC000000F80
0FC000001F80
07E000001F00
07E000003F00
03F000007E00
03F80000FE00
01FC0001FC00
00FE0003F800
007F800FF000
003FFFFFE000
001FFFFFC000
0007FFFF8000
0001FFFC0000
00003FE00000
ENDCHAR
STARTCHAR 038E
ENCODING 910
SWIDTH 864 0
DWIDTH 48 0
BBX 42 41 2 0
BITMAP
F3F800000FC0
F1F800001F80
F0FC00003F80
F0FE00003F00
F07E00007E00
F07F00007E00
F03F0000FC00
F01F8000F800
701FC001F800
600FC003F000
6007E003F000
0007E007E000
0003F007C000
0003F00FC000
0001F81F8000
0000FC1F8000
0000FC3F0000
00007E3E0000
00003E7E0000
00003F7C0000
00001FFC0000
00001FF80000
00000FF00000
000007F00000
000007E00000
000003E00000
000003E00000
000003E00000
000003E00000
000003E00000
000003E00000
000003E00000
000003E00000
000003E00000
000003E00000
000003E00000
000003E00000
000003E00000
000003E00000
000003E00000
000003E00000
ENDCHAR
STARTCHAR 038F
ENCODING 911
SWIDTH 756 0
DWIDTH 42 0
BBX 41 42 -1 0
BITMAP
00003FC00000
F003FFFC0000
F00FFFFF0000
F01FFFFF8000
F03FFFFFC000
F0FF801FE000
F0FE0007F000
F1F80003F800
F3F00001FC00
63F00000FC00
67E000007E00
67C000007E00
0FC000003E00
0FC000003F00
0F8000001F00
0F8000001F00
0F8000001F00
0F8000001F00
1F8000001F00
1F8000001F00
1F8000001F00
0F8000001F00
0F8000001F00
0F8000001F00
0F8000001F00
0F8000003F00
0FC000003E00
07C000003E00
07C000003E00
07E000007C00
03E000007C00
01F00000F800
01F80001F000
00F80003F000
007E0007E000
003F000F8000
000F801F0000
1FFFE07FFF80
1FFFE07FFF80
1FFFE07FFF80
1FFFE07FFF80
1FFFE07FFF80
ENDCHAR
STARTCHAR 0390
ENCODING 912
SWIDTH 216 0
DWIDTH 12 0
BBX 15 47 -1 0
BITMAP
0780
0780
0780
0780
0780
0780
0780
0380
FB7E
FB7E
F87E
F87E
F87E
F87E
0000
0000
0000
0000
07C0
07C0
07C0
07C0
07C0
07C0
07C0
07C0
07C0
07C0
07C0
07C0
07C0
07C0
07C0
07C0
07C0
07C0
07C0
07C0
07C0
07C0
07C0
07C0
07C0
07C0
07C0
07C0
07C0
ENDCHAR
STARTCHAR 0391
ENCODING 913
SWIDTH 666 0
DWIDTH 37 0
BBX 35 41 1 0
BITMAP
0003F80000
0003FC0000
0007FC0000
0007FC0000
0007FE0000
000FFE0000
000FBE0000
000FBF0000
001F9F0000
001F1F0000
001F1F8000
003F0F8000
003E0F8000
003E0FC000
007C07C000
007C07C000
007C07E000
00F803E000
00F803E000
00F803F000
01F001F000
01F001F800
03F001F800
03E000F800
03FFFFFC00
07FFFFFC00
07FFFFFC00
07FFFFFE00
0FC0007E00
0F80003E00
0F80003F00
1F80003F00
1F00001F00
1F00001F80
3F00001F80
3E00000F80
3E00000FC0
7E00000FC0
7C000007C0
FC000007E0
FC000007E0
ENDCHAR
STARTCHAR 0392
ENCODING 914
SWIDTH 666 0
DWIDTH 37 0
BBX 31 41 4 0
BITMAP
FFFFF800
FFFFFF00
FFFFFF80
FFFFFFC0
FFFFFFE0
FC0007F0
FC0003F0
FC0001F8
FC0001F8
FC0000F8
FC0000F8
FC0000F8
FC0000F8
FC0001F0
FC0001F0
FC0003E0
FC0007E0
FFFFFFC0
FFFFFF00
FFFFFF00
FFFFFFC0
FFFFFFF0
FC0007F8
FC0001F8
FC0000FC
FC00007C
FC00007C
FC00007E
FC00007E
FC00007E
FC00007E
FC00007C
FC00007C
FC0000FC
FC0000FC
FC0003F8
FFFFFFF0
FFFFFFF0
FFFFFFE0
FFFFFF80
FFFFFE00
ENDCHAR
STARTCHAR 0393
ENCODING 915
SWIDTH 558 0
DWIDTH 31 0
BBX 26 41 4 0
BITMAP
FFFFFFC0
FFFFFFC0
FFFFFFC0
FFFFFFC0
FFFFFFC0
FC000000
FC000000
FC000000
FC000000
FC000000
FC000000
FC000000
FC000000
FC000000
FC000000
FC000000
FC000000
FC000000
FC000000
FC000000
FC000000
FC000000
FC000000
FC000000
FC000000
FC000000
FC000000
FC000000
FC000000
FC000000
FC000000
FC000000
FC000000
FC000000
FC000000
FC000000
FC000000
FC000000
FC000000
FC000000
FC000000
ENDCHAR
STARTCHAR 0394
ENCODING 916
SWIDTH 666 0
DWIDTH 37 0
BBX 38 41 0 0
BITMAP
0001F80000
0001FC0000
0001FC0000
0003FE0000
0003FE0000
0007FE0000
0007DF0000
0007DF0000
000FDF8000
000F8F8000
001F8F8000
001F0FC000
001F07C000
003F07E000
003E03E000
007E03E000
007E03F000
007C01F000
00FC01F800
00F800F800
01F800F800
01F800FC00
01F0007C00
03F0007E00
03E0003E00
07E0003E00
07E0003F00
07C0001F00
0FC0001F80
0F80000F80
0F80000FC0
1F80000FC0
1F000007C0
3F000007E0
3E000007E0
3E000003F0
7FFFFFFFF0
7FFFFFFFF0
FFFFFFFFF8
FFFFFFFFF8
FFFFFFFFFC
ENDCHAR
STARTCHAR 0395
ENCODING 917
SWIDTH 666 0
DWIDTH 37 0
BBX 29 41 5 0
BITMAP
FFFFFFF0
FFFFFFF0
FFFFFFF0
FFFFFFF0
FFFFFFF0
F8000000
F8000000
F8000000
F8000000
F8000000
F8000000
F8000000
F8000000
F8000000
F8000000
F8000000
F8000000
F8000000
FFFFFFE0
FFFFFFE0
FFFFFFE0
FFFFFFE0
FFFFFFE0
F8000000
F8000000
F8000000
F8000000
F8000000
F8000000
F8000000
F8000000
F8000000
F8000000
F8000000
F8000000
F8000000
FFFFFFF8
FFFFFFF8
FFFFFFF8
FFFFFFF8
FFFFFFF8
ENDCHAR
STARTCHAR 0396
ENCODING 918
SWIDTH 612 0
DWIDTH 34 0
BBX 30 41 2 0
BITMAP
7FFFFFFC
7FFFFFFC
7FFFFFFC
7FFFFFFC
7FFFFFFC
000001FC
000003F8
000003F0
000007E0
00000FE0
00001FC0
00001F80
00003F00
00007F00
0000FE00
0000FC00
0001F800
0003F000
0007F000
000FE000
000FC000
001F8000
003F8000
007F0000
007E0000
00FC0000
01FC0000
03F80000
03F00000
07E00000
0FE00000
1FC00000
1F800000
3F000000
7F000000
FE000000
FFFFFFFC
FFFFFFFC
FFFFFFFC
FFFFFFFC
FFFFFFFC
ENDCHAR
STARTCHAR 0397
ENCODING 919
SWIDTH 720 0
DWIDTH 40 0
BBX 31 41 5 0
BITMAP
F800003E
F800003E
F800003E
F800003E
F800003E
F800003E
F800003E
F800003E
F800003E
F800003E
F800003E
F800003E
F800003E
F800003E
F800003E
F800003E
F800003E
F800003E
FFFFFFFE
FFFFFFFE
FFFFFFFE
FFFFFFFE
FFFFFFFE
F800003E
F800003E
F800003E
F800003E
F800003E
F800003E
F800003E
F800003E
F800003E
F800003E
F800003E
F800003E
F800003E
F800003E
F800003E
F800003E
F800003E
F800003E
ENDCHAR
STARTCHAR 0398
ENCODING 920
SWIDTH 774 0
DWIDTH 43 0
BBX 39 43 2 -1
BITMAP
0001FF0000
000FFFF000
003FFFFC00
00FFFFFE00
01FFFFFF80
03FC007FC0
07F0001FC0
0FE0000FE0
1FC00007F0
1F800003F0
3F000001F8
3F000000F8
7E000000FC
7E0000007C
7C0000007C
7C0000007E
FC0000003E
F80000003E
F80000003E
F81FFFF03E
F81FFFF03E
F81FFFF03E
F81FFFF03E
F80000003E
F80000003E
FC0000003E
7C0000007E
7C0000007C
7C0000007C
7E0000007C
3E000000FC
3F000000F8
3F000001F8
1F800003F0
0FC00007F0
0FE0000FE0
07F0001FC0
03FE007F80
01FFFFFF00
00FFFFFE00
003FFFFC00
000FFFF000
0001FF0000
ENDCHAR
STARTCHAR 0399
ENCODING 921
SWIDTH 270 0
DWIDTH 15 0
BBX 5 41 6 0
BITMAP
F8
F8
F8
F8
F8
F8
F8
F8
F8
F8
F8
F8
F8
F8
F8
F8
F8
F8
F8
F8
F8
F8
F8
F8
F8
F8
F8
F8
F8
F8
F8
F8
F8
F8
F8
F8
F8
F8
F8
F8
F8
ENDCHAR
STARTCHAR 039A
ENCODING 922
SWIDTH 666 0
DWIDTH 37 0
BBX 32 41 4 0
BITMAP
FC00007F
FC0000FE
FC0001FC
FC0003F8
FC0007F0
FC000FE0
FC001FC0
FC003F80
FC007F00
FC00FE00
FC00FC00
FC01F800
FC03F000
FC07E000
FC0FC000
FC1F8000
FC3F0000
FC7F0000
FCFF8000
FDFFC000
FFF7C000
FFE7E000
FFC3F000
FF81F800
FF01F800
FE00FC00
FC007E00
FC007E00
FC003F00
FC001F80
FC001F80
FC000FC0
FC0007E0
FC0007E0
FC0003F0
FC0001F8
FC0001F8
FC0000FC
FC00007E
FC00007F
FC00003F
ENDCHAR
STARTCHAR 039B
ENCODING 923
SWIDTH 666 0
DWIDTH 37 0
BBX 35 41 1 0
BITMAP
0003F80000
0003FC0000
0007FC0000
0007FC0000
0007FE0000
000FFE0000
000FBE0000
000FBF0000
001F9F0000
001F1F0000
003F1F8000
003F0F8000
003E0F8000
007E0FC000
007E07C000
007C07C000
00FC07E000
00FC03E000
00F803E000
01F803F000
01F801F000
01F001F000
03F001F800
03F000F800
03E000FC00
07E000FC00
07E0007C00
07C0007E00
0FC0007E00
0FC0003E00
0F80003F00
1F80003F00
1F80001F00
3F00001F80
3F00001F80
3F00000F80
7E00000FC0
7E00000FC0
7E000007C0
FC000007E0
FC000007E0
ENDCHAR
STARTCHAR 039C
ENCODING 924
SWIDTH 828 0
DWIDTH 46 0
BBX 38 41 4 0
BITMAP
FF000001FC
FF000001FC
FF000003FC
FF800003FC
FF800003FC
FF800007FC
FFC00007FC
FFC00007FC
FBC0000FFC
FBE0000F7C
FBE0000F7C
F9E0001F7C
F9F0001E7C
F9F0001E7C
F8F0003E7C
F8F8003C7C
F8F8003C7C
F878007C7C
F87C00787C
F87C00787C
F83C00F87C
F83E00F07C
F83E00F07C
F81E01F07C
F81F01E07C
F81F01E07C
F80F03E07C
F80F83C07C
F80F83C07C
F80787C07C
F807C7807C
F807C7807C
F803CF807C
F803EF007C
F803EF007C
F801FF007C
F801FE007C
F801FE007C
F800FE007C
F800FE007C
F800FC007C
ENDCHAR
STARTCHAR 039D
ENCODING 925
SWIDTH 720 0
DWIDTH 40 0
BBX 32 41 4 0
BITMAP
FC00001F
FE00001F
FE00001F
FF00001F
FF80001F
FF80001F
FFC0001F
FFE0001F
FBE0001F
FBF0001F
F9F0001F
F9F8001F
F8FC001F
F87C001F
F87E001F
F83F001F
F81F001F
F81F801F
F80FC01F
F80FC01F
F807E01F
F803E01F
F803F01F
F801F81F
F800F81F
F800FC1F
F8007E1F
F8003E1F
F8003F1F
F8001F1F
F8001F9F
F8000FDF
F80007DF
F80007FF
F80003FF
F80001FF
F80001FF
F80000FF
F80000FF
F800007F
F800003F
ENDCHAR
STARTCHAR 039E
ENCODING 926
SWIDTH 648 0
DWIDTH 36 0
BBX 29 41 4 0
BITMAP
FFFFFFF8
FFFFFFF8
FFFFFFF8
FFFFFFF8
FFFFFFF8
00000000
00000000
00000000
00000000
00000000
00000000
00000000
00000000
00000000
00000000
00000000
00000000
00000000
7FFFFFE0
7FFFFFE0
7FFFFFE0
7FFFFFE0
7FFFFFE0
00000000
00000000
00000000
00000000
00000000
00000000
00000000
00000000
00000000
00000000
00000000
00000000
00000000
FFFFFFF8
FFFFFFF8
FFFFFFF8
FFFFFFF8
FFFFFFF8
ENDCHAR
STARTCHAR 039F
ENCODING 927
SWIDTH 774 0
DWIDTH 43 0
BBX 39 43 2 -1
BITMAP
0001FF0000
000FFFF000
003FFFFC00
00FFFFFE00
01FFFFFF80
03FC007FC0
07F0001FC0
0FE0000FE0
0FC00007F0
1F800003F0
1F000001F8
3F000000F8
3E000000FC
7E0000007C
7C0000007C
7C0000007E
7C0000003E
FC0000003E
F80000003E
F80000003E
F80000003E
F80000003E
F80000003E
F80000003E
F80000003E
FC0000003E
7C0000003E
7C0000007E
7C0000007C
7E0000007C
3E000000FC
3F000000F8
3F000001F8
1F800003F0
0FC00007F0
0FE0000FE0
07F0001FC0
03FE007F80
01FFFFFF00
00FFFFFE00
003FFFFC00
000FFFF000
0001FF0000
ENDCHAR
STARTCHAR 03A0
ENCODING 928
SWIDTH 720 0
DWIDTH 40 0
BBX 31 41 5 0
BITMAP
FFFFFFFE
FFFFFFFE
FFFFFFFE
FFFFFFFE
FFFFFFFE
F800007E
F800007E
F800007E
F800007E
F800007E
F800007E
F800007E
F800007E
F800007E
F800007E
F800007E
F800007E
F800007E
F800007E
F800007E
F800007E
F800007E
F800007E
F800007E
F800007E
F800007E
F800007E
F800007E
F800007E
F800007E
F800007E
F800007E
F800007E
F800007E
F800007E
F800007E
F800007E
F800007E
F800007E
F800007E
F800007E
ENDCHAR
STARTCHAR 03A1
ENCODING 929
SWIDTH 666 0
DWIDTH 37 0
BBX 29 41 5 0
BITMAP
FFFFF800
FFFFFF00
FFFFFF80
FFFFFFC0
FFFFFFE0
F8000FF0
F80003F0
F80001F8
F80001F8
F80000F8
F80000F8
F80000F8
F80000F8
F80000F8
F80001F8
F80001F8
F80003F8
F80007F0
F8001FF0
FFFFFFE0
FFFFFFC0
FFFFFF80
FFFFFE00
FFFFE000
F8000000
F8000000
F8000000
F8000000
F8000000
F8000000
F8000000
F8000000
F8000000
F8000000
F8000000
F8000000
F8000000
F8000000
F8000000
F8000000
F8000000
ENDCHAR
STARTCHAR 03A3
ENCODING 931
SWIDTH 612 0
DWIDTH 34 0
BBX 30 41 2 0
BITMAP
FFFFFFF8
FFFFFFF8
FFFFFFF8
FFFFFFF8
FFFFFFF8
7F000000
3F800000
1FC00000
0FE00000
07F00000
03F80000
01FC0000
00FE0000
007F0000
003F8000
001FC000
000FE000
0007F000
0003F800
0001FC00
0000FC00
0001F800
0003F000
0007E000
000FC000
001FC000
003F8000
007F0000
00FE0000
01FC0000
03F80000
07F00000
0FE00000
1FC00000
3F800000
7F000000
FFFFFFFC
FFFFFFFC
FFFFFFFC
FFFFFFFC
FFFFFFFC
ENDCHAR
STARTCHAR 03A4
ENCODING 932
SWIDTH 612 0
DWIDTH 34 0
BBX 32 41 1 0
BITMAP
FFFFFFFF
FFFFFFFF
FFFFFFFF
FFFFFFFF
FFFFFFFF
0007E000
0007E000
0007E000
0007E000
0007E000
0007E000
0007E000
0007E000
0007E000
0007E000
0007E000
0007E000
0007E000
0007E000
0007E000
0007E000
0007E000
0007E000
0007E000
0007E000
0007E000
0007E000
0007E000
0007E000
0007E000
0007E000
0007E000
0007E000
0007E000
0007E000
0007E000
0007E000
0007E000
0007E000
0007E000
0007E000
ENDCHAR
STARTCHAR 03A5
ENCODING 933
SWIDTH 666 0
DWIDTH 37 0
BBX 35 41 1 0
BITMAP
FC000007E0
7E000007E0
7F00000FC0
3F00000FC0
1F80001F80
1F80003F00
0FC0003F00
0FE0007E00
07E0007E00
03F000FC00
03F001F800
01F801F800
00FC03F000
00FC03E000
007E07E000
007E07C000
003F0FC000
001F9F8000
001F9F0000
000FFF0000
0007FE0000
0007FE0000
0003FC0000
0003F80000
0001F80000
0001F80000
0001F80000
0001F80000
0001F80000
0001F80000
0001F80000
0001F80000
0001F80000
0001F80000
0001F80000
0001F80000
0001F80000
0001F80000
0001F80000
0001F80000
0001F80000
ENDCHAR
STARTCHAR 03A6
ENCODING 934
SWIDTH 792 0
DWIDTH 44 0
BBX 36 43 4 -1
BITMAP
0000F80000
0000F80000
0000F80000
0000F80000
0000F80000
0007FE0000
003FFFE000
00FFFFF800
03FFFFFE00
07FFFFFF00
0FF0F8FF80
1FC0F83F80
1F80F81FC0
3F00F80FC0
3E00F807E0
7E00F803E0
7C00F803E0
7C00F803F0
7C00F801F0
FC00F801F0
F800F801F0
F800F801F0
FC00F801F0
FC00F801F0
FC00F801F0
7C00F803F0
7C00F803E0
7E00F803E0
3E00F807E0
3F00F80FC0
1F80F81FC0
1FC0F83F80
0FF0F8FF00
07FFFFFF00
03FFFFFC00
00FFFFF800
003FFFE000
0007FE0000
0000F80000
0000F80000
0000F80000
0000F80000
0000F80000
ENDCHAR
STARTCHAR 03A7
ENCODING 935
SWIDTH 666 0
DWIDTH 37 0
BBX 34 41 2 0
BITMAP
FE00001F80
7E00003F00
3F00003F00
3F80007E00
1F8000FC00
0FC000FC00
0FE001F800
07E003F000
03F003F000
03F807E000
01F80FC000
00FC0FC000
007C1F8000
007E3F0000
003F3E0000
001F7E0000
001FFC0000
000FF80000
0007F80000
0007F00000
0007F00000
0007F80000
000FF80000
001FFC0000
003F7E0000
003F3E0000
007E3F0000
00FC1F8000
00FC0FC000
01F80FC000
03F007E000
03F007F000
07E003F000
0FC001F800
0FC001FC00
1F8000FC00
3F00007E00
3F00007F00
7E00003F00
FC00001F80
FC00001FC0
ENDCHAR
STARTCHAR 03A8
ENCODING 936
SWIDTH 828 0
DWIDTH 46 0
BBX 39 41 4 0
BITMAP
F8007C007E
F8007C007E
F8007C007E
F8007C007E
F8007C007E
F8007C007E
F8007C007E
F8007C007E
F8007C007E
F8007C007E
F8007C007E
F8007C007E
F8007C007E
F8007C003E
F8007C003E
F8007C003E
F8007C007E
F8007C007E
F8007C007E
F8007C007C
F8007C007C
F8007C007C
FC007C007C
7C007C00FC
7E007C00F8
7F007C01F8
3F807C07F0
1FE07C1FF0
0FFE7DFFE0
07FFFFFF80
03FFFFFF00
00FFFFFC00
001FFFE000
00007C0000
00007C0000
00007C0000
00007C0000
00007C0000
00007C0000
00007C0000
00007C0000
ENDCHAR
STARTCHAR 03A9
ENCODING 937
SWIDTH 756 0
DWIDTH 42 0
BBX 38 42 2 0
BITMAP
0003FE0000
001FFFC000
007FFFF800
00FFFFFC00
03FFFFFE00
07FC00FF00
0FF0003F80
0FC0001FC0
1F80000FE0
1F000007E0
3F000003F0
3E000003F0
7E000001F0
7C000001F8
7C000001F8
7C000000F8
7C000000F8
FC000000F8
FC000000F8
FC000000F8
FC000000F8
FC000000F8
7C000000F8
7C000000F8
7C000000F8
7C000001F8
7E000001F0
3E000001F0
3E000003F0
3F000003E0
1F000007E0
0F800007C0
0FC0000F80
07C0001F00
03E0003E00
01F8007C00
007C00F800
FFFF03FFFC
FFFF03FFFC
FFFF03FFFC
FFFF03FFFC
FFFF03FFFC
ENDCHAR
STARTCHAR 03AA
ENCODING 938
SWIDTH 270 0
DWIDTH 15 0
BBX 15 51 0 0
BITMAP
FC7E
FC7E
FC7E
FC7E
FC7E
FC7E
0000
0000
0000
0000
03E0
03E0
03E0
03E0
03E0
03E0
03E0
03E0
03E0
03E0
03E0
03E0
03E0
03E0
03E0
03E0
03E0
03E0
03E0
03E0
03E0
03E0
03E0
03E0
03E0
03E0
03E0
03E0
03E0
03E0
03E0
03E0
03E0
03E0
03E0
03E0
03E0
03E0
03E0
03E0
03E0
ENDCHAR
STARTCHAR 03AB
ENCODING 939
SWIDTH 666 0
DWIDTH 37 0
BBX 35 51 1 0
BITMAP
003F1F8000
003F1F8000
003F1F8000
003F1F8000
003F1F8000
003F1F8000
0000000000
0000000000
0000000000
0000000000
FC000007E0
7E000007E0
7F00000FC0
3F00000FC0
1F80001F80
1F80003F00
0FC0003F00
0FE0007E00
07E0007E00
03F000FC00
03F001F800
01F801F800
00FC03F000
00FC03E000
007E07E000
007E07C000
003F0FC000
001F9F8000
001F9F0000
000FFF0000
0007FE0000
0007FE0000
0003FC0000
0003F80000
0001F80000
0001F80000
0001F80000
0001F80000
0001F80000
0001F80000
0001F80000
0001F80000
0001F80000
0001F80000
0001F80000
0001F80000
0001F80000
0001F80000
0001F80000
0001F80000
0001F80000
ENDCHAR
STARTCHAR 03AC
ENCODING 940
SWIDTH 576 0
DWIDTH 32 0
BBX 33 44 0 -1
BITMAP
001F000000
001F000000
001F000000
001F000000
001F000000
001F000000
000E000000
000E000000
000E000000
000E000000
0000000000
0000000000
0000000000
003F800000
00FFE01F00
03FFF01F00
07FFF81F00
0FF1FC3E00
1F807E3E00
1F003E3C00
3E001F7C00
3E000F7C00
7C000FF800
7C0007F800
7C0007F800
780003F000
F80003F000
F80003E000
F80003E000
F80003F000
F80003F000
780007F800
7C0007F800
7C000FF800
7C000F7C00
3E001F7C00
3E001E3E00
3F003E3E00
1FC07C3E00
0FF1FC1F00
07FFF81F00
03FFF01F00
01FFC00F80
003F000000
ENDCHAR
STARTCHAR 03AD
ENCODING 941
SWIDTH 450 0
DWIDTH 25 0
BBX 24 44 1 -1
BITMAP
007C00
007C00
007C00
007C00
007C00
007800
003800
003800
003800
003000
001000
000000
000000
00FE00
07FFC0
0FFFE0
1FFFF0
3FC3F8
7E00FC
7C007C
7C003E
7C003E
7C0000
7C0000
3E0000
1FC000
0FFE00
07FE00
0FFE00
3FFE00
7F0000
7C0000
F80000
F8001F
F8001F
F8001E
F8003E
7C007E
7E00FC
3FC3F8
3FFFF0
1FFFE0
07FFC0
01FE00
ENDCHAR
STARTCHAR 03AE
ENCODING 942
SWIDTH 558 0
DWIDTH 31 0
BBX 23 55 4 -12
BITMAP
003E00
003E00
003E00
003E00
003E00
003E00
001C00
001C00
001C00
001C00
000800
000000
000000
001F80
F0FFF0
F1FFF8
F3FFFC
F7C1FC
FF007E
FE007E
FC003E
FC003E
F8003E
F8003E
F8003E
F8003E
F8003E
F8003E
F8003E
F8003E
F8003E
F8003E
F8003E
F8003E
F8003E
F8003E
F8003E
F8003E
F8003E
F8003E
F8003E
F8003E
F8003E
00003E
00003E
00003E
00003E
00003E
00003E
00003E
00003E
00003E
00003E
00003E
00003E
ENDCHAR
STARTCHAR 03AF
ENCODING 943
SWIDTH 216 0
DWIDTH 12 0
BBX 5 43 4 0
BITMAP
F0
F0
F0
F0
F0
F0
F0
70
70
60
60
00
00
00
F8
F8
F8
F8
F8
F8
F8
F8
F8
F8
F8
F8
F8
F8
F8
F8
F8
F8
F8
F8
F8
F8
F8
F8
F8
F8
F8
F8
F8
ENDCHAR
STARTCHAR 03B0
ENCODING 944
SWIDTH 540 0
DWIDTH 30 0
BBX 23 48 4 -1
BITMAP
007C00
007C00
007C00
007C00
007C00
007800
007800
003800
0FBFE0
0FB7E0
0F87E0
0F87E0
0F87E0
0F87E0
000000
000000
000000
000000
F0003E
F0003E
F0003E
F0003E
F0003E
F0003E
F0003E
F0003E
F0003E
F0003E
F0003E
F0003E
F0003E
F0003E
F0003E
F0003E
F0003E
F0003E
F0003E
F0003E
F0003E
F8003E
F8003E
F8007C
FE00FC
7FC7FC
3FFFF8
1FFFF0
0FFFC0
01FE00
ENDCHAR
STARTCHAR 03B1
ENCODING 945
SWIDTH 576 0
DWIDTH 32 0
BBX 31 31 2 -1
BITMAP
00FE0000
03FF803E
07FFC07C
0FFFE07C
1FC7F078
3F01F8F8
3E00F8F8
7E007DF0
7C003DF0
7C003FE0
F8001FE0
F8001FE0
F8000FC0
F8000FC0
F80007C0
F8000FC0
F8000FC0
F8000FC0
F8001FE0
F8001FE0
F8001FE0
7C003FF0
7C007DF0
7E007CF8
3E00F8F8
3F01F0F8
1FE7F07C
0FFFE07C
07FFC07E
03FF803E
00FC0000
ENDCHAR
STARTCHAR 03B2
ENCODING 946
SWIDTH 576 0
DWIDTH 32 0
BBX 25 54 4 -12
BITMAP
00FF0000
07FFC000
0FFFE000
1FFFF000
3F83F800
7E00FC00
7C007C00
7C007E00
78003E00
78003E00
F8003E00
F8003E00
F8003E00
F8007C00
F8007C00
F800F800
F803F800
F83FF000
F83FC000
F83FF000
F83FFC00
F800FE00
F8007E00
F8003F00
F8001F00
F8001F80
F8000F80
F8000F80
F8000F80
F8000F80
F8000F80
F8000F80
F8000F80
F8000F80
F8001F00
F8001F00
FC003F00
FE007E00
FFC3FC00
FFFFFC00
FFFFF000
FBFFE000
F87F0000
F8000000
F8000000
F8000000
F8000000
F8000000
F8000000
F8000000
F8000000
F8000000
F8000000
F8000000
ENDCHAR
STARTCHAR 03B3
ENCODING 947
SWIDTH 504 0
DWIDTH 28 0
BBX 26 41 1 -12
BITMAP
F80007C0
F8000FC0
7C000F80
7C000F80
7E001F00
3E001F00
3E001F00
1F003E00
1F003E00
1F807E00
0F807C00
0F807C00
07C0F800
07C0F800
07C0F800
03E1F000
03E1F000
01F1E000
01F3E000
01F3E000
00FBC000
00FFC000
007FC000
007F8000
007F8000
003F0000
003F0000
003F0000
001E0000
001E0000
001E0000
001E0000
001E0000
001E0000
001E0000
001E0000
001E0000
001E0000
001E0000
001E0000
001E0000
ENDCHAR
STARTCHAR 03B4
ENCODING 948
SWIDTH 558 0
DWIDTH 31 0
BBX 27 42 2 -1
BITMAP
1FFFFF00
1FFFFF00
1FFFFF00
1FFFFF00
0FC00000
07F00000
01F80000
00FC0000
007F0000
003F8000
000FC000
007FF000
01FFF800
07FFFC00
0FFFFE00
1FC07F00
1F803F00
3F001F80
3E000F80
7C0007C0
7C0007C0
7C0007C0
7C0007C0
780003E0
F80003E0
F80003E0
F80003E0
F80003E0
F80003E0
780003C0
7C0007C0
7C0007C0
7C0007C0
7E000FC0
3E000F80
3F001F80
1F803F00
0FF0FE00
0FFFFE00
07FFF800
01FFF000
003F8000
ENDCHAR
STARTCHAR 03B5
ENCODING 949
SWIDTH 450 0
DWIDTH 25 0
BBX 24 31 1 -1
BITMAP
00FE00
07FFC0
0FFFE0
1FFFF0
3FC3F8
7E00FC
7C007C
7C003E
7C003E
7C0000
7C0000
3E0000
1FC000
0FFE00
07FE00
0FFE00
3FFE00
7F0000
7C0000
F80000
F8001F
F8001F
F8001E
F8003E
7C007E
7E00FC
3FC3F8
3FFFF0
1FFFE0
07FFC0
01FE00
ENDCHAR
STARTCHAR 03B6
ENCODING 950
SWIDTH 450 0
DWIDTH 25 0
BBX 23 53 2 -12
BITMAP
1FFFFC
1FFFFC
1FFFFC
1FFFFC
0001F8
0007F0
000FC0
001F80
003E00
007C00
00F800
01F000
03F000
07E000
07C000
0F8000
0F8000
1F0000
1F0000
3E0000
3E0000
7C0000
7C0000
7C0000
780000
F80000
F80000
F80000
F80000
F80000
F80000
F80000
7C0000
7C0000
7E0000
3F8000
3FFF00
1FFFF0
07FFFC
01FFFE
0007FE
00003E
00003E
00003E
00003E
00003E
00003E
00003C
00007C
00007C
000078
0000F8
0000F0
ENDCHAR
STARTCHAR 03B7
ENCODING 951
SWIDTH 558 0
DWIDTH 31 0
BBX 23 42 4 -12
BITMAP
001F80
F0FFF0
F1FFF8
F3FFFC
F7C1FC
FF007E
FE007E
FC003E
FC003E
F8003E
F8003E
F8003E
F8003E
F8003E
F8003E
F8003E
F8003E
F8003E
F8003E
F8003E
F8003E
F8003E
F8003E
F8003E
F8003E
F8003E
F8003E
F8003E
F8003E
F8003E
00003E
00003E
00003E
00003E
00003E
00003E
00003E
00003E
00003E
00003E
00003E
00003E
ENDCHAR
STARTCHAR 03B8
ENCODING 952
SWIDTH 558 0
DWIDTH 31 0
BBX 25 42 3 -1
BITMAP
00FF8000
03FFE000
07FFF000
0FFFF800
1FC1FC00
3F007E00
3E003E00
7C001F00
7C001F00
78000F00
F8000F00
F8000F80
F8000F80
F8000F80
F8000F80
F8000780
F0000780
F0000780
FFFFFF80
FFFFFF80
FFFFFF80
FFFFFF80
F0000780
F0000780
F0000780
F0000F80
F8000F80
F8000F80
F8000F80
F8000F80
F8000F80
78000F00
78001F00
7C001F00
7C001E00
3E003E00
3F007C00
1FE3FC00
0FFFF800
07FFF000
03FFE000
007F0000
ENDCHAR
STARTCHAR 03B9
ENCODING 953
SWIDTH 216 0
DWIDTH 12 0
BBX 5 29 4 0
BITMAP
F8
F8
F8
F8
F8
F8
F8
F8
F8
F8
F8
F8
F8
F8
F8
F8
F8
F8
F8
F8
F8
F8
F8
F8
F8
F8
F8
F8
F8
ENDCHAR
STARTCHAR 03BA
ENCODING 954
SWIDTH 504 0
DWIDTH 28 0
BBX 25 29 3 0
BITMAP
F8007E00
F800FC00
F801F800
F803F000
F807E000
F80FC000
F81F8000
F83F0000
F87E0000
F8FC0000
F9F80000
FBFC0000
FFFC0000
FFFE0000
FF3F0000
FE1F0000
FC1F8000
F80FC000
F807C000
F807E000
F803F000
F803F000
F801F800
F800F800
F800FC00
F8007E00
F8003E00
F8003F00
F8001F80
ENDCHAR
STARTCHAR 03BB
ENCODING 955
SWIDTH 504 0
DWIDTH 28 0
BBX 25 41 1 0
BITMAP
03E00000
03E00000
01F00000
01F00000
01F00000
00F80000
00F80000
00F80000
007C0000
007C0000
003E0000
003E0000
003E0000
003F0000
003F0000
007F0000
007F8000
00FF8000
00FF8000
00FFC000
01F7C000
01F3E000
01F3E000
03E3E000
03E1F000
03E1F000
07C1F000
07C0F800
0780F800
0F80F800
0F807C00
0F007C00
1F003E00
1F003E00
3E003E00
3E001F00
3E001F00
7C001F00
7C000F80
7C000F80
F8000F80
ENDCHAR
STARTCHAR 03BC
ENCODING 956
SWIDTH 576 0
DWIDTH 32 0
BBX 24 41 4 -12
BITMAP
F8001F
F8001F
F8001F
F8001F
F8001F
F8001F
F8001F
F8001F
F8001F
F8001F
F8001F
F8001F
F8001F
F8001F
F8001F
F8001F
F8001F
F8001F
F8001F
F8001F
F8003F
F8003F
FC007F
FC007F
FE00FF
FF83FF
FFFFDF
FFFF9F
FFFF1F
FBF800
F80000
F80000
F80000
F80000
F80000
F80000
F80000
F80000
F80000
F80000
F80000
ENDCHAR
STARTCHAR 03BD
ENCODING 957
SWIDTH 504 0
DWIDTH 28 0
BBX 26 29 1 0
BITMAP
F80007C0
F8000FC0
7C000F80
7C000F80
7C001F00
3E001F00
3E001F00
3E003E00
1F003E00
1F007C00
1F007C00
0F807C00
0F80F800
0F80F800
07C0F800
07C1F000
07E1F000
03E1E000
03E3E000
01F3E000
01F7C000
01F7C000
00FF8000
00FF8000
00FF8000
007F0000
007F0000
007F0000
003E0000
ENDCHAR
STARTCHAR 03BE
ENCODING 958
SWIDTH 450 0
DWIDTH 25 0
BBX 24 52 2 -11
BITMAP
7FFFF8
7FFFF8
7FFFF8
7FFFF8
03F000
07C000
0F8000
1F0000
3E0000
3E0000
3E0000
3E0000
3E0000
3F0000
1F8000
1FC000
0FF800
07FFF0
01FFF0
01FFF0
07FFF0
1FF000
3F8000
7E0000
7C0000
F80000
F80000
F80000
F80000
F80000
F80000
F80000
F80000
FC0000
7E0000
7FC000
3FFFC0
1FFFF8
0FFFFE
01FFFE
0001FF
00003F
00001F
00001F
00001E
00001E
00003E
00003E
00003C
00007C
00007C
0000F8
ENDCHAR
STARTCHAR 03BF
ENCODING 959
SWIDTH 558 0
DWIDTH 31 0
BBX 27 31 2 -1
BITMAP
003FC000
01FFF000
03FFFC00
0FFFFE00
0FF1FF00
1F803F00
3F001F80
3E000F80
7E000FC0
7C0007C0
7C0007C0
7C0007C0
F80003C0
F80003E0
F80003E0
F80003E0
F80003E0
F80003E0
F80003C0
7C0007C0
7C0007C0
7C0007C0
7E000FC0
3E000F80
3F001F80
1F803F00
1FF1FE00
0FFFFE00
07FFF800
01FFF000
007F8000
ENDCHAR
STARTCHAR 03C0
ENCODING 960
SWIDTH 684 0
DWIDTH 38 0
BBX 31 29 4 0
BITMAP
FFFFFFFE
FFFFFFFE
FFFFFFFE
FFFFFFFE
0F8003C0
0F8003C0
0F8003C0
0F8003C0
0F8003C0
0F8003C0
0F8003C0
0F8003C0
0F8003C0
0F8003C0
0F8003C0
0F8003C0
0F8003C0
0F8003C0
0F8003C0
0F8003C0
0F8003C0
0F8003C0
0F8003C0
0F8003C0
0F8003C0
0F8003C0
0F8003C0
0F8003C0
0F8003C0
ENDCHAR
STARTCHAR 03C1
ENCODING 961
SWIDTH 576 0
DWIDTH 32 0
BBX 26 42 3 -12
BITMAP
003F8000
01FFF000
03FFF800
0FFFFC00
0FE1FE00
1F807F00
3F001F00
3E001F80
7C000F80
7C000FC0
7C0007C0
780007C0
F80007C0
F80007C0
F80007C0
F80007C0
F80007C0
F80007C0
F80007C0
F80007C0
FC0007C0
FC0007C0
FE000F80
FE001F80
FF001F00
FF807F00
FFF1FE00
FBFFFC00
F9FFF800
F8FFF000
F83F8000
F8000000
F8000000
F8000000
F8000000
F8000000
F8000000
F8000000
F8000000
F8000000
F8000000
F8000000
ENDCHAR
STARTCHAR 03C2
ENCODING 962
SWIDTH 486 0
DWIDTH 27 0
BBX 26 42 1 -12
BITMAP
003FC000
00FFF000
03FFFC00
07FFFE00
0FF0FF00
1FC03F80
1F001F80
3E000F80
3E0007C0
7C0007C0
7C0007C0
7C000000
78000000
F8000000
F8000000
F8000000
7C000000
7C000000
7C000000
7E000000
3E000000
3F000000
1F800000
1FE00000
0FF80000
07FF0000
03FFC000
00FFF800
003FFE00
0007FF00
0000FF80
00001F80
00000F80
00000F80
00000F80
00000F80
00000F00
00001F00
00001F00
00003E00
00003E00
00003C00
ENDCHAR
STARTCHAR 03C3
ENCODING 963
SWIDTH 612 0
DWIDTH 34 0
BBX 29 31 3 -1
BITMAP
003FC000
01FFFFF8
03FFFFF8
07FFFFF8
0FF1FFF8
1F803E00
3F001F00
3E000F80
7E000F80
7C0007C0
7C0007C0
7C0007C0
780003C0
F80003E0
F80003E0
F80003E0
F80003E0
F80003E0
780003E0
7C0007C0
7C0007C0
7C0007C0
7E000FC0
3E000F80
3F001F80
1F803F00
1FF0FE00
0FFFFE00
07FFF800
01FFF000
003F8000
ENDCHAR
STARTCHAR 03C4
ENCODING 964
SWIDTH 396 0
DWIDTH 22 0
BBX 24 29 -1 0
BITMAP
FFFFFF
FFFFFF
FFFFFF
FFFFFF
003C00
003C00
003C00
003C00
003C00
003C00
003C00
003C00
003C00
003C00
003C00
003C00
003C00
003C00
003C00
003C00
003C00
003C00
003C00
003C00
003C00
003C00
003C00
003C00
003C00
ENDCHAR
STARTCHAR 03C5
ENCODING 965
SWIDTH 540 0
DWIDTH 30 0
BBX 23 30 4 -1
BITMAP
F0003E
F0003E
F0003E
F0003E
F0003E
F0003E
F0003E
F0003E
F0003E
F0003E
F0003E
F0003E
F0003E
F0003E
F0003E
F0003E
F0003E
F0003E
F0003E
F0003E
F0003E
F8003E
F8003E
F8007C
FE00FC
7FC7FC
3FFFF8
1FFFF0
0FFFC0
01FE00
ENDCHAR
STARTCHAR 03C6
ENCODING 966
SWIDTH 648 0
DWIDTH 36 0
BBX 32 42 2 -12
BITMAP
0007F000
00C7FE00
03C7FF80
07C7FFE0
0FC7CFF0
1F87C3F8
3F07C0F8
3E07C0FC
7C07C07C
7C07C03E
FC07C03E
F807C03E
F807C03F
F807C01F
F807C01F
F807C01F
F807C01F
F807C01F
F807C03F
F807C03E
FC07C03E
7C07C03E
7C07C07E
7E07C07C
3F07C0FC
3F87C1F8
1FE7C7F0
0FFFFFE0
07FFFFC0
01FFFF00
007FFC00
0007C000
0007C000
0007C000
0007C000
0007C000
0007C000
0007C000
0007C000
0007C000
0007C000
0007C000
ENDCHAR
STARTCHAR 03C7
ENCODING 967
SWIDTH 522 0
DWIDTH 29 0
BBX 25 41 2 -12
BITMAP
FC001F00
7C001F00
7E003E00
3E003E00
3F007C00
1F007C00
1F80F800
0F80F800
0FC1F000
07C1F000
07E3E000
03E3E000
03E3E000
01F7C000
01F7C000
00FF8000
00FF8000
007F0000
007F0000
003E0000
003E0000
007F0000
007F0000
00FF8000
00FF8000
01F7C000
01F7C000
03E3E000
03E3E000
07C1F000
07C1F000
0F80F800
0F80F800
1F007C00
1F007C00
3E007E00
3E003E00
7C003F00
7C001F00
F8001F80
F8000F80
ENDCHAR
STARTCHAR 03C8
ENCODING 968
SWIDTH 720 0
DWIDTH 40 0
BBX 31 41 5 -12
BITMAP
F807C03E
F807C03E
F807C03E
F807C03E
F807C03E
F807C03E
F807C03E
F807C03E
F807C03E
F807C03E
F807C03E
F807C03E
F807C03E
F807C03E
F807C03E
F807C03E
F807C03E
F807C03E
F807C03E
F807C03C
F807C07C
FC07C07C
7C07C07C
7E07C0F8
3F07C1F8
3FE7CFF0
1FFFFFE0
07FFFFC0
03FFFF00
003FF800
0007C000
0007C000
0007C000
0007C000
0007C000
0007C000
0007C000
0007C000
0007C000
0007C000
0007C000
ENDCHAR
STARTCHAR 03C9
ENCODING 969
SWIDTH 774 0
DWIDTH 43 0
BBX 33 30 5 -1
BITMAP
07E003F000
07C001F800
0F8000FC00
1F00007C00
1F00003E00
3E00003E00
3E00001F00
7C03E01F00
7C03E01F00
7C03E00F80
F803E00F80
F803E00F80
F803E00F80
F803E00F80
F803E00780
F803E00780
F803E00780
F803E00780
F803E00780
F803E00F80
F803E00F80
7803E00F80
7C03E00F80
7C03F01F00
3E07F03F00
3F0F7C7E00
1FFF7FFE00
0FFE3FFC00
07FC1FF800
01F007E000
ENDCHAR
STARTCHAR 03CA
ENCODING 970
SWIDTH 216 0
DWIDTH 12 0
BBX 14 40 -1 0
BITMAP
F87C
F87C
F87C
F87C
F87C
F87C
0000
0000
0000
0000
0000
07C0
07C0
07C0
07C0
07C0
07C0
07C0
07C0
07C0
07C0
07C0
07C0
07C0
07C0
07C0
07C0
07C0
07C0
07C0
07C0
07C0
07C0
07C0
07C0
07C0
07C0
07C0
07C0
07C0
ENDCHAR
STARTCHAR 03CB
ENCODING 971
SWIDTH 540 0
DWIDTH 30 0
BBX 23 41 4 -1
BITMAP
0FC7E0
0FC7E0
0FC7E0
0FC7E0
0FC7E0
0FC7E0
000000
000000
000000
000000
000000
F0003E
F0003E
F0003E
F0003E
F0003E
F0003E
F0003E
F0003E
F0003E
F0003E
F0003E
F0003E
F0003E
F0003E
F0003E
F0003E
F0003E
F0003E
F0003E
F0003E
F0003E
F8003E
F8003E
F8007C
FE00FC
7FC7FC
3FFFF8
1FFFF0
0FFFC0
01FE00
ENDCHAR
STARTCHAR 03CC
ENCODING 972
SWIDTH 558 0
DWIDTH 31 0
BBX 27 44 2 -1
BITMAP
001F0000
001F0000
001F0000
001F0000
001F0000
001F0000
000E0000
000E0000
000E0000
000E0000
00040000
00000000
00000000
003FC000
01FFF000
03FFFC00
0FFFFE00
0FF1FF00
1F803F00
3F001F80
3E000F80
7E000FC0
7C0007C0
7C0007C0
7C0007C0
F80003C0
F80003E0
F80003E0
F80003E0
F80003E0
F80003E0
F80003C0
7C0007C0
7C0007C0
7C0007C0
7E000FC0
3E000F80
3F001F80
1F803F00
1FF1FE00
0FFFFE00
07FFF800
01FFF000
007F8000
ENDCHAR
STARTCHAR 03CD
ENCODING 973
SWIDTH 540 0
DWIDTH 30 0
BBX 23 44 4 -1
BITMAP
007C00
007C00
007C00
007C00
007C00
007800
007800
003800
003800
003000
003000
000000
000000
000000
F0003E
F0003E
F0003E
F0003E
F0003E
F0003E
F0003E
F0003E
F0003E
F0003E
F0003E
F0003E
F0003E
F0003E
F0003E
F0003E
F0003E
F0003E
F0003E
F0003E
F0003E
F8003E
F8003E
F8007C
FE00FC
7FC7FC
3FFFF8
1FFFF0
0FFFC0
01FE00
ENDCHAR
STARTCHAR 03CE
ENCODING 974
SWIDTH 774 0
DWIDTH 43 0
BBX 33 44 5 -1
BITMAP
0003E00000
0003E00000
0003E00000
0003E00000
0003E00000
0001E00000
0001E00000
0001C00000
0001C00000
0000C00000
0000C00000
0000000000
0000000000
0000000000
07E003F000
07C001F800
0F8000FC00
1F00007C00
1F00003E00
3E00003E00
3E00001F00
7C03E01F00
7C03E01F00
7C03E00F80
F803E00F80
F803E00F80
F803E00F80
F803E00F80
F803E00780
F803E00780
F803E00780
F803E00780
F803E00780
F803E00F80
F803E00F80
7803E00F80
7C03E00F80
7C03F01F00
3E07F03F00
3F0F7C7E00
1FFF7FFE00
0FFE3FFC00
07FC1FF800
01F007E000
ENDCHAR
STARTCHAR 03D1
ENCODING 977
SWIDTH 540 0
DWIDTH 30 0
BBX 30 43 0 -1
BITMAP
001FC000
007FF000
01FFFC00
03FFFE00
03F07E00
07C03F00
07C01F80
07800F80
0F8007C0
0F8007C0
0F8003C0
0F8003C0
078003E0
07C003E0
07C003E0
03E003E0
03F003E0
01FC03E0
00FF83E0
007FFFFC
001FFFFC
0007FFFC
0000FFFC
000003E0
000003E0
FE0003E0
FE0003E0
FE0003E0
FE0003E0
1E0003E0
1E0003E0
1E0003C0
1E0003C0
1F0007C0
1F0007C0
0F800F80
0F800F80
07C01F00
07F8FF00
03FFFE00
01FFFC00
00FFF000
003FC000
ENDCHAR
STARTCHAR 03D5
ENCODING 981
SWIDTH 558 0
DWIDTH 31 0
BBX 29 49 1 -12
BITMAP
000F8000
000F8000
000F8000
000F8000
000F8000
000F8000
000F8000
007FF000
01FFFC00
07FFFF00
0FFFFF80
1FEFBFC0
3F8F8FE0
3E0F83E0
7E0F83F0
7C0F81F0
7C0F80F8
F80F80F8
F80F80F8
F80F80F8
F80F80F8
F80F8078
F80F8078
F80F8078
F80F8078
F80F80F8
F80F80F8
F80F80F8
FC0F80F8
7C0F81F0
7C0F81F0
3E0F83E0
3F0F87E0
1FCF9FC0
0FFFFF80
07FFFF00
03FFFE00
00FFF800
000F8000
000F8000
000F8000
000F8000
000F8000
000F8000
000F8000
000F8000
000F8000
000F8000
000F8000
ENDCHAR
STARTCHAR 03D6
ENCODING 982
SWIDTH 774 0
DWIDTH 43 0
BBX 35 30 4 -1
BITMAP
FFFFF80000
FFFFFF8000
FFFFFFE000
FFFFFFF000
07C007FC00
0F8000FE00
1F00007F00
3F00003F00
3E00001F80
7C00000F80
7C00000FC0
7C000007C0
7C01F007C0
7801F007C0
F801F007C0
F801F003E0
F801F003E0
F801F003E0
F801F003C0
7801F003C0
7C01F007C0
7C01F007C0
7C03F807C0
3E03F80F80
3F07FC0F80
1F8FFE3F00
0FFFBFFE00
07FF1FFC00
03FE0FF800
00F803E000
ENDCHAR
STARTCHAR 0400
ENCODING 1024
SWIDTH 666 0
DWIDTH 37 0
BBX 29 53 5 0
BITMAP
01F80000
00FC0000
007E0000
003E0000
001F0000
000F8000
00078000
0003C000
0001E000
00000000
00000000
00000000
FFFFFFF0
FFFFFFF0
FFFFFFF0
FFFFFFF0
FFFFFFF0
F8000000
F8000000
F8000000
F8000000
F8000000
F8000000
F8000000
F8000000
F8000000
F8000000
F8000000
F8000000
F8000000
FFFFFFE0
FFFFFFE0
FFFFFFE0
FFFFFFE0
FFFFFFE0
F8000000
F8000000
F8000000
F8000000
F8000000
F8000000
F8000000
F8000000
F8000000
F8000000
F8000000
F8000000
F8000000
FFFFFFF8
FFFFFFF8
FFFFFFF8
FFFFFFF8
FFFFFFF8
ENDCHAR
STARTCHAR 0401
ENCODING 1025
SWIDTH 666 0
DWIDTH 37 0
BBX 29 51 5 0
BITMAP
03F1F800
03F1F800
03F1F800
03F1F800
03F1F800
03F1F800
00000000
00000000
00000000
00000000
FFFFFFF0
FFFFFFF0
FFFFFFF0
FFFFFFF0
FFFFFFF0
F8000000
F8000000
F8000000
F8000000
F8000000
F8000000
F8000000
F8000000
F8000000
F8000000
F8000000
F8000000
F8000000
FFFFFFE0
FFFFFFE0
FFFFFFE0
FFFFFFE0
FFFFFFE0
F8000000
F8000000
F8000000
F8000000
F8000000
F8000000
F8000000
F8000000
F8000000
F8000000
F8000000
F8000000
F8000000
FFFFFFF8
FFFFFFF8
FFFFFFF8
FFFFFFF8
FFFFFFF8
ENDCHAR
STARTCHAR 0402
ENCODING 1026
SWIDTH 864 0
DWIDTH 48 0
BBX 42 41 1 0
BITMAP
FFFFFFF00000
FFFFFFF00000
FFFFFFF00000
FFFFFFF00000
FFFFFFF00000
0007E0000000
0007E0000000
0007E0000000
0007E0000000
0007E0000000
0007E0000000
0007E0000000
0007E0000000
0007E0060000
0007E1FFF000
0007E7FFFC00
0007EFFFFE00
0007FFFFFF00
0007FF007F80
0007FC001F80
0007F0000FC0
0007E00007C0
0007E00007C0
0007E00007C0
0007E00007C0
0007E00007C0
0007E00007C0
0007E00007C0
0007E00007C0
0007E00007C0
0007E00007C0
0007E00007C0
0007E00007C0
0007E00007C0
0007E00007C0
0007E0000F80
0007E03FFF80
0007E03FFF00
0007E03FFF00
0007E03FFC00
0007E03FF000
ENDCHAR
STARTCHAR 0403
ENCODING 1027
SWIDTH 540 0
DWIDTH 30 0
BBX 25 53 5 0
BITMAP
000FC000
001F8000
003F0000
003E0000
007C0000
00F80000
00F00000
01E00000
03C00000
00000000
00000000
00000000
FFFFFF80
FFFFFF80
FFFFFF80
FFFFFF80
FFFFFF80
F8000000
F8000000
F8000000
F8000000
F8000000
F8000000
F8000000
F8000000
F8000000
F8000000
F8000000
F8000000
F8000000
F8000000
F8000000
F8000000
F8000000
F8000000
F8000000
F8000000
F8000000
F8000000
F8000000
F8000000
F8000000
F8000000
F8000000
F8000000
F8000000
F8000000
F8000000
F8000000
F8000000
F8000000
F8000000
F8000000
ENDCHAR
STARTCHAR 0404
ENCODING 1028
SWIDTH 720 0
DWIDTH 40 0
BBX 38 43 1 -1
BITMAP
0001FF0000
000FFFF000
003FFFFC00
00FFFFFE00
01FFFFFF00
03FC007F80
07F0001FC0
0FE0000FE0
1FC00007F0
1F800003F0
3F000001F8
3E000001F8
7E000000F8
7C00000080
7C00000000
7C00000000
FC00000000
F800000000
F800000000
FFFFFE0000
FFFFFE0000
FFFFFE0000
FFFFFE0000
FFFFFE0000
F800000000
F800000000
FC00000000
FC00000040
7C0000007C
7E000000FC
7E000000F8
3E000001F8
3F000001F8
1F800003F0
1FC00007F0
0FE0000FE0
07F0001FC0
03FC007F80
01FFFFFF00
00FFFFFE00
007FFFF800
001FFFE000
0001FF0000
ENDCHAR
STARTCHAR 0405
ENCODING 1029
SWIDTH 666 0
DWIDTH 37 0
BBX 32 43 3 -1
BITMAP
001FF000
00FFFE00
03FFFF80
0FFFFFC0
0FFC7FE0
1FC007F0
3F0001F8
3E0000F8
7E0000FC
7C00007C
7C00007C
7C00007C
7C00007C
7E000000
7E000000
7F000000
3FC00000
3FF80000
1FFF8000
0FFFF000
03FFFF00
00FFFFC0
000FFFF0
0000FFF8
00001FFC
000003FC
000000FE
0000007E
0000003E
F800003E
F800003F
F800003E
F800003E
FC00003E
7C00007E
7E00007C
3F0000FC
3FC003F8
1FFFFFF0
0FFFFFE0
03FFFFC0
01FFFF00
001FF800
ENDCHAR
STARTCHAR 0406
ENCODING 1030
SWIDTH 270 0
DWIDTH 15 0
BBX 5 41 5 0
BITMAP
F8
F8
F8
F8
F8
F8
F8
F8
F8
F8
F8
F8
F8
F8
F8
F8
F8
F8
F8
F8
F8
F8
F8
F8
F8
F8
F8
F8
F8
F8
F8
F8
F8
F8
F8
F8
F8
F8
F8
F8
F8
ENDCHAR
STARTCHAR 0407
ENCODING 1031
SWIDTH 270 0
DWIDTH 15 0
BBX 15 51 0 0
BITMAP
FC7E
FC7E
FC7E
FC7E
FC7E
FC7E
0000
0000
0000
0000
07C0
07C0
07C0
07C0
07C0
07C0
07C0
07C0
07C0
07C0
07C0
07C0
07C0
07C0
07C0
07C0
07C0
07C0
07C0
07C0
07C0
07C0
07C0
07C0
07C0
07C0
07C0
07C0
07C0
07C0
07C0
07C0
07C0
07C0
07C0
07C0
07C0
07C0
07C0
07C0
07C0
ENDCHAR
STARTCHAR 0408
ENCODING 1032
SWIDTH 504 0
DWIDTH 28 0
BBX 23 42 1 -1
BITMAP
00007E
00007E
00007E
00007E
00007E
00007E
00007E
00007E
00007E
00007E
00007E
00007E
00007E
00007E
00007E
00007E
00007E
00007E
00007E
00007E
00007E
00007E
00007E
00007E
00007E
00007E
00007E
00007E
F8007E
F8007E
F8007E
F8007E
F8007C
F8007C
FC00FC
7C00FC
7F01F8
3FC7F8
3FFFF0
1FFFE0
07FF80
01FE00
ENDCHAR
STARTCHAR 0409
ENCODING 1033
SWIDTH 1062 0
DWIDTH 59 0
BBX 56 41 1 0
BITMAP
01FFFFFF800000
01FFFFFF800000
01FFFFFF800000
01FFFFFF800000
01FFFFFF800000
01F0001F800000
01F0001F800000
01F0001F800000
01F0001F800000
01F0001F800000
01F0001F800000
01F0001F800000
01F0001F800000
01F0001F800000
01F0001F800000
01F0001F800000
01F0001F800000
01F0001FFFF800
01F0001FFFFFC0
01F0001FFFFFF0
01F0001FFFFFF8
01F0001FFFFFFC
01F0001F8003FE
01F0001F8000FE
01F0001F80003F
01F0001F80003F
01F0001F80001F
01F0001F80001F
01F0001F80001F
01F0001F80001F
01F0001F80001F
03F0001F80001F
03E0001F80003F
07E0001F80003F
07E0001F80007E
1FC0001F8000FE
FF80001FFFFFFC
FF80001FFFFFF8
FF00001FFFFFF0
FE00001FFFFFE0
F800001FFFFF00
ENDCHAR
STARTCHAR 040A
ENCODING 1034
SWIDTH 1008 0
DWIDTH 56 0
BBX 52 41 3 0
BITMAP
F80003E0000000
F80003E0000000
F80003E0000000
F80003E0000000
F80003E0000000
F80003E0000000
F80003E0000000
F80003E0000000
F80003E0000000
F80003E0000000
F80003E0000000
F80003E0000000
F80003E0000000
F80003E0000000
F80003E0000000
F80003E0000000
F80003E0000000
FFFFFFFFFF0000
FFFFFFFFFFF800
FFFFFFFFFFFE00
FFFFFFFFFFFF00
FFFFFFFFFFFF80
F80003E0003FC0
F80003E0000FE0
F80003E00007E0
F80003E00003E0
F80003E00003F0
F80003E00003F0
F80003E00001F0
F80003E00001F0
F80003E00003F0
F80003E00003F0
F80003E00003E0
F80003E00007E0
F80003E0000FE0
F80003E0001FC0
F80003FFFFFFC0
F80003FFFFFF80
F80003FFFFFF00
F80003FFFFFC00
F80003FFFFF000
ENDCHAR
STARTCHAR 040B
ENCODING 1035
SWIDTH 846 0
DWIDTH 47 0
BBX 41 41 1 0
BITMAP
FFFFFFFC0000
FFFFFFFC0000
FFFFFFFC0000
FFFFFFFC0000
FFFFFFFC0000
0007C0000000
0007C0000000
0007C0000000
0007C0000000
0007C0000000
0007C0000000
0007C0000000
0007C0000000
0007C00C0000
0007C3FFE000
0007C7FFF800
0007DFFFFC00
0007DFFFFE00
0007FF00FF00
0007F8003F00
0007F0001F00
0007E0001F00
0007E0001F80
0007C0001F80
0007C0001F80
0007C0001F80
0007C0001F80
0007C0001F80
0007C0001F80
0007C0001F80
0007C0001F80
0007C0001F80
0007C0001F80
0007C0001F80
0007C0001F80
0007C0001F80
0007C0001F80
0007C0001F80
0007C0001F80
0007C0001F80
0007C0001F80
ENDCHAR
STARTCHAR 040C
ENCODING 1036
SWIDTH 576 0
DWIDTH 32 0
BBX 26 53 4 0
BITMAP
0007F000
0007C000
000F8000
001F0000
001E0000
003C0000
00780000
00700000
00E00000
00000000
00000000
00000000
F8003F00
F8007E00
F8007C00
F800FC00
F801F800
F801F800
F803F000
F803E000
F807E000
F807C000
F80FC000
F81F8000
F81F8000
F83F0000
F83E0000
F87E0000
F8FC0000
FFFC0000
FFF80000
FFF80000
FFF80000
FFFC0000
F87E0000
F87E0000
F83F0000
F81F0000
F81F8000
F80FC000
F807C000
F807E000
F803F000
F801F000
F801F800
F800FC00
F8007C00
F8007E00
F8003F00
F8003F00
F8001F80
F8000FC0
F8000FC0
ENDCHAR
STARTCHAR 040D
ENCODING 1037
SWIDTH 720 0
DWIDTH 40 0
BBX 32 53 4 0
BITMAP
007E0000
003F0000
001F8000
000F8000
0007C000
0003E000
0001E000
0000F000
00007800
00000000
00000000
00000000
FC00003F
FC00003F
FC00003F
FC00003F
FC00003F
FC00003F
FC00007F
FC0000FF
FC0001FF
FC0003FF
FC0007FF
FC000FFF
FC000FFF
FC001FBF
FC003F3F
FC007F3F
FC00FE3F
FC01FC3F
FC03F83F
FC07F03F
FC07E03F
FC0FC03F
FC1F803F
FC3F803F
FC7F003F
FCFE003F
FDFC003F
FDF8003F
FFF0003F
FFE0003F
FFE0003F
FFC0003F
FF80003F
FF00003F
FE00003F
FC00003F
FC00003F
FC00003F
FC00003F
FC00003F
FC00003F
ENDCHAR
STARTCHAR 040E
ENCODING 1038
SWIDTH 630 0
DWIDTH 35 0
BBX 34 53 1 0
BITMAP
00F0038000
00F0038000
00F0078000
007C0F0000
007FFF0000
003FFE0000
001FFC0000
0007F00000
0000000000
0000000000
0000000000
0000000000
FE00000FC0
7E00001F80
7E00001F80
3F00003F00
3F00003F00
1F80003F00
1F80007E00
1F80007E00
0FC000FC00
0FC000FC00
07E000F800
07E001F800
03F001F800
03F003F000
01F003F000
01F803E000
00F807E000
00FC07C000
00FC0FC000
007E0FC000
007E0F8000
003E1F8000
003F1F0000
001F3F0000
001FBE0000
000FBE0000
000FFE0000
0007FC0000
0007FC0000
0007F80000
0003F80000
0003F00000
0001F00000
0003F00000
0003E00000
0007E00000
01FFC00000
01FFC00000
01FF800000
01FF000000
01FC000000
ENDCHAR
STARTCHAR 040F
ENCODING 1039
SWIDTH 720 0
DWIDTH 40 0
BBX 32 50 4 -9
BITMAP
FC00003F
FC00003F
FC00003F
FC00003F
FC00003F
FC00003F
FC00003F
FC00003F
FC00003F
FC00003F
FC00003F
FC00003F
FC00003F
FC00003F
FC00003F
FC00003F
FC00003F
FC00003F
FC00003F
FC00003F
FC00003F
FC00003F
FC00003F
FC00003F
FC00003F
FC00003F
FC00003F
FC00003F
FC00003F
FC00003F
FC00003F
FC00003F
FC00003F
FC00003F
FC00003F
FC00003F
FFFFFFFF
FFFFFFFF
FFFFFFFF
FFFFFFFF
FFFFFFFF
0007E000
0007E000
0007E000
0007E000
0007E000
0007E000
0007E000
0007E000
0007E000
ENDCHAR
STARTCHAR 0410
ENCODING 1040
SWIDTH 666 0
DWIDTH 37 0
BBX 35 41 1 0
BITMAP
0003F80000
0003FC0000
0007FC0000
0007FC0000
0007FE0000
000FFE0000
000FBE0000
000FBF0000
001F9F0000
001F1F0000
001F1F8000
003E0F8000
003E0F8000
003E0FC000
007C07C000
007C07C000
007C07E000
00F803E000
00F803E000
01F803F000
01F001F000
01F001F000
03E001F800
03E000F800
03FFFFFC00
07FFFFFC00
07FFFFFC00
07FFFFFE00
0FC0007E00
0F80003E00
0F80003F00
1F80003F00
1F00001F00
1F00001F80
3F00001F80
3E00000F80
7E00000FC0
7E00000FC0
7C000007C0
FC000007E0
FC000007E0
ENDCHAR
STARTCHAR 0411
ENCODING 1041
SWIDTH 648 0
DWIDTH 36 0
BBX 30 41 4 0
BITMAP
FFFFFFE0
FFFFFFE0
FFFFFFE0
FFFFFFE0
FFFFFFE0
F8000000
F8000000
F8000000
F8000000
F8000000
F8000000
F8000000
F8000000
F8000000
F8000000
F8000000
F8000000
FFFFE000
FFFFFF00
FFFFFFC0
FFFFFFE0
FFFFFFF0
F80007F8
F80001F8
F80000FC
F80000FC
F800007C
F800007C
F800007C
F800007C
F800007C
F800007C
F800007C
F80000FC
F80001FC
F80003F8
FFFFFFF0
FFFFFFF0
FFFFFFC0
FFFFFF80
FFFFFC00
ENDCHAR
STARTCHAR 0412
ENCODING 1042
SWIDTH 666 0
DWIDTH 37 0
BBX 30 41 5 0
BITMAP
FFFFF000
FFFFFE00
FFFFFF00
FFFFFF80
FFFFFFC0
F8000FE0
F80007E0
F80003F0
F80003F0
F80001F0
F80001F0
F80001F0
F80001F0
F80001F0
F80003E0
F80003E0
F80007C0
F8001F80
FFFFFF00
FFFFFE00
FFFFFF00
FFFFFFC0
FFFFFFE0
F80007F0
F80001F8
F80000F8
F80000F8
F80000FC
F80000FC
F800007C
F800007C
F80000FC
F80000F8
F80000F8
F80001F8
F80007F0
FFFFFFF0
FFFFFFE0
FFFFFFC0
FFFFFF00
FFFFFC00
ENDCHAR
STARTCHAR 0413
ENCODING 1043
SWIDTH 540 0
DWIDTH 30 0
BBX 25 41 5 0
BITMAP
FFFFFF80
FFFFFF80
FFFFFF80
FFFFFF80
FFFFFF80
F8000000
F8000000
F8000000
F8000000
F8000000
F8000000
F8000000
F8000000
F8000000
F8000000
F8000000
F8000000
F8000000
F8000000
F8000000
F8000000
F8000000
F8000000
F8000000
F8000000
F8000000
F8000000
F8000000
F8000000
F8000000
F8000000
F8000000
F8000000
F8000000
F8000000
F8000000
F8000000
F8000000
F8000000
F8000000
F8000000
ENDCHAR
STARTCHAR 0414
ENCODING 1044
SWIDTH 684 0
DWIDTH 38 0
BBX 36 50 1 -9
BITMAP
007FFFFF80
007FFFFF80
007FFFFF80
007FFFFF80
007FFFFF80
007E001F80
007E001F80
007E001F80
007E001F80
007E001F80
007E001F80
007E001F80
007E001F80
007E001F80
007E001F80
007E001F80
007E001F80
007E001F80
007E001F80
007E001F80
007E001F80
007E001F80
007E001F80
007E001F80
007C001F80
007C001F80
007C001F80
007C001F80
00FC001F80
00F8001F80
00F8001F80
01F0001F80
03F0001F80
03E0001F80
07E0001F80
1FC0001F80
FFFFFFFFF0
FFFFFFFFF0
FFFFFFFFF0
FFFFFFFFF0
FFFFFFFFF0
F8000001F0
F8000001F0
F8000001F0
F8000001F0
F8000001F0
F8000001F0
F8000001F0
F8000001F0
F8000001F0
ENDCHAR
STARTCHAR 0415
ENCODING 1045
SWIDTH 666 0
DWIDTH 37 0
BBX 29 41 5 0
BITMAP
FFFFFFF0
FFFFFFF0
FFFFFFF0
FFFFFFF0
FFFFFFF0
F8000000
F8000000
F8000000
F8000000
F8000000
F8000000
F8000000
F8000000
F8000000
F8000000
F8000000
F8000000
F8000000
FFFFFFE0
FFFFFFE0
FFFFFFE0
FFFFFFE0
FFFFFFE0
F8000000
F8000000
F8000000
F8000000
F8000000
F8000000
F8000000
F8000000
F8000000
F8000000
F8000000
F8000000
F8000000
FFFFFFF8
FFFFFFF8
FFFFFFF8
FFFFFFF8
FFFFFFF8
ENDCHAR
STARTCHAR 0416
ENCODING 1046
SWIDTH 918 0
DWIDTH 51 0
BBX 52 41 0 0
BITMAP
3F0001F0001F80
1F8001F0001F00
1F8001F0003F00
0FC001F0003E00
0FC001F0007E00
07E001F000FC00
03E001F000FC00
03F001F001F800
01F801F001F000
01F801F003F000
00FC01F007E000
007C01F007E000
007E01F00FC000
003F01F00F8000
003F01F01F8000
001F81F03F0000
000F81F03F0000
000FFFFFFE0000
0007FFFFFE0000
0007FFFFFC0000
0007FFFFFE0000
000FFFFFFE0000
001F81F03F0000
001F01F01F8000
003F01F00F8000
007E01F00FC000
007C01F007E000
00FC01F003E000
01F801F003F000
01F801F001F800
03F001F000F800
07E001F000FC00
07E001F0007C00
0FC001F0007E00
0F8001F0003F00
1F8001F0001F00
3F0001F0001F80
3E0001F0000FC0
7E0001F00007C0
FC0001F00007E0
F80001F00003F0
ENDCHAR
STARTCHAR 0417
ENCODING 1047
SWIDTH 612 0
DWIDTH 34 0
BBX 27 43 3 -1
BITMAP
003FC000
01FFF000
03FFFC00
07FFFE00
0FFFFF00
1FC03F80
1F801F80
3F000F80
3E000FC0
3E0007C0
3E0007C0
7E0007C0
7E0007C0
000007C0
00000F80
00000F80
00001F80
00007F00
001FFE00
001FFC00
001FF800
001FFE00
001FFF00
00003F80
00001FC0
00000FC0
000007E0
000003E0
000003E0
F80003E0
F80003E0
F80003E0
FC0003E0
7C0003E0
7C0007E0
7E0007C0
3F000FC0
3FC03F80
1FFFFF00
0FFFFF00
07FFFC00
01FFF800
003FC000
ENDCHAR
STARTCHAR 0418
ENCODING 1048
SWIDTH 720 0
DWIDTH 40 0
BBX 32 41 4 0
BITMAP
FC00003F
FC00003F
FC00003F
FC00003F
FC00003F
FC00003F
FC00007F
FC0000FF
FC0001FF
FC0003FF
FC0007FF
FC000FFF
FC000FFF
FC001FBF
FC003F3F
FC007F3F
FC00FE3F
FC01FC3F
FC03F83F
FC07F03F
FC07E03F
FC0FC03F
FC1F803F
FC3F803F
FC7F003F
FCFE003F
FDFC003F
FDF8003F
FFF0003F
FFE0003F
FFE0003F
FFC0003F
FF80003F
FF00003F
FE00003F
FC00003F
FC00003F
FC00003F
FC00003F
FC00003F
FC00003F
ENDCHAR
STARTCHAR 0419
ENCODING 1049
SWIDTH 720 0
DWIDTH 40 0
BBX 32 53 4 0
BITMAP
00E00700
00E00700
00F00F00
00F81F00
00FFFE00
007FFC00
003FF800
000FE000
00000000
00000000
00000000
00000000
FC00003F
FC00003F
FC00003F
FC00003F
FC00003F
FC00003F
FC00007F
FC0000FF
FC0001FF
FC0003FF
FC0007FF
FC000FFF
FC000FFF
FC001FBF
FC003F3F
FC007E3F
FC00FE3F
FC01FC3F
FC03F83F
FC07F03F
FC07E03F
FC0FC03F
FC1F803F
FC3F803F
FC7F003F
FCFE003F
FDFC003F
FDF8003F
FFF0003F
FFE0003F
FFE0003F
FFC0003F
FF80003F
FF00003F
FE00003F
FC00003F
FC00003F
FC00003F
FC00003F
FC00003F
FC00003F
ENDCHAR
STARTCHAR 041A
ENCODING 1050
SWIDTH 576 0
DWIDTH 32 0
BBX 26 41 4 0
BITMAP
F8003F00
F8007E00
F8007C00
F800FC00
F800F800
F801F800
F803F000
F803F000
F807E000
F807C000
F80FC000
F81F8000
F81F8000
F83F0000
F83E0000
F87E0000
F87C0000
FFFC0000
FFF80000
FFF80000
FFF80000
FFFC0000
F87E0000
F83E0000
F83F0000
F81F8000
F81F8000
F80FC000
F807E000
F807E000
F803F000
F801F000
F801F800
F800FC00
F8007C00
F8007E00
F8003F00
F8001F00
F8001F80
F8000FC0
F8000FC0
ENDCHAR
STARTCHAR 041B
ENCODING 1051
SWIDTH 648 0
DWIDTH 36 0
BBX 34 41 0 0
BITMAP
01FFFFFFC0
01FFFFFFC0
01FFFFFFC0
01FFFFFFC0
01FFFFFFC0
01F00007C0
01F00007C0
01F00007C0
01F00007C0
01F00007C0
01F00007C0
01F00007C0
01F00007C0
01F00007C0
01F00007C0
01F00007C0
01F00007C0
01F00007C0
01F00007C0
01F00007C0
01F00007C0
01F00007C0
01F00007C0
01F00007C0
01F00007C0
01F00007C0
01F00007C0
01F00007C0
01F00007C0
01F00007C0
03F00007C0
03E00007C0
03E00007C0
07E00007C0
0FC00007C0
1FC00007C0
FF800007C0
FF000007C0
FE000007C0
FC000007C0
F0000007C0
ENDCHAR
STARTCHAR 041C
ENCODING 1052
SWIDTH 828 0
DWIDTH 46 0
BBX 38 41 4 0
BITMAP
FE000001FC
FF000001FC
FF000003FC
FF000003FC
FF800003FC
FF800007FC
FF800007FC
FFC00007FC
FBC0000FFC
FBC0000F7C
FBE0000F7C
F9E0001F7C
F9E0001E7C
F9F0001E7C
F8F0003E7C
F8F0003C7C
F8F8003C7C
F878007C7C
F87800787C
F87C00787C
F83C00F87C
F83E00F07C
F83E00F07C
F81E01F07C
F81F01E07C
F81F01E07C
F80F03E07C
F80F83C07C
F80F83C07C
F80787C07C
F807C7807C
F807C7807C
F803CF807C
F803EF007C
F803EF007C
F801FF007C
F801FE007C
F801FE007C
F800FE007C
F800FC007C
F800FC007C
ENDCHAR
STARTCHAR 041D
ENCODING 1053
SWIDTH 720 0
DWIDTH 40 0
BBX 31 41 5 0
BITMAP
F800007E
F800007E
F800007E
F800007E
F800007E
F800007E
F800007E
F800007E
F800007E
F800007E
F800007E
F800007E
F800007E
F800007E
F800007E
F800007E
F800007E
F800007E
FFFFFFFE
FFFFFFFE
FFFFFFFE
FFFFFFFE
FFFFFFFE
F800007E
F800007E
F800007E
F800007E
F800007E
F800007E
F800007E
F800007E
F800007E
F800007E
F800007E
F800007E
F800007E
F800007E
F800007E
F800007E
F800007E
F800007E
ENDCHAR
STARTCHAR 041E
ENCODING 1054
SWIDTH 774 0
DWIDTH 43 0
BBX 39 43 2 -1
BITMAP
0001FF0000
000FFFF000
003FFFFC00
00FFFFFE00
01FFFFFF00
03FC007F80
07F0001FC0
0FE0000FE0
0FC00007F0
1F800003F0
3F000001F8
3F000000F8
3E000000FC
7E0000007C
7C0000007C
7C0000007E
7C0000007E
FC0000003E
F80000003E
F80000003E
F80000003E
F80000003E
F80000003E
F80000003E
F80000003E
FC0000003E
FC0000003E
7C0000007E
7C0000007C
7E0000007C
3E000000FC
3F000000F8
3F000001F8
1F800003F0
1FC00007F0
0FE0000FE0
07F0001FC0
03FE007F80
01FFFFFF00
00FFFFFE00
003FFFFC00
000FFFF000
0001FF0000
ENDCHAR
STARTCHAR 041F
ENCODING 1055
SWIDTH 720 0
DWIDTH 40 0
BBX 32 41 4 0
BITMAP
FFFFFFFF
FFFFFFFF
FFFFFFFF
FFFFFFFF
FFFFFFFF
FC00003F
FC00003F
FC00003F
FC00003F
FC00003F
FC00003F
FC00003F
FC00003F
FC00003F
FC00003F
FC00003F
FC00003F
FC00003F
FC00003F
FC00003F
FC00003F
FC00003F
FC00003F
FC00003F
FC00003F
FC00003F
FC00003F
FC00003F
FC00003F
FC00003F
FC00003F
FC00003F
FC00003F
FC00003F
FC00003F
FC00003F
FC00003F
FC00003F
FC00003F
FC00003F
FC00003F
ENDCHAR
STARTCHAR 0420
ENCODING 1056
SWIDTH 666 0
DWIDTH 37 0
BBX 29 41 5 0
BITMAP
FFFFF800
FFFFFF00
FFFFFF80
FFFFFFE0
FFFFFFE0
F8000FF0
F80003F0
F80001F8
F80001F8
F80000F8
F80000F8
F80000F8
F80000F8
F80000F8
F80000F8
F80001F8
F80003F8
F80007F0
F8001FF0
FFFFFFE0
FFFFFFC0
FFFFFF80
FFFFFE00
FFFFE000
F8000000
F8000000
F8000000
F8000000
F8000000
F8000000
F8000000
F8000000
F8000000
F8000000
F8000000
F8000000
F8000000
F8000000
F8000000
F8000000
F8000000
ENDCHAR
STARTCHAR 0421
ENCODING 1057
SWIDTH 720 0
DWIDTH 40 0
BBX 36 43 2 -1
BITMAP
0001FF0000
000FFFE000
003FFFF800
00FFFFFC00
01FFFFFE00
03FC00FF00
07F0003F80
0FE0001FC0
0FC0000FC0
1F800007E0
1F000007E0
3F000003E0
3E000003E0
7E000003E0
7C00000000
7C00000000
7C00000000
7C00000000
7C00000000
FC00000000
FC00000000
FC00000000
FC00000000
FC00000000
FC00000000
7C00000000
7C00000000
7C000003F0
7C000003F0
7E000003F0
3E000003F0
3F000003E0
1F000007E0
1F800007E0
0FC0000FC0
0FE0001F80
07F0003F80
03FC00FF00
01FFFFFE00
00FFFFFC00
007FFFF000
001FFFC000
0003FE0000
ENDCHAR
STARTCHAR 0422
ENCODING 1058
SWIDTH 612 0
DWIDTH 34 0
BBX 32 41 1 0
BITMAP
FFFFFFFF
FFFFFFFF
FFFFFFFF
FFFFFFFF
FFFFFFFF
0007E000
0007E000
0007E000
0007E000
0007E000
0007E000
0007E000
0007E000
0007E000
0007E000
0007E000
0007E000
0007E000
0007E000
0007E000
0007E000
0007E000
0007E000
0007E000
0007E000
0007E000
0007E000
0007E000
0007E000
0007E000
0007E000
0007E000
0007E000
0007E000
0007E000
0007E000
0007E000
0007E000
0007E000
0007E000
0007E000
ENDCHAR
STARTCHAR 0423
ENCODING 1059
SWIDTH 630 0
DWIDTH 35 0
BBX 34 41 1 0
BITMAP
FE00000FC0
7E00001F80
7E00001F80
3F00003F00
3F00003F00
1F80003F00
1F80007E00
1F80007E00
0FC000FC00
0FC000FC00
07E000F800
07E001F800
03F001F800
03F003F000
01F003F000
01F803E000
00F807E000
00FC07C000
00FC0FC000
007E0FC000
007E0F8000
003E1F8000
003F1F0000
001F3F0000
001FBE0000
000FBE0000
000FFE0000
0007FC0000
0007FC0000
0007F80000
0003F80000
0003F00000
0001F00000
0003F00000
0003E00000
0007E00000
01FFC00000
01FFC00000
01FF800000
01FF000000
01FC000000
ENDCHAR
ENDFONT
